<?xml version="1.0" standalone="no"?>
<!DOCTYPE svg PUBLIC "-//W3C//DTD SVG 20010904//EN"
 "http://www.w3.org/TR/2001/REC-SVG-20010904/DTD/svg10.dtd">
<svg version="1.0" xmlns="http://www.w3.org/2000/svg"
 width="704.000000pt" height="704.000000pt" viewBox="0 0 704.000000 704.000000"
 preserveAspectRatio="xMidYMid meet">
<metadata>
Created by potrace 1.14, written by Peter Selinger 2001-2017
</metadata>
<g transform="translate(0.000000,704.000000) scale(0.100000,-0.100000)"
fill="#000000" stroke="none">
<path d="M3533 6635 c0 -8 4 -12 9 -9 5 3 6 10 3 15 -9 13 -12 11 -12 -6z"/>
<path d="M3319 6625 c-1 -3 -2 -8 -3 -12 -1 -5 -5 -15 -11 -23 -7 -13 -6 -13
7 -2 13 10 17 10 20 0 3 -8 7 -6 11 5 4 10 2 16 -6 14 -7 -1 -11 4 -9 11 2 11
-6 18 -9 7z"/>
<path d="M3395 6621 c-3 -5 -1 -13 5 -16 7 -4 7 -12 2 -18 -11 -16 -9 -25 11
-67 10 -19 12 -27 5 -17 -36 52 -38 54 -34 24 3 -16 1 -25 -5 -21 -5 3 -17 0
-25 -7 -12 -10 -13 -9 -8 4 3 9 12 17 20 19 9 2 11 8 4 18 -8 13 -11 12 -23
-4 -8 -11 -25 -21 -38 -23 -18 -2 -20 -1 -9 6 8 5 18 7 22 5 4 -3 8 0 8 6 0 7
-7 9 -16 6 -9 -3 -22 -6 -30 -6 -9 0 -12 -4 -9 -10 9 -15 -1 -12 -14 3 -8 10
-7 14 4 15 8 1 21 3 29 4 8 1 12 7 9 15 -7 17 -22 17 -29 -2 -7 -18 -24 -10
-24 11 0 9 5 12 12 8 7 -4 8 -3 4 5 -11 17 -29 2 -23 -20 3 -10 1 -22 -4 -25
-5 -3 -9 0 -9 7 0 8 -5 7 -16 -2 -15 -12 -16 -11 -10 11 6 24 6 24 -9 -3 -9
-15 -13 -32 -10 -37 3 -5 -3 -14 -14 -20 -13 -7 -22 -7 -26 0 -3 5 2 10 11 10
10 0 15 3 11 6 -3 4 -13 4 -22 0 -13 -5 -13 -9 -3 -26 7 -11 16 -20 21 -20 4
0 5 5 1 12 -4 6 -3 8 4 4 5 -3 13 0 15 6 3 8 6 6 6 -4 1 -10 6 -17 12 -15 6 1
14 -5 16 -13 3 -9 1 -11 -4 -5 -4 6 -17 12 -27 13 -18 3 -18 2 -6 -15 12 -15
12 -16 0 -5 -15 13 -64 17 -56 4 2 -4 0 -14 -6 -22 -8 -13 -9 -12 -5 1 3 9 0
22 -6 28 -11 11 2 16 26 12 5 -1 6 3 2 9 -4 6 -12 7 -24 1 -24 -13 -46 -41
-33 -41 6 0 13 5 15 10 3 6 4 5 3 -2 -2 -7 1 -22 6 -33 9 -20 9 -20 -6 -1 -9
11 -16 16 -16 10 0 -5 -5 -1 -11 9 -5 9 -7 23 -4 30 4 6 0 4 -8 -5 -8 -10 -19
-18 -26 -18 -6 0 -11 -5 -11 -10 0 -7 6 -7 18 -1 14 8 18 5 19 -12 2 -17 0
-18 -7 -7 -5 8 -12 11 -16 7 -4 -4 -13 -2 -21 4 -10 9 -11 15 -1 28 10 13 9
13 -7 -1 -15 -14 -16 -19 -5 -33 11 -14 11 -16 -1 -13 -8 2 -13 -3 -11 -9 1
-7 -3 -13 -9 -13 -6 0 -9 7 -5 15 5 15 -26 39 -38 28 -3 -3 -6 -1 -6 5 0 7 -5
12 -11 12 -8 0 -9 -4 0 -13 6 -8 7 -18 3 -23 -4 -4 0 -3 10 4 20 16 34 -1 14
-17 -11 -9 -17 -7 -29 9 -11 16 -16 18 -21 8 -3 -7 -4 -3 -2 10 2 12 0 20 -5
16 -5 -3 -9 -12 -9 -20 0 -8 -4 -13 -8 -10 -5 3 -9 -1 -9 -8 0 -7 6 -13 13
-13 7 0 11 3 9 7 -2 4 2 7 10 7 18 0 28 -24 13 -33 -6 -4 -8 -3 -4 4 4 7 -1
10 -14 9 -22 -1 -27 -13 -7 -20 9 -4 9 -6 -1 -6 -7 -1 -17 10 -23 23 -7 15
-17 22 -25 19 -10 -4 -12 0 -8 13 4 11 4 16 0 13 -8 -7 -18 -47 -18 -71 1 -9
-5 -15 -12 -12 -16 6 -58 -34 -50 -48 4 -6 3 -8 -3 -5 -6 4 -9 23 -8 44 2 21
1 32 -2 25 -3 -6 -8 -10 -12 -8 -4 3 -8 -1 -8 -9 0 -8 4 -15 9 -15 5 0 6 -5 2
-11 -4 -8 -12 -3 -20 12 -7 13 -13 18 -14 10 0 -7 -6 -11 -13 -8 -8 3 -14 -1
-14 -8 0 -10 5 -11 19 -4 10 5 18 6 17 2 -1 -4 0 -10 1 -13 7 -19 7 -39 -1
-34 -5 3 -7 9 -4 14 7 12 -16 25 -24 13 -7 -12 -42 -13 -35 -1 3 5 10 6 15 3
5 -3 6 1 3 9 -3 9 -10 16 -16 16 -5 0 -7 -4 -4 -9 6 -9 -22 -26 -37 -23 -4 1
-6 -3 -5 -10 4 -15 -22 -18 -42 -4 -13 9 -13 9 -2 -6 8 -10 9 -19 3 -22 -5 -3
-12 0 -14 6 -4 8 -6 7 -6 -4 -1 -9 4 -20 9 -23 6 -3 10 -1 10 5 0 6 5 8 12 4
7 -5 8 -3 3 6 -6 9 -4 11 5 5 8 -5 11 -4 7 2 -3 5 0 10 8 10 13 0 13 -3 -1
-18 -9 -10 -13 -23 -8 -30 5 -8 3 -10 -6 -4 -10 6 -12 3 -7 -11 7 -18 6 -18
-6 -2 -8 10 -18 14 -22 10 -5 -4 -5 -1 -1 6 7 11 -14 18 -39 12 -5 -1 -17 -3
-25 -3 -21 0 -41 -17 -33 -30 4 -6 0 -8 -11 -4 -9 4 -15 3 -12 -1 8 -13 -11
-35 -34 -39 -12 -2 -19 1 -15 7 4 6 -1 7 -10 3 -9 -3 -13 -9 -8 -12 12 -9 12
-52 0 -44 -6 4 -8 0 -4 -11 5 -11 3 -15 -5 -10 -7 5 -9 2 -5 -8 4 -12 0 -15
-16 -11 -22 4 -22 4 -2 -12 19 -15 19 -16 -5 -13 -13 2 -25 -2 -25 -9 0 -6 -4
-15 -9 -20 -5 -4 -6 -3 -3 3 4 7 -5 20 -21 29 l-27 18 19 -21 c10 -11 16 -27
13 -34 -4 -10 -6 -9 -6 2 -1 8 -10 21 -22 28 -12 8 -18 9 -15 4 3 -6 1 -12 -5
-14 -5 -2 -7 -11 -4 -21 4 -9 10 -15 14 -12 4 2 8 -2 8 -10 0 -8 -5 -13 -11
-12 -6 1 -10 -3 -9 -9 2 -9 -4 -9 -22 -1 -13 7 -21 15 -18 19 2 5 8 6 13 3 5
-3 11 -1 14 4 4 5 2 12 -4 16 -11 7 -59 -43 -60 -62 0 -7 -4 -13 -8 -13 -4 0
-14 6 -22 13 -12 10 -12 9 -1 -5 11 -15 11 -19 -3 -24 -9 -3 -14 -10 -11 -14
6 -10 46 25 63 55 6 11 12 14 12 7 0 -7 4 -11 9 -7 5 3 13 1 16 -5 4 -6 3 -9
-2 -8 -4 2 -8 -1 -8 -7 0 -5 4 -9 10 -7 5 2 6 0 2 -4 -11 -11 -38 -14 -31 -3
3 5 1 9 -4 9 -17 0 -21 -13 -11 -34 9 -19 9 -19 -4 -3 -17 21 -31 22 -24 2 7
-17 -9 -30 -18 -15 -3 5 -11 10 -17 10 -6 0 -3 -10 8 -22 10 -12 13 -18 5 -13
-11 6 -13 4 -8 -11 7 -18 6 -18 -6 -2 -10 12 -17 14 -24 7 -8 -8 -13 -7 -18 2
-6 8 -4 10 5 4 9 -6 11 -4 5 4 -5 9 -13 7 -29 -8 -18 -17 -25 -18 -36 -8 -12
10 -12 9 0 -6 11 -14 11 -20 2 -26 -7 -4 -10 -15 -7 -23 4 -9 1 -19 -6 -24 -7
-4 -10 -3 -6 2 3 6 2 16 -4 24 -6 11 -8 5 -5 -17 2 -18 -1 -30 -5 -27 -5 3 -9
-2 -9 -10 0 -13 -13 -21 -22 -14 -2 1 -13 -4 -25 -11 -24 -12 -31 -31 -12 -31
5 0 7 5 3 12 -4 7 -3 8 4 4 7 -4 12 -1 12 6 0 9 3 9 10 -2 8 -12 10 -12 10 -1
0 8 3 12 6 8 3 -3 1 -14 -5 -24 -6 -11 -11 -13 -11 -5 0 7 -4 11 -10 7 -5 -3
-7 -12 -3 -20 3 -10 -1 -15 -13 -16 -11 0 -14 -3 -7 -6 17 -6 -6 -30 -30 -30
-19 0 -23 12 -7 22 6 3 10 1 10 -5 0 -6 4 -9 9 -6 13 8 8 49 -7 52 -7 1 -8 0
-2 -3 15 -7 12 -23 -5 -23 -8 0 -15 -5 -15 -11 0 -5 -5 -7 -11 -3 -8 4 -8 0 0
-15 9 -16 8 -26 -4 -44 -8 -13 -12 -27 -8 -32 5 -4 2 -5 -5 -1 -11 6 -10 12 2
32 14 20 14 23 1 18 -8 -4 -15 -13 -15 -21 0 -8 -4 -12 -8 -9 -5 3 -9 -1 -9
-9 0 -8 4 -12 9 -9 4 3 8 1 8 -5 0 -5 8 -11 18 -13 14 -3 13 -5 -6 -10 -12 -3
-20 -2 -16 3 8 13 -20 11 -33 -2 -8 -8 -17 -8 -34 1 -22 10 -22 10 -6 -3 15
-12 15 -16 3 -26 -17 -14 -15 -39 5 -52 12 -7 12 -9 -1 -9 -13 0 -13 -1 0 -10
13 -8 13 -10 -2 -10 -11 0 -15 -7 -14 -24 2 -15 -1 -23 -9 -20 -6 3 -18 -2
-25 -10 -7 -9 -16 -13 -21 -10 -5 3 -9 0 -9 -7 0 -7 -3 -10 -6 -6 -4 3 3 18
14 32 12 16 22 21 24 13 3 -7 7 -8 11 -2 3 5 -3 16 -15 23 -16 10 -18 10 -12
0 5 -9 2 -10 -12 -5 -14 5 -16 4 -7 -4 13 -15 -14 -53 -31 -43 -6 3 -6 0 1 -7
17 -18 61 -21 67 -4 3 8 11 14 18 13 10 0 10 -2 0 -6 -6 -2 -10 -9 -6 -14 3
-5 0 -10 -5 -10 -6 -1 -15 -3 -21 -4 -5 -1 -15 -3 -20 -4 -6 0 -9 -4 -9 -8 4
-22 -4 -32 -30 -43 -16 -6 -32 -18 -35 -27 -3 -8 -10 -11 -16 -8 -5 3 -10 4
-10 1 0 -3 9 -10 20 -16 17 -9 19 -8 14 7 -5 15 -4 16 5 3 10 -13 11 -12 9 4
-2 11 4 20 13 21 16 3 16 1 0 -26 -9 -16 -22 -31 -29 -34 -7 -3 -10 0 -7 5 3
6 1 10 -4 10 -6 0 -11 -7 -11 -16 0 -8 -5 -12 -11 -9 -6 4 -8 14 -5 22 3 8 1
11 -4 8 -6 -4 -10 -12 -9 -18 1 -7 -4 -25 -11 -42 -18 -41 -19 -47 -3 -72 10
-18 10 -24 0 -35 -17 -17 -16 -54 1 -50 8 1 11 -2 7 -8 -4 -7 -11 -8 -18 -1
-7 5 -16 10 -22 11 -5 1 -12 4 -15 7 -3 4 1 3 9 -2 9 -5 12 -4 7 3 -4 7 -3 12
2 12 5 0 9 7 9 15 0 8 -4 15 -9 15 -4 0 -8 -7 -8 -15 0 -8 -5 -15 -11 -15 -6
0 -8 -9 -4 -21 5 -14 3 -19 -3 -15 -6 4 -20 -3 -31 -15 -11 -12 -24 -18 -32
-14 -8 5 -10 4 -5 -3 4 -7 17 -10 29 -8 12 3 27 5 32 5 6 1 4 5 -4 10 -7 5 -9
11 -4 14 5 3 15 -3 22 -15 10 -16 10 -18 0 -12 -9 5 -10 2 -5 -11 5 -15 4 -16
-8 -6 -11 9 -17 8 -30 -4 -9 -9 -13 -22 -9 -28 4 -7 0 -8 -13 -4 -17 6 -17 6
-3 -5 9 -7 22 -24 29 -38 7 -14 9 -22 5 -18 -5 4 -15 2 -23 -5 -11 -8 -14 -8
-9 0 4 6 2 15 -4 19 -8 5 -9 3 -4 -6 5 -9 1 -11 -16 -6 -13 3 -18 3 -11 0 6
-3 9 -11 6 -16 -4 -7 -2 -8 4 -4 12 7 52 -14 52 -28 0 -4 -7 -3 -15 4 -18 15
-20 0 -2 -20 10 -12 9 -12 -6 0 -10 8 -15 20 -12 29 5 12 4 13 -6 4 -9 -9 -8
-17 4 -37 16 -24 16 -26 -11 -41 -20 -12 -28 -24 -27 -43 1 -34 -21 -62 -43
-55 -13 4 -14 3 -3 -5 8 -6 11 -18 6 -31 -4 -15 -2 -20 7 -18 7 2 10 2 6 0
-13 -7 -9 -33 4 -33 6 0 3 -6 -8 -14 -19 -15 -19 -15 1 -31 11 -9 14 -14 7
-10 -24 12 -62 15 -62 5 0 -6 5 -8 10 -5 6 3 10 2 10 -4 0 -6 8 -8 18 -5 10 4
13 2 7 -3 -5 -4 -10 -15 -10 -23 0 -8 -8 -16 -17 -18 -10 -2 -18 1 -18 7 0 6
7 8 16 4 11 -4 15 -2 12 7 -8 24 -34 19 -36 -6 -1 -17 3 -24 16 -24 14 0 15
-2 2 -10 -9 -5 -19 -5 -26 1 -8 7 -14 6 -19 -1 -4 -6 -3 -10 2 -9 22 4 25 -2
7 -16 -19 -15 -19 -15 1 -9 18 5 18 4 3 -8 -9 -7 -24 -18 -34 -24 -14 -8 -15
-12 -4 -19 9 -5 11 -4 6 3 -4 7 -3 12 2 12 17 0 22 -13 11 -27 -10 -11 -15
-11 -28 -1 -14 12 -14 11 -2 -4 7 -10 18 -15 24 -11 6 4 8 0 4 -10 -7 -19 9
-33 17 -15 3 7 3 2 -1 -12 -5 -23 -5 -24 13 -10 17 14 18 13 7 -1 -7 -9 -10
-19 -6 -22 3 -4 1 -7 -5 -7 -7 0 -12 5 -12 11 0 5 -5 7 -11 3 -8 -4 -8 -9 0
-17 15 -15 14 -30 0 -21 -8 5 -10 -1 -7 -20 3 -14 1 -29 -3 -32 -5 -3 -9 -10
-9 -16 0 -7 6 -6 15 2 9 7 15 8 15 2 0 -5 -6 -12 -13 -15 -8 -3 -13 -16 -11
-29 1 -12 3 -27 3 -31 1 -5 6 -5 13 -1 7 4 8 3 4 -4 -5 -9 -13 -9 -27 -2 -10
6 -19 13 -19 16 0 3 4 3 8 0 5 -3 8 8 8 23 0 28 -15 35 -33 17 -4 -4 -2 -6 6
-4 7 2 16 -3 19 -11 3 -9 0 -11 -9 -6 -8 5 -11 5 -7 0 4 -4 2 -15 -5 -23 -8
-11 -9 -14 0 -9 8 5 11 0 10 -13 -1 -22 -13 -27 -20 -7 -4 9 -6 9 -6 0 -1 -6
4 -15 9 -18 8 -5 7 -12 -2 -23 -7 -9 -8 -13 -2 -9 7 4 14 -3 16 -18 6 -31 2
-31 -23 -2 -10 12 -18 17 -19 10 0 -6 5 -13 12 -15 7 -3 9 -11 3 -24 -4 -10
-7 -22 -7 -26 1 -5 -3 -8 -9 -8 -5 0 -8 -4 -5 -9 3 -5 -2 -15 -11 -22 -13 -11
-17 -11 -20 -1 -3 6 -9 12 -15 12 -7 0 -7 -4 1 -13 8 -10 7 -17 -1 -25 -9 -9
-7 -16 5 -30 9 -10 14 -22 10 -25 -10 -10 -25 -8 -19 2 7 11 -22 36 -31 27 -3
-3 -1 -6 5 -6 6 0 9 -6 6 -14 -3 -7 2 -16 10 -19 9 -4 13 -13 10 -22 -7 -17
11 -21 22 -3 5 7 3 8 -5 3 -10 -6 -10 -2 0 16 7 13 12 28 11 32 -1 5 3 5 9 1
8 -5 9 -3 4 6 -5 8 -4 11 3 6 7 -4 10 1 7 14 -2 11 0 18 5 15 5 -3 7 4 5 15
-2 11 -1 20 3 21 4 0 15 2 24 4 21 4 12 -23 -17 -48 -14 -13 -15 -17 -4 -14 9
3 22 1 30 -4 12 -7 12 -9 0 -9 -11 0 -11 -3 0 -17 13 -17 13 -17 -7 0 -27 22
-37 22 -25 -2 8 -15 7 -20 -5 -25 -9 -3 -21 -3 -27 0 -7 3 -3 -2 7 -10 19 -15
12 -22 -16 -17 -5 0 -8 -4 -8 -9 0 -13 -21 -9 -38 7 -17 16 -29 16 -38 1 -5
-7 -3 -8 6 -3 9 5 21 -2 37 -21 17 -21 22 -24 17 -9 -5 16 -4 17 5 5 6 -8 11
-10 11 -4 0 6 7 11 16 11 10 0 6 -8 -13 -23 -15 -13 -23 -23 -16 -24 6 0 15 5
18 10 3 6 14 10 23 9 12 0 10 -3 -7 -10 -19 -8 -21 -12 -11 -24 8 -10 9 -15 2
-15 -6 0 -9 -7 -6 -15 4 -8 11 -12 17 -8 6 4 7 1 2 -7 -6 -10 -11 -9 -21 4 -7
10 -15 13 -18 7 -4 -5 -2 -13 4 -16 8 -5 7 -11 -1 -22 -10 -11 -10 -16 -1 -22
8 -4 6 -10 -7 -18 -19 -12 -51 0 -38 14 5 4 12 1 16 -6 6 -8 11 -9 15 -3 9 15
-10 24 -34 17 -27 -9 -25 -19 7 -34 18 -8 29 -9 37 -1 5 5 15 10 21 10 5 0 2
-5 -7 -11 -10 -5 -18 -17 -18 -24 0 -8 -4 -15 -10 -15 -5 0 -9 5 -7 11 1 6 -6
13 -16 14 -11 2 -16 1 -13 -2 3 -4 1 -12 -5 -20 -9 -10 -8 -17 2 -30 12 -15
12 -16 -6 -10 -20 7 -20 7 -1 -8 11 -8 25 -15 30 -15 6 0 4 5 -4 11 -13 10
-13 10 1 6 9 -3 16 1 16 8 0 7 -7 12 -15 11 -8 0 -17 6 -20 14 -4 12 -2 13 9
4 8 -6 22 -10 31 -9 9 2 19 -3 22 -10 3 -9 0 -12 -10 -8 -16 6 -16 -17 1 -29
6 -5 6 -8 -2 -8 -6 0 -10 -8 -8 -17 1 -10 -2 -24 -8 -30 -12 -16 5 -17 20 -2
8 8 13 8 18 0 3 -6 1 -10 -6 -9 -6 2 -14 -3 -16 -10 -3 -8 1 -10 14 -5 10 3
15 3 11 -1 -3 -4 -14 -9 -25 -10 -10 -2 -19 -11 -21 -22 -7 -41 -11 -47 -27
-34 -25 21 -17 5 15 -28 21 -22 29 -26 27 -14 -1 9 -6 23 -10 30 -5 7 -3 12 3
12 6 0 8 5 4 11 -5 8 -1 8 13 0 11 -6 23 -8 26 -5 3 3 4 -6 3 -20 -2 -15 1
-29 5 -32 5 -3 9 -10 9 -17 0 -6 -7 -1 -16 11 -17 24 -36 30 -28 8 8 -20 -33
-41 -51 -26 -10 8 -15 8 -21 -1 -4 -7 -3 -9 4 -5 6 3 16 -2 22 -11 8 -13 13
-14 16 -5 8 17 21 15 21 -3 0 -8 -5 -15 -10 -15 -5 0 -7 -7 -3 -15 3 -8 -4
-21 -17 -30 -12 -8 -17 -15 -13 -15 5 0 18 7 28 17 10 9 18 11 18 5 0 -6 -5
-14 -10 -17 -7 -4 -6 -13 1 -26 6 -12 13 -18 16 -15 7 6 32 -24 33 -38 0 -5
-8 -2 -18 7 -23 21 -28 21 -37 0 -5 -14 -4 -15 6 -6 10 10 17 9 36 -9 21 -20
22 -22 5 -35 -16 -14 -16 -14 0 -9 11 3 22 -2 28 -14 8 -15 6 -19 -8 -23 -9
-2 -2 -4 16 -4 17 0 32 4 32 9 0 5 -4 7 -9 3 -6 -3 -15 3 -21 14 -6 12 -6 22
-1 25 5 4 12 1 14 -4 3 -6 4 -5 3 2 -2 7 -8 12 -14 11 -5 -1 -16 5 -23 14 -12
14 -11 15 9 9 14 -5 22 -3 22 4 0 6 -4 9 -9 6 -5 -3 -14 1 -21 9 -9 11 -9 15
-1 15 7 0 9 5 5 11 -4 8 -9 7 -16 -2 -8 -11 -9 -10 -5 3 4 12 1 16 -13 13 -13
-3 -18 2 -17 16 1 10 4 19 8 19 9 0 5 42 -5 59 -6 9 -5 12 2 7 6 -3 13 -2 17
4 3 5 -2 10 -12 10 -15 0 -16 2 -3 10 10 6 17 5 23 -6 6 -11 13 -12 30 -3 19
9 19 8 -3 -10 -21 -18 -23 -22 -10 -32 12 -8 9 -9 -10 -3 -22 6 -23 5 -12 -9
8 -9 19 -14 27 -11 7 3 16 0 21 -7 5 -9 2 -10 -9 -6 -9 3 -19 2 -22 -2 -9 -15
27 -22 44 -9 14 12 15 11 2 -5 -9 -11 -21 -15 -35 -12 -20 6 -20 5 -3 -8 9 -8
15 -21 12 -29 -4 -9 0 -15 10 -15 10 0 13 6 9 19 -3 10 -1 18 4 18 11 0 10
-40 -2 -58 -3 -6 -2 -13 4 -17 5 -3 10 -1 10 6 0 7 3 10 6 7 3 -4 1 -15 -5
-27 -9 -16 -8 -22 5 -29 11 -6 13 -11 5 -16 -17 -11 -14 -36 4 -30 8 4 13 9
10 13 -2 4 3 8 12 8 12 0 11 -5 -7 -19 -21 -17 -24 -17 -41 -2 -17 16 -22 3
-8 -21 4 -5 5 -18 4 -28 -2 -9 5 -22 16 -27 27 -15 24 -28 -7 -24 -28 3 -25
-8 4 -13 9 -1 23 5 31 15 13 16 13 15 6 -3 -4 -11 -9 -29 -10 -41 -1 -11 -5
-26 -9 -33 -5 -7 -4 -17 2 -23 6 -6 12 -6 17 3 5 8 4 10 -3 5 -18 -11 -14 10
3 24 13 10 18 11 28 1 9 -10 8 -11 -5 -6 -14 6 -16 1 -15 -27 1 -18 6 -36 10
-39 5 -3 2 -9 -6 -12 -11 -4 -15 -1 -12 12 2 10 -3 18 -11 18 -8 0 -14 -4 -14
-9 0 -4 5 -8 11 -8 5 0 8 -4 4 -9 -3 -5 0 -13 6 -17 9 -5 6 -11 -7 -21 -18
-13 -17 -14 8 -9 20 3 25 1 22 -9 -3 -8 -13 -11 -22 -8 -15 4 -15 3 -2 -6 8
-6 11 -11 6 -11 -12 0 13 -29 36 -41 14 -7 18 -6 18 5 0 10 -6 13 -18 10 -14
-5 -14 -4 -2 4 18 14 30 6 30 -19 0 -16 -4 -19 -22 -14 -13 4 -32 16 -44 26
-11 11 -24 19 -28 19 -5 0 3 -9 18 -21 14 -11 23 -25 20 -31 -4 -6 1 -8 14 -4
12 4 23 2 28 -5 4 -8 3 -9 -4 -5 -7 4 -12 3 -12 -2 0 -5 9 -12 19 -15 14 -3
18 -1 14 9 -3 8 -1 14 4 14 15 0 11 -58 -5 -65 -12 -4 -13 -3 -2 10 7 8 11 15
9 16 -24 4 -61 6 -51 2 6 -3 10 -9 7 -14 -4 -5 2 -6 11 -2 12 5 15 3 9 -6 -4
-8 -2 -17 6 -23 11 -7 11 -11 2 -15 -14 -5 -18 -25 -5 -20 4 1 9 -3 10 -8 2
-6 7 -14 11 -20 4 -5 6 -20 5 -32 0 -12 2 -20 6 -18 4 2 6 16 5 30 -4 28 9 34
19 9 4 -10 2 -13 -6 -8 -8 5 -9 2 -5 -9 9 -23 -2 -49 -17 -40 -6 4 -4 -1 4
-11 17 -21 25 -60 10 -51 -16 10 -12 -2 7 -21 19 -19 26 -44 12 -44 -5 0 -9
-5 -9 -10 0 -6 8 -5 20 2 12 8 15 15 8 19 -6 4 -2 10 11 14 13 4 25 4 28 1 4
-3 -1 -6 -11 -6 -9 0 -15 -4 -11 -10 3 -5 13 -7 23 -4 13 5 14 4 3 -4 -11 -8
-11 -10 0 -15 8 -3 1 -4 -15 -4 -17 1 -31 -4 -34 -12 -3 -9 1 -11 17 -6 12 4
21 2 21 -4 0 -6 -4 -11 -9 -11 -5 0 -12 -8 -15 -18 -4 -11 2 -8 17 9 20 23 25
24 37 10 12 -13 12 -14 -1 -9 -13 5 -15 -1 -13 -30 2 -21 4 -39 5 -42 1 -3 1
-9 0 -15 -1 -5 6 -1 15 10 16 20 16 20 9 -4 -5 -15 -4 -21 3 -17 7 4 9 -2 7
-15 -3 -15 0 -19 10 -15 21 8 18 -1 -4 -13 -15 -9 -18 -7 -17 12 1 13 -6 23
-16 25 -10 2 -18 -1 -18 -7 0 -6 8 -7 18 -4 14 6 15 4 4 -9 -9 -12 -10 -18 -2
-23 6 -4 9 -13 6 -21 -3 -7 0 -16 6 -20 7 -5 5 -12 -8 -22 -15 -12 -15 -13 -2
-9 21 7 41 -15 28 -31 -7 -9 -7 -9 2 -2 16 13 31 13 23 0 -3 -6 -1 -10 4 -10
18 0 12 13 -17 38 -19 17 -22 22 -8 18 16 -6 17 -4 6 9 -8 10 -9 15 -1 15 10
0 15 -13 12 -32 -2 -13 17 -9 23 5 3 6 3 1 -1 -13 -5 -22 -4 -23 11 -11 10 9
16 10 16 2 0 -6 -4 -11 -10 -11 -5 0 -10 -4 -10 -10 0 -5 8 -7 17 -4 11 4 14
2 8 -3 -17 -14 -1 -68 17 -57 6 4 5 -4 -2 -16 -6 -12 -9 -24 -6 -27 3 -4 0
-13 -7 -21 -9 -12 -9 -16 1 -19 6 -3 9 -10 5 -16 -3 -7 -3 -9 2 -5 4 4 16 3
25 -2 15 -8 17 -6 13 9 -3 10 0 21 5 25 16 10 9 -48 -8 -62 -12 -11 -11 -11 9
-1 21 10 23 9 18 -6 -5 -11 -3 -15 5 -12 7 2 12 10 11 16 -5 19 11 12 26 -12
13 -19 13 -21 -1 -9 -13 10 -18 9 -28 -3 -9 -10 -16 -12 -25 -5 -8 7 -12 5
-12 -5 0 -7 5 -13 11 -12 6 1 10 -4 9 -10 -2 -7 14 -20 34 -28 38 -16 83 -55
63 -55 -6 0 -8 -5 -5 -10 4 -6 11 -8 16 -5 5 4 10 0 10 -7 3 -28 -4 -53 -15
-60 -8 -6 -8 -8 0 -8 14 0 36 25 29 32 -3 2 1 5 8 5 8 0 14 -6 14 -13 0 -7 -5
-10 -10 -7 -6 4 -8 0 -4 -10 4 -10 2 -16 -5 -14 -11 2 -13 -9 -8 -50 1 -12 3
-13 7 -5 2 6 10 9 15 6 7 -4 8 -2 4 4 -4 7 -2 12 3 12 6 0 11 5 11 11 0 8 -5
7 -15 -1 -9 -7 -17 -11 -20 -8 -2 2 4 12 15 21 11 9 20 13 20 8 0 -5 8 -18 18
-27 16 -17 16 -18 0 -11 -19 7 -23 0 -9 -21 4 -7 19 -11 32 -9 19 4 25 0 26
-14 2 -21 -12 -25 -23 -7 -5 7 -3 8 6 3 9 -5 11 -4 6 4 -4 6 -12 9 -17 5 -5
-3 -7 -10 -4 -15 4 -5 2 -9 -4 -9 -5 0 -12 6 -14 13 -4 9 -6 9 -6 -1 -1 -7 -6
-10 -13 -6 -6 4 -8 3 -5 -4 4 -5 18 -9 32 -7 16 1 25 -3 25 -11 0 -8 5 -14 11
-14 5 0 8 4 5 8 -3 5 1 9 9 9 8 0 12 -4 9 -9 -5 -7 10 -12 29 -9 4 1 3 -8 -3
-19 -12 -23 -22 -27 -14 -6 3 7 -2 16 -10 19 -9 4 -16 2 -16 -4 0 -6 -4 -7
-10 -4 -6 4 -7 -1 -3 -11 4 -11 8 -13 11 -6 5 16 23 16 19 0 -3 -16 27 -17 33
-1 3 7 10 2 17 -12 8 -18 8 -27 1 -32 -7 -4 -8 -1 -3 7 6 9 4 11 -5 5 -8 -5
-11 -4 -7 1 3 6 -7 10 -22 9 -19 0 -27 -4 -23 -13 3 -9 8 -10 15 -3 8 8 16 6
29 -6 15 -13 20 -14 35 -2 14 12 16 12 8 0 -6 -11 -4 -13 7 -9 8 4 15 1 15 -6
0 -9 -13 -12 -36 -10 -34 2 -33 2 12 -12 27 -9 47 -21 47 -30 0 -8 -4 -14 -10
-14 -5 0 -9 5 -7 11 1 6 -3 13 -10 16 -13 5 -14 -35 -1 -53 9 -12 68 -17 68
-5 0 4 7 8 15 8 21 0 19 -4 -12 -21 -16 -8 -22 -15 -14 -16 8 0 11 -6 7 -16
-3 -9 -2 -12 5 -9 6 4 8 13 5 20 -3 10 2 12 20 9 18 -3 23 -1 18 7 -4 7 -3 9
4 6 12 -8 10 -32 -3 -44 -4 -4 -5 -2 -1 5 12 21 -10 13 -30 -10 -10 -13 -12
-17 -4 -11 17 16 34 17 24 2 -5 -8 -1 -8 13 0 22 11 45 -3 37 -24 -5 -11 0
-13 46 -17 10 -1 17 -4 15 -6 -2 -3 2 -17 10 -33 10 -19 21 -27 34 -24 15 3
18 -1 13 -17 -4 -15 -1 -19 9 -16 8 3 13 12 11 19 -3 11 -1 12 9 2 10 -11 9
-16 -6 -27 -12 -9 -22 -10 -26 -5 -3 6 -11 3 -19 -5 -7 -9 -17 -13 -24 -9 -6
3 -5 0 2 -8 11 -12 14 -12 22 1 7 11 12 12 21 3 13 -13 42 -6 33 9 -4 6 1 6
13 -1 11 -6 24 -7 29 -3 5 4 3 0 -4 -10 -8 -10 -9 -18 -3 -22 5 -4 10 -14 10
-24 1 -38 5 -51 12 -46 5 2 5 12 2 22 -6 15 -5 15 10 4 15 -13 15 -16 1 -40
-12 -20 -12 -22 -2 -10 8 10 18 15 21 12 3 -3 16 0 29 7 21 11 22 11 9 -5 -8
-9 -12 -18 -10 -19 2 -1 13 -9 23 -17 15 -11 18 -12 12 -1 -7 10 -3 12 15 6
17 -4 20 -3 10 3 -7 5 -9 12 -5 15 5 3 17 -6 27 -18 12 -17 14 -26 5 -31 -7
-5 -8 -3 -3 6 6 9 4 11 -5 5 -9 -5 -11 -4 -6 3 5 8 1 10 -10 5 -15 -5 -15 -7
0 -15 9 -5 13 -15 10 -21 -5 -8 -3 -8 7 1 7 6 17 12 22 12 4 0 5 -6 0 -12 -4
-7 -8 -19 -9 -26 -2 -10 1 -10 12 -1 7 6 11 15 8 20 -3 5 0 9 5 9 14 0 14 -23
1 -36 -8 -8 -5 -15 7 -24 14 -11 16 -11 6 -1 -16 19 13 66 32 51 6 -5 16 -6
20 -2 5 4 4 0 -1 -8 -13 -23 -13 -40 -1 -37 7 1 11 -4 10 -11 -2 -6 2 -12 7
-12 6 0 10 5 10 10 0 6 5 10 11 10 6 0 9 -6 6 -14 -4 -11 -1 -11 18 -2 23 10
23 12 7 31 -17 20 -17 20 4 2 11 -9 24 -15 27 -12 4 3 5 2 2 -2 -3 -4 5 -13
17 -20 l23 -14 -25 6 c-23 6 -23 5 -7 -8 9 -8 17 -18 17 -22 0 -5 -10 1 -23
13 -21 20 -25 21 -43 6 -18 -14 -18 -15 4 -4 15 7 22 7 22 0 0 -5 -4 -10 -10
-10 -5 0 -10 -4 -10 -8 0 -5 7 -9 15 -9 8 0 11 5 8 10 -3 5 0 7 8 5 8 -3 13
-14 12 -24 -1 -10 0 -13 3 -7 4 10 11 10 25 2 11 -5 17 -14 14 -20 -4 -5 -1
-9 4 -9 14 0 14 17 0 26 -8 5 -8 9 1 14 9 5 9 9 1 14 -6 4 -11 2 -11 -3 0 -6
-5 -11 -10 -11 -6 0 -5 8 2 20 10 15 14 17 20 6 5 -8 18 -12 30 -10 l23 5 -23
-10 c-19 -9 -21 -13 -10 -30 12 -19 28 -19 28 0 0 6 -4 8 -9 4 -5 -3 -12 -2
-15 3 -2 4 4 8 14 9 10 1 21 -5 24 -13 3 -8 11 -14 17 -14 8 0 8 4 -1 15 -9
10 -9 15 -1 15 6 0 11 -5 11 -11 0 -5 5 -7 11 -3 8 4 8 1 1 -13 -9 -15 -8 -20
3 -20 8 0 12 4 9 9 -3 4 0 8 5 8 6 0 11 -7 11 -15 0 -8 5 -15 11 -15 5 0 7 -6
3 -12 -5 -8 0 -7 11 2 17 14 17 13 11 -10 -6 -19 -5 -21 3 -10 7 10 11 11 11
3 0 -7 6 -13 14 -13 8 0 16 -3 19 -7 2 -5 3 -3 1 3 -1 6 6 15 15 21 14 9 18 8
18 -3 0 -7 -3 -11 -7 -9 -3 2 -6 -5 -7 -15 -1 -11 2 -22 8 -25 5 -4 6 2 2 11
-4 11 -3 15 5 10 6 -3 14 -1 18 5 4 7 3 9 -4 6 -6 -5 -8 1 -5 14 5 18 9 15 25
-20 20 -44 33 -56 18 -17 -9 26 -8 51 4 63 4 4 6 1 4 -7 -2 -8 3 -14 10 -12 8
1 11 -2 7 -8 -3 -5 -2 -10 4 -10 5 0 12 6 15 13 2 6 4 1 3 -12 -1 -14 4 -25
13 -26 8 -2 24 -6 35 -10 13 -4 12 -1 -5 8 -14 9 -29 13 -35 10 -5 -3 -4 0 3
8 9 10 15 10 24 1 15 -15 42 -16 33 -2 -4 6 -1 9 7 8 7 -2 12 5 11 16 -1 13 2
15 10 7 7 -7 7 -14 -1 -24 -7 -8 -8 -18 -4 -22 4 -5 1 -5 -5 -1 -7 4 -13 2
-13 -3 0 -17 14 -13 33 9 9 11 22 20 29 19 11 0 11 -2 0 -6 -17 -7 -36 -43
-22 -43 5 0 10 6 10 14 0 10 7 13 21 11 15 -3 19 0 15 11 -4 10 -2 13 7 7 6
-4 19 -8 27 -8 8 0 14 -6 12 -13 -2 -9 5 -12 20 -10 14 2 22 9 20 18 -2 8 0
11 4 7 12 -12 13 -37 1 -34 -6 1 -12 -7 -14 -18 -2 -15 -1 -16 5 -5 10 20 44
26 36 6 -3 -9 3 -17 15 -21 12 -3 19 -10 16 -15 -3 -5 -1 -11 4 -14 18 -11 5
24 -15 39 -17 13 -17 14 -2 15 9 0 20 -5 24 -11 3 -6 15 -9 25 -6 11 3 23 -1
28 -10 7 -14 9 -14 14 0 3 8 -1 23 -10 34 -10 13 -13 14 -10 3 3 -11 -3 -16
-20 -18 -16 -1 -22 2 -17 10 5 7 3 8 -5 3 -10 -6 -11 -3 -2 14 13 24 26 29 18
6 -4 -8 -2 -17 2 -20 5 -3 11 2 15 10 3 9 12 12 22 8 12 -4 15 -3 10 5 -4 7
-2 12 4 12 7 0 9 -8 5 -19 -3 -11 0 -23 6 -27 8 -4 9 -3 5 4 -4 7 -1 12 8 12
9 0 13 -6 10 -14 -6 -17 27 -38 42 -28 14 9 27 45 14 37 -24 -15 -7 4 18 21
21 14 24 14 14 2 -7 -9 -15 -29 -18 -45 -3 -20 -2 -24 5 -13 5 8 8 17 6 21 -3
3 6 6 20 6 14 0 22 -3 20 -7 -9 -15 23 -18 42 -5 22 18 42 20 25 3 -15 -15
-16 -28 -2 -28 5 0 9 6 7 13 -1 7 7 12 21 11 12 -1 22 3 22 8 0 6 -8 7 -17 4
-17 -6 -17 -5 0 8 16 12 16 14 2 20 -11 4 -14 2 -9 -6 4 -6 3 -8 -3 -5 -5 3
-23 -3 -40 -13 -24 -14 -33 -16 -36 -6 -3 7 -1 19 4 27 6 10 9 10 9 2 0 -7 5
-13 10 -13 7 0 7 7 0 23 -10 20 -10 20 3 4 16 -20 34 -22 39 -6 3 9 9 9 25 0
19 -9 23 -8 29 12 5 12 7 27 5 32 -1 6 1 6 5 2 12 -11 14 -37 3 -37 -5 0 -9
-4 -9 -8 0 -5 7 -9 15 -9 8 0 15 3 15 7 0 3 7 15 15 26 12 15 14 15 9 2 -4
-13 0 -16 15 -15 12 1 21 6 21 11 0 5 3 7 6 4 3 -4 1 -15 -5 -26 -8 -15 -7
-21 4 -25 9 -4 12 -1 9 8 -6 14 12 15 32 3 6 -4 11 -1 11 7 0 7 -8 12 -17 10
-9 -2 -17 3 -17 10 0 8 4 12 9 9 4 -3 8 1 8 8 0 8 5 6 11 -5 10 -16 13 -17 33
-4 20 13 22 13 22 -3 0 -12 -6 -17 -18 -15 -10 2 -18 -1 -18 -7 0 -5 7 -8 15
-5 8 4 17 2 20 -3 4 -6 12 -10 18 -10 7 0 6 4 -3 10 -10 6 -11 10 -2 10 6 0
12 5 12 11 0 5 -4 7 -10 4 -5 -3 -10 -4 -10 -1 0 3 10 10 21 17 12 6 19 7 15
1 -3 -5 1 -13 10 -16 14 -5 14 -9 3 -24 -13 -15 -12 -16 3 -3 14 10 15 17 6
35 -6 11 -7 18 -3 14 5 -4 15 -2 23 5 13 9 14 9 8 -1 -4 -6 -3 -12 3 -12 5 0
11 8 13 17 3 15 5 14 10 -3 5 -18 2 -22 -18 -19 -13 1 -21 -2 -18 -6 3 -5 17
-7 31 -5 20 4 24 2 18 -12 -5 -13 -4 -14 6 -5 10 10 9 15 -1 28 -8 9 -8 15 -2
15 6 0 14 -4 17 -10 3 -5 12 -10 18 -10 8 0 8 3 -2 9 -11 7 -11 10 0 17 7 4
14 3 17 -4 2 -7 8 -12 14 -12 6 0 6 6 -2 15 -10 12 -7 14 19 10 17 -2 34 1 37
7 4 7 2 8 -4 4 -7 -4 -12 -1 -12 9 0 13 4 14 20 5 11 -6 17 -16 14 -22 -4 -7
-3 -8 4 -4 9 5 9 12 0 26 -7 10 -15 17 -18 15 -4 -2 -7 2 -7 9 0 8 7 12 15 8
10 -3 13 -1 8 6 -4 7 -2 12 4 12 7 0 10 -6 7 -14 -3 -8 1 -22 9 -33 14 -17 14
-16 4 5 -9 18 -8 23 4 28 8 3 12 13 9 22 -4 15 -3 15 6 2 6 -9 7 -18 1 -24 -6
-6 -10 -14 -10 -18 0 -4 9 1 20 12 17 17 23 18 34 8 8 -7 12 -16 9 -20 -2 -4
3 -5 12 -2 14 6 14 8 -2 20 -17 13 -17 13 0 14 9 0 17 5 17 10 0 7 -6 7 -19 0
-15 -7 -19 -7 -17 5 1 8 6 18 11 22 4 4 5 2 1 -4 -4 -7 -2 -13 3 -13 6 0 11 8
12 18 0 15 1 15 8 -2 4 -11 18 -20 32 -22 13 -1 18 0 11 2 -6 3 -10 9 -8 13 3
4 0 13 -6 21 -8 12 -9 12 -4 -2 3 -10 1 -20 -3 -22 -5 -3 -8 5 -7 17 0 12 6
22 12 22 6 0 18 8 28 17 22 22 21 22 23 -4 2 -15 -1 -18 -6 -10 -6 11 -10 11
-19 0 -7 -10 -6 -18 4 -32 8 -11 14 -15 14 -10 0 6 -6 16 -12 23 -11 11 -10
13 2 9 19 -7 50 9 50 25 0 8 -4 7 -10 -3 -7 -12 -9 -10 -8 7 2 14 7 19 17 15
8 -3 12 -1 8 4 -3 6 3 11 14 11 10 1 19 -2 19 -8 0 -5 -5 -8 -11 -6 -6 1 -13
-6 -14 -16 -3 -17 -2 -17 14 -3 22 20 38 21 22 2 -9 -11 -9 -16 0 -22 7 -4 9
-3 5 4 -3 6 -2 13 4 17 19 12 31 43 18 51 -7 5 -8 3 -3 -6 5 -9 4 -11 -3 -6
-8 5 -10 1 -5 -11 7 -19 5 -18 -17 11 -8 11 -10 17 -3 13 6 -4 13 -2 15 4 3 9
10 9 27 0 19 -11 20 -15 9 -29 -12 -15 -11 -16 5 -3 12 9 14 17 7 26 -5 6 -6
16 -2 20 4 5 1 5 -6 0 -11 -6 -12 -3 -3 14 13 24 23 28 15 6 -5 -12 -2 -14 12
-8 17 6 17 5 5 -10 -7 -9 -9 -17 -3 -17 5 0 13 7 16 16 3 8 9 13 14 10 4 -2 9
5 9 17 2 17 0 19 -7 7 -6 -9 -10 -10 -10 -3 0 17 14 23 29 13 8 -4 10 -13 6
-20 -5 -9 -4 -11 3 -6 7 4 12 14 12 22 0 8 4 13 9 9 5 -3 19 9 31 26 16 22 26
27 33 20 6 -6 16 -11 21 -11 6 0 3 5 -6 11 -10 5 -18 15 -18 21 0 9 3 9 11 1
9 -9 15 -8 25 1 14 14 14 33 0 55 -7 10 -5 12 3 7 7 -5 16 -18 21 -30 8 -20 9
-20 10 -1 0 17 2 17 10 5 8 -13 10 -12 10 3 0 10 5 15 11 12 6 -4 5 2 -2 13
-7 12 -16 19 -20 16 -4 -2 -10 -1 -13 4 -2 4 6 8 19 8 13 0 23 -4 22 -9 -1 -5
9 -16 23 -24 l25 -15 -23 19 c-20 16 -21 21 -9 31 7 7 17 8 21 4 4 -4 7 -2 6
3 -5 22 1 29 11 15 9 -13 10 -13 6 0 -2 8 -9 14 -14 13 -5 -1 -10 5 -10 13 0
12 4 12 24 -1 13 -9 24 -13 24 -10 1 3 3 10 4 15 1 6 3 13 4 18 1 4 5 1 10 -6
7 -11 9 -11 14 1 6 17 -14 17 -34 0 -11 -8 -18 -7 -29 5 -13 14 -12 15 4 9 10
-4 27 -1 39 8 16 11 24 12 34 3 8 -6 13 -7 12 -2 -4 23 2 35 14 28 9 -6 9 -5
0 8 -7 8 -10 17 -7 21 3 3 -2 4 -13 2 -29 -5 -29 -6 -11 -13 17 -7 17 -8 0
-18 -10 -7 -25 -8 -37 -2 -18 8 -18 8 3 4 15 -3 22 0 19 7 -3 7 -10 11 -16 9
-7 -1 -10 2 -6 8 3 6 10 8 15 5 5 -3 11 -1 15 5 4 6 11 7 17 4 8 -5 9 -1 5 10
-6 14 -4 15 14 5 16 -8 24 -8 33 2 7 8 7 10 0 6 -6 -4 -20 1 -30 9 -10 9 -13
12 -5 8 7 -4 23 -7 35 -8 15 -1 20 -7 18 -21 -2 -16 -1 -17 7 -5 7 10 6 19 -2
29 -10 12 -9 14 6 8 12 -5 16 -3 11 5 -5 7 -2 9 9 5 9 -3 21 1 29 11 12 15 11
16 -4 4 -9 -7 -18 -9 -21 -5 -5 10 29 44 36 36 3 -2 13 7 22 21 10 14 22 23
29 19 6 -3 6 0 -1 8 -19 19 -16 28 8 24 17 -4 19 -2 9 10 -13 16 -25 21 -16 7
3 -5 -3 -8 -12 -7 -9 0 -17 5 -17 10 0 6 4 9 9 7 4 -1 14 3 22 9 11 9 12 15 3
26 -7 7 -9 16 -5 20 3 3 6 1 6 -5 0 -7 5 -12 11 -12 5 0 8 4 4 9 -3 5 0 13 6
16 5 4 8 13 5 21 -4 12 -2 12 14 4 11 -6 20 -13 20 -16 0 -3 -5 -2 -12 2 -7 5
-8 3 -3 -6 6 -9 4 -11 -5 -5 -9 6 -11 4 -5 -5 5 -8 4 -11 -3 -6 -6 3 -9 -1 -8
-11 2 -10 -4 -23 -13 -30 -9 -7 -11 -13 -5 -13 6 0 17 7 24 15 7 8 10 15 6 15
-3 0 6 13 20 30 15 16 31 27 37 23 6 -3 7 -2 4 4 -3 5 3 16 14 23 10 8 19 19
19 24 0 5 -9 1 -20 -9 -21 -19 -29 -8 -8 13 8 8 8 15 -1 26 -9 11 -8 17 4 30
19 19 46 11 38 -12 -4 -9 -3 -14 1 -11 12 11 15 49 3 46 -14 -3 -18 41 -4 50
6 3 7 1 3 -5 -12 -20 10 -13 29 8 19 21 19 21 -16 15 -23 -4 -29 -2 -19 4 8 5
17 8 21 5 4 -2 10 0 14 6 4 6 11 5 19 -3 11 -10 10 -15 -5 -28 -10 -9 -15 -20
-11 -24 4 -5 2 -5 -5 -1 -8 4 -10 0 -7 -16 3 -13 6 -28 6 -35 1 -7 5 -10 10
-7 4 3 4 13 -2 23 -9 18 -4 31 12 31 5 0 7 -4 4 -8 -2 -4 4 -8 15 -8 19 0 19
1 -2 17 -22 17 -22 17 -2 29 l20 13 -21 21 c-12 12 -25 20 -31 18 -5 -2 -6 0
-2 5 5 4 13 9 18 9 22 3 23 5 9 15 -13 9 -13 10 0 6 8 -2 15 -14 15 -27 0 -13
7 -25 15 -27 12 -4 12 -2 2 5 -10 7 -10 11 3 22 8 7 15 18 15 24 0 8 -2 8 -8
0 -5 -8 -13 -3 -26 14 -11 14 -13 22 -6 17 10 -6 12 -4 7 7 -4 11 -1 14 12 11
20 -5 36 21 24 39 -3 7 -1 8 5 4 7 -4 12 -2 12 3 0 15 30 14 30 -1 1 -9 4 -8
9 2 5 8 8 18 8 21 -4 13 26 38 37 32 6 -3 5 0 -2 8 -8 9 -15 10 -20 4 -4 -6
-16 -11 -27 -13 -18 -2 -17 -1 5 17 13 11 29 17 34 14 5 -3 6 -1 2 5 -3 6 2
18 11 28 17 17 17 18 0 11 -10 -4 -21 -7 -23 -7 -3 0 -3 -4 1 -9 3 -6 -3 -15
-14 -21 -14 -7 -22 -7 -27 2 -4 6 -3 8 2 5 6 -3 16 -2 24 4 12 7 12 9 1 9 -8
0 -4 8 10 19 18 14 29 17 44 10 19 -10 19 -9 2 4 -12 10 -14 17 -8 22 6 3 11
13 11 21 0 13 -4 12 -32 -1 -18 -8 -24 -10 -14 -3 11 7 28 21 38 31 20 19 33
23 23 7 -3 -5 -1 -10 4 -10 6 0 11 7 11 16 0 8 4 13 9 10 5 -4 8 5 6 19 -1 14
2 28 7 31 4 3 6 10 3 15 -4 5 0 9 7 9 9 0 9 3 -2 10 -12 8 -12 10 5 10 17 1
18 2 4 10 -11 6 -16 20 -14 40 2 25 -1 30 -13 25 -22 -8 34 42 61 55 22 11 22
11 2 -5 -11 -9 -19 -21 -17 -26 1 -6 -3 -7 -9 -3 -8 5 -9 3 -4 -6 5 -8 4 -11
-2 -7 -12 8 -10 -50 2 -61 5 -4 5 1 2 11 -4 10 -1 17 6 17 8 0 8 3 -2 9 -16
10 -3 20 22 16 9 -2 15 0 12 5 -3 5 -2 10 2 13 5 2 3 2 -4 1 -7 -2 -15 1 -18
6 -5 9 6 14 25 12 3 0 7 8 7 19 1 15 -3 19 -18 14 -19 -6 -26 5 -11 19 4 4 8
12 8 17 1 5 3 10 4 12 2 2 9 45 13 78 0 9 7 14 14 12 11 -4 11 -9 2 -19 -18
-22 -7 -23 13 -2 10 10 13 18 7 18 -5 0 -7 5 -3 12 4 7 3 8 -4 4 -8 -5 -10 -2
-6 8 3 9 1 16 -5 16 -6 0 -11 5 -11 12 0 6 10 3 21 -8 l22 -19 -14 25 c-7 14
-12 31 -11 38 2 6 -2 12 -8 12 -5 0 -10 5 -10 11 0 8 4 9 13 0 8 -6 17 -7 22
-3 4 4 2 -3 -4 -15 -8 -15 -8 -23 -1 -23 5 0 10 7 10 15 0 8 6 12 14 9 8 -3
17 -1 21 5 3 7 0 8 -9 5 -11 -4 -14 0 -11 16 2 12 10 29 16 36 9 11 9 18 2 25
-8 8 -11 6 -10 -7 1 -11 -4 -18 -11 -16 -8 1 -11 -6 -8 -22 3 -18 1 -23 -10
-19 -17 6 -17 9 -3 34 5 11 15 17 21 13 6 -4 9 -1 6 7 -7 21 -32 17 -40 -6 -6
-17 -7 -16 -5 5 1 14 7 25 14 25 6 0 15 3 18 7 4 4 21 0 37 -8 28 -15 29 -15
19 5 -8 14 -8 22 0 26 6 4 8 13 5 21 -3 8 0 14 7 14 9 0 8 3 -1 9 -19 11 -19
13 3 38 10 12 23 19 28 16 6 -3 7 -1 3 6 -4 6 -11 9 -15 7 -16 -10 -31 12 -34
51 -2 23 0 40 4 37 10 -6 5 38 -5 55 -7 10 -4 11 13 1 12 -6 27 -9 34 -6 7 2
5 5 -5 5 -9 1 -20 6 -24 13 -4 6 -3 8 4 4 6 -3 14 -1 18 5 4 8 3 9 -4 5 -7 -4
-12 -2 -12 5 0 8 -5 7 -17 -2 -16 -12 -17 -12 -6 2 7 9 9 19 5 23 -4 5 2 6 13
4 11 -1 23 -7 27 -13 5 -6 8 -6 8 1 0 6 -9 21 -20 34 -11 12 -17 27 -14 31 3
5 1 9 -5 9 -10 0 -9 25 2 36 4 4 1 14 -6 23 -11 14 -10 14 6 2 38 -30 58 30
23 71 -18 20 -18 21 10 14 18 -4 24 -3 16 2 -8 5 -13 11 -12 13 4 11 -13 37
-23 35 -7 -1 -9 -1 -4 1 4 3 4 10 0 16 -5 9 -3 9 8 0 11 -9 19 -8 34 4 20 15
20 15 0 9 -30 -8 -52 8 -36 27 10 13 9 18 -6 27 -16 10 -16 11 0 6 9 -3 17 -1
17 5 0 6 5 7 11 3 7 -4 7 -9 1 -13 -5 -3 -8 -14 -6 -24 1 -10 -2 -14 -8 -11
-7 4 -8 2 -4 -5 6 -9 11 -9 22 0 11 9 18 8 32 -2 15 -13 16 -12 3 4 -7 9 -10
17 -6 17 4 0 2 6 -4 14 -8 10 -9 16 -1 21 5 3 10 12 10 18 0 7 -5 4 -11 -6 -6
-9 -14 -15 -20 -12 -14 9 -11 27 4 19 6 -4 9 -4 5 1 -5 5 1 15 12 22 11 8 18
18 15 23 -3 4 1 10 7 13 7 2 1 4 -13 4 -14 0 -26 -5 -26 -12 0 -7 6 -11 14 -8
21 8 15 -3 -11 -21 -18 -11 -27 -13 -32 -4 -4 7 -3 8 4 4 7 -4 12 -1 13 6 0 7
2 21 4 30 3 15 -2 17 -23 13 -24 -5 -25 -4 -6 4 23 10 41 31 27 31 -5 0 -15
-6 -23 -12 -8 -7 -7 -4 3 8 9 11 24 21 32 21 18 0 18 -3 6 -26 -7 -13 -6 -18
4 -18 7 0 11 7 7 15 -3 10 -1 13 6 8 9 -6 9 -1 0 19 -8 18 -14 22 -20 13 -8
-13 -8 -14 -13 32 -2 23 14 39 33 33 10 -3 7 2 -6 12 -13 9 -29 14 -37 11 -19
-7 -30 11 -16 28 6 7 8 16 5 19 -4 4 4 4 16 2 28 -5 36 -13 25 -22 -4 -5 -10
-2 -12 5 -4 10 -8 10 -19 1 -8 -6 -14 -16 -14 -22 0 -7 4 -7 12 1 7 7 17 8 30
1 19 -10 20 -10 21 24 1 14 -4 21 -14 19 -9 -1 -16 5 -16 13 0 9 6 14 14 11
10 -4 11 -1 3 14 -14 27 -12 34 5 20 9 -7 18 -10 22 -6 3 3 1 6 -6 6 -7 0 -10
4 -6 9 3 6 -4 8 -15 6 -22 -4 -23 14 -1 53 7 13 10 26 7 30 -3 3 -6 0 -6 -7 0
-7 -5 -9 -10 -6 -8 5 -7 12 2 23 10 14 8 13 -8 -1 -19 -16 -22 -16 -28 -2 -3
9 -10 13 -16 10 -5 -3 -10 -1 -10 4 0 13 13 14 26 2 5 -6 17 -4 29 6 18 14 18
15 1 9 -10 -3 -25 -1 -32 5 -7 6 -19 8 -26 4 -7 -4 -4 0 6 9 21 17 40 12 30
-7 -4 -7 -1 -6 7 2 11 10 11 15 2 18 -7 3 -13 13 -13 24 0 10 -6 19 -14 19 -8
0 -16 7 -20 15 -5 13 -3 13 18 0 22 -15 24 -14 40 10 9 14 13 25 9 25 -5 0
-20 11 -35 24 -14 14 -28 23 -30 20 -3 -2 -5 3 -5 11 0 8 4 12 9 9 13 -8 6 29
-7 38 -6 5 -6 8 2 8 13 0 12 18 -1 39 -6 10 -5 12 2 7 11 -6 14 0 11 20 0 4 5
11 13 15 10 7 10 9 -2 10 -10 0 -9 3 4 8 19 7 19 8 -1 13 -17 5 -20 1 -18 -22
1 -17 -3 -27 -12 -27 -9 0 -10 4 -4 10 7 7 5 15 -7 24 -16 12 -15 12 3 6 l20
-6 -20 23 c-12 14 -14 20 -5 15 8 -5 24 -11 35 -12 17 -2 16 0 -5 12 -24 13
-24 16 -1 19 5 0 13 5 18 10 5 5 3 6 -4 2 -8 -4 -13 -2 -13 5 0 8 -5 7 -17 -2
-12 -10 -15 -11 -9 -1 4 7 2 20 -6 29 -8 11 -8 14 -1 10 8 -5 11 0 10 13 -1
11 -7 20 -14 20 -17 0 -25 17 -12 26 8 4 9 3 5 -4 -4 -7 -1 -12 8 -12 14 0 36
29 36 47 -1 4 -7 -3 -14 -16 -11 -20 -14 -21 -19 -7 -4 10 -11 15 -16 12 -5
-3 -8 5 -7 18 0 13 5 22 10 19 4 -3 5 4 1 16 -5 17 -2 21 14 21 12 0 21 4 21
10 0 5 -6 7 -13 4 -8 -3 -13 4 -14 16 -1 11 2 18 8 15 5 -4 9 -1 9 4 0 6 -5
11 -11 11 -8 0 -8 5 1 15 9 10 9 15 1 15 -10 0 -15 -13 -12 -32 0 -5 -4 -8
-10 -8 -8 0 -8 -5 1 -15 7 -8 11 -15 9 -16 -33 -7 -41 -4 -50 14 -9 20 -9 21
4 4 9 -11 18 -14 21 -8 4 5 -4 17 -16 25 -12 9 -17 17 -10 17 29 3 32 4 30 10
-2 4 6 15 17 25 12 11 16 15 9 11 -8 -5 -22 4 -38 25 -17 22 -24 26 -20 13 4
-15 3 -16 -4 -6 -5 7 -8 21 -7 30 2 9 4 20 4 24 1 5 6 5 12 1 8 -4 8 -8 0 -13
-6 -4 -2 -12 12 -20 20 -13 21 -13 8 2 -7 10 -10 17 -6 17 4 0 2 6 -4 13 -6 8
-7 18 -3 22 4 5 1 5 -5 1 -9 -5 -12 1 -9 23 2 17 -1 29 -7 28 -5 -1 -12 4 -14
11 -3 8 2 10 14 6 10 -3 14 -2 8 3 -12 10 -19 35 -16 61 0 7 5 11 10 7 5 -3
12 -1 15 4 4 5 -2 8 -11 7 -9 -2 -19 -8 -21 -14 -2 -7 -8 -9 -14 -6 -5 3 -2
15 9 27 11 12 12 17 3 12 -23 -14 -62 -15 -57 -2 2 7 14 11 25 9 12 -2 22 0
23 5 0 4 2 15 4 24 2 12 -2 15 -18 11 -15 -4 -18 -2 -12 9 8 12 6 12 -8 0 -20
-16 -23 -2 -4 18 10 11 10 13 0 7 -11 -6 -17 4 -15 25 1 3 -5 6 -13 6 -11 0
-10 -5 2 -24 10 -14 11 -23 4 -23 -6 0 -11 7 -11 16 0 8 -4 13 -9 9 -6 -3 -8
4 -6 16 3 16 0 19 -12 15 -14 -6 -14 -4 -2 10 8 10 15 12 17 5 2 -6 13 -11 25
-10 22 0 22 0 0 9 -13 5 -23 14 -23 19 0 6 -8 8 -17 5 -15 -5 -16 -4 -3 5 13
10 8 15 -13 12 -4 0 -6 2 -6 6 4 23 -4 30 -26 28 -14 -2 -23 1 -19 6 3 5 10 7
15 4 20 -13 30 7 14 25 -9 10 -14 23 -11 28 3 5 -2 16 -11 23 -15 12 -16 12
-10 -5 6 -15 5 -17 -6 -8 -8 7 -18 8 -22 4 -4 -4 0 7 10 25 10 18 23 29 28 26
5 -3 4 -9 -2 -13 -9 -5 -8 -10 2 -18 11 -9 13 -7 11 11 -1 12 -3 24 -4 27 -1
3 -2 7 -2 11 0 3 -9 11 -21 19 -20 12 -21 12 -8 -3 11 -14 11 -20 1 -32 -7 -8
-18 -15 -24 -14 -6 0 -6 3 2 6 10 4 10 8 0 21 -7 9 -8 13 -2 9 7 -4 12 2 12
18 0 14 -5 22 -9 19 -5 -3 -8 0 -7 8 2 7 -3 12 -11 10 -11 -2 -12 0 -3 11 10
12 7 17 -16 26 -15 7 -28 20 -29 31 -1 15 4 18 28 15 26 -3 28 -1 18 11 -13
16 -23 19 -14 4 13 -20 -14 -9 -29 12 -21 29 -20 39 2 31 14 -5 14 -3 -2 9
-19 15 -19 15 0 26 10 6 14 12 7 12 -6 0 -14 -4 -18 -10 -3 -5 -13 -6 -23 -3
-14 4 -13 2 3 -11 20 -17 20 -17 -2 -7 -20 10 -25 32 -11 47 4 3 4 13 1 22 -4
10 -2 13 5 8 12 -7 8 32 -4 43 -4 3 -4 -2 -1 -11 3 -9 -1 -22 -9 -29 -11 -9
-12 -14 -3 -19 6 -4 -1 -7 -15 -7 -23 0 -24 1 -10 11 9 7 18 25 19 40 3 21 1
25 -10 16 -10 -8 -14 -8 -17 2 -3 8 -7 6 -11 -6 -4 -10 -3 -15 3 -11 6 3 10 0
10 -7 0 -9 3 -9 10 2 5 8 10 10 10 4 0 -15 -29 -39 -37 -30 -3 3 0 6 8 6 12 0
12 2 0 9 -8 5 -24 8 -37 6 -13 -1 -21 2 -18 7 3 5 12 7 21 6 18 -3 35 33 23
51 -5 10 -9 9 -13 -4 -4 -9 -3 -13 3 -10 6 4 7 -1 3 -11 -4 -11 -8 -13 -11 -6
-2 7 -7 10 -11 8 -4 -3 -8 1 -8 9 0 8 3 12 6 10 4 -2 12 8 18 22 11 24 11 24
-5 11 -9 -8 -24 -18 -32 -22 -10 -5 -9 -3 2 6 15 13 16 17 2 43 -12 23 -12 30
-2 38 9 6 8 7 -4 3 -17 -5 -23 5 -19 28 1 5 -5 4 -13 -4 -12 -9 -16 -9 -16 -1
0 7 -4 10 -8 7 -4 -2 -14 -1 -21 3 -10 6 -9 10 4 14 9 4 13 3 10 -3 -4 -6 1
-7 11 -3 11 4 13 8 6 11 -7 2 -9 9 -6 15 5 8 2 8 -7 0 -20 -19 -29 -16 -29 12
0 14 5 25 12 25 6 0 8 3 5 6 -9 9 -38 -16 -32 -26 3 -4 -2 -11 -10 -14 -13 -5
-14 -2 -4 16 10 18 9 20 -5 15 -11 -4 -15 -3 -10 4 4 8 -1 9 -17 4 -19 -5 -21
-4 -9 5 13 9 11 13 -10 31 -14 12 -24 28 -22 35 2 8 -1 14 -5 13 -18 -3 -36 1
-30 8 9 9 -12 32 -26 29 -7 -1 -9 -1 -4 1 4 3 4 9 1 14 -4 6 -11 6 -19 -1 -10
-8 -15 -8 -21 1 -4 8 -3 9 5 5 6 -4 14 0 17 9 4 10 9 13 13 6 4 -6 12 -2 19 9
7 12 8 20 2 20 -5 0 -10 -5 -10 -12 0 -6 -3 -8 -7 -5 -3 4 -11 2 -18 -3 -8 -7
-12 -5 -12 5 0 8 6 15 14 15 7 0 13 4 13 10 0 5 -3 9 -7 9 -21 -3 -26 2 -13
12 13 9 13 10 -2 6 -9 -3 -24 0 -34 8 -15 10 -22 11 -33 2 -11 -9 -13 -9 -8 0
4 6 3 14 -3 18 -5 3 -10 1 -10 -4 0 -6 -4 -11 -9 -11 -13 0 -5 37 11 59 12 15
11 15 -6 1 -18 -14 -18 -13 -12 10 5 17 4 20 -2 12 -5 -8 -13 -13 -18 -12 -4
1 -11 -7 -15 -17 -4 -10 -8 -12 -8 -5 -1 7 4 23 10 34 8 15 8 19 0 14 -6 -4
-12 -2 -12 3 -1 6 -2 17 -3 24 -1 6 -10 11 -20 9 -11 -2 -15 1 -11 7 3 6 1 11
-5 11 -7 0 -10 7 -6 18 5 14 4 14 -9 -2 -8 -11 -15 -23 -15 -27 0 -4 -6 -9
-14 -12 -12 -5 -12 -2 -1 20 7 14 11 32 8 41 -5 11 -3 13 8 7 8 -4 11 -4 6 0
-4 5 -18 10 -30 12 -13 2 -17 0 -10 -5 7 -4 10 -16 8 -27 -2 -11 -4 -24 -4
-30 -1 -5 -5 -3 -11 5 -5 9 -5 19 1 26 6 8 4 14 -7 18 -23 9 -36 7 -29 -4 4
-6 12 -8 18 -4 7 3 4 -1 -5 -9 -10 -8 -14 -18 -10 -22 4 -5 2 -5 -4 -2 -12 7
-12 36 1 57 5 9 4 15 -3 18 -7 2 -10 8 -7 13 4 5 -2 6 -11 2 -13 -5 -15 -3 -9
7 5 9 4 11 -4 6 -6 -4 -9 -11 -7 -15 3 -4 0 -13 -5 -21 -8 -12 -9 -11 -7 5 2
12 -2 19 -9 18 -7 -2 -13 4 -13 13 0 14 3 14 15 4 10 -9 15 -9 15 -1 0 6 -5
11 -11 11 -5 0 -8 4 -5 9 4 5 -2 8 -11 6 -10 -1 -26 2 -36 7 -12 6 -16 5 -15
-3 2 -6 -4 -13 -13 -14 -13 -2 -14 1 -5 20 6 13 15 21 21 18 5 -2 1 2 -9 11
-10 8 -24 13 -29 9 -6 -4 -8 0 -4 10 3 10 2 17 -4 17 -6 0 -9 -8 -7 -17 2 -10
10 -17 16 -16 7 2 12 -2 12 -7 0 -6 -5 -10 -11 -10 -5 0 -8 -4 -5 -8 3 -5 -1
-9 -9 -9 -10 0 -11 4 -6 11 6 7 3 20 -9 36 -11 14 -20 21 -20 16 0 -6 -7 -1
-16 10 -10 12 -14 14 -11 4 2 -8 -2 -21 -10 -29 -13 -12 -14 -11 -9 6 5 17 2
20 -21 19 -17 0 -27 4 -26 12 2 7 -2 12 -7 12 -6 0 -10 -8 -11 -17 0 -11 -5
-7 -11 11 -8 22 -13 25 -20 15 -8 -11 -9 -10 -4 3 6 21 -13 36 -24 18 -5 -8
-9 -7 -14 5 -3 9 -11 13 -17 9 -8 -5 -9 -3 -5 5 5 8 3 12 -5 10 -27 -3 -40 1
-33 12 5 8 9 8 14 -1 5 -9 9 -9 14 -1 4 6 1 11 -6 11 -9 0 -9 3 2 10 12 7 10
9 -7 7 -12 0 -19 -5 -17 -9 3 -4 -7 -8 -23 -8 -22 0 -25 -2 -13 -11 12 -8 12
-10 1 -7 -8 2 -15 11 -17 20 -1 10 3 15 11 12 7 -3 17 1 21 8 11 16 15 42 6
33 -4 -4 -7 -12 -7 -17 0 -6 -6 -13 -14 -16 -9 -3 -11 0 -6 7 5 9 2 9 -13 0
-11 -7 -19 -17 -18 -23 2 -6 1 -8 -1 -4 -2 4 -11 4 -19 1 -8 -3 -14 0 -14 6 0
6 3 10 8 9 4 -2 21 8 37 21 17 13 22 21 13 18 -11 -4 -21 0 -27 11 -6 9 -11
12 -11 7 0 -6 6 -17 13 -24 10 -11 9 -13 -6 -7 -10 3 -20 6 -23 6 -2 0 -1 8 3
18 7 18 5 17 -17 -12 -8 -11 -10 -17 -5 -14 6 4 17 2 25 -4 12 -8 12 -9 -2 -4
-12 4 -18 0 -18 -12 -1 -9 -11 4 -23 30 -19 40 -25 45 -40 37 -14 -8 -19 -5
-27 13 l-11 23 5 -22 c2 -13 0 -23 -6 -23 -5 0 -6 -5 -2 -12 5 -7 3 -8 -7 -2
-8 5 -21 9 -29 9 -8 0 -14 6 -12 13 1 6 -3 12 -8 12 -7 0 -7 7 0 23 9 19 9 20
-2 6 -15 -19 -54 -15 -78 6 -9 8 -20 12 -23 8 -4 -3 -7 -1 -7 5 0 7 6 12 14
12 19 0 29 31 16 44 -8 8 -9 6 -5 -6 4 -11 0 -20 -14 -27 -28 -15 -36 -14 -21
4 10 12 9 16 -4 21 -9 3 -13 10 -10 15 3 5 -2 6 -10 3 -21 -8 -48 -50 -33 -52
41 -3 77 -22 44 -22 -9 0 -17 -4 -17 -10 0 -14 13 -13 29 3 11 10 12 9 6 -2
-6 -10 -4 -12 5 -6 8 5 11 4 6 -3 -4 -7 1 -10 14 -7 11 2 18 0 16 -4 -3 -4 8
-7 24 -6 17 1 27 -2 23 -8 -3 -6 -2 -7 4 -4 5 3 10 0 10 -8 0 -8 -5 -11 -10
-8 -5 3 -13 -1 -19 -8 -7 -11 -8 -10 -6 5 2 10 -3 21 -11 24 -8 3 -11 0 -7 -7
5 -7 1 -9 -8 -5 -9 3 -16 9 -16 14 0 4 -16 6 -34 5 -19 -1 -33 2 -31 5 3 4 -7
18 -20 30 -25 23 -25 23 -41 4 -8 -10 -13 -14 -10 -7 8 15 -4 44 -15 37 -5 -3
-6 3 -2 12 5 13 3 15 -7 9 -19 -12 -81 -15 -74 -4 3 5 12 9 20 9 8 0 14 4 14
9 0 14 -27 7 -52 -15 l-23 -19 18 21 c16 19 16 22 2 28 -9 3 -13 2 -10 -3 3
-5 0 -13 -6 -17 -8 -4 -9 -3 -5 4 13 22 -13 12 -29 -10 l-17 -23 7 25 8 24
-29 -19 c-23 -14 -26 -15 -16 -2 12 14 11 16 -7 14 -12 -1 -21 -6 -21 -12 0
-5 -5 -3 -10 5 -5 8 -10 20 -10 25 0 6 5 3 10 -5 5 -8 10 -10 10 -4 0 5 -5 15
-12 22 -8 8 -8 12 -1 12 16 0 34 -25 25 -36 -4 -4 1 -2 11 5 11 9 17 10 17 2
0 -6 5 -11 10 -11 6 0 9 6 8 13 -2 6 3 11 10 10 6 -2 12 2 12 8 0 5 5 7 11 4
6 -5 4 -12 -8 -21 -10 -7 -13 -14 -7 -14 12 0 40 28 33 33 -2 1 -13 9 -23 17
-11 8 -17 10 -13 3 4 -6 1 -13 -5 -16 -7 -2 -18 5 -25 17 -7 12 -12 15 -13 8
0 -7 -5 -10 -12 -6 -7 4 -8 3 -4 -5 4 -6 12 -9 17 -6 10 7 13 -8 3 -18 -9 -8
-64 34 -58 45 3 4 3 8 0 8 -3 0 -7 -4 -11 -9z m-157 -122 c11 7 10 9 -3 14
-10 5 -14 3 -9 -5 4 -7 3 -8 -4 -4 -19 11 -14 25 8 23 19 -1 25 -10 21 -31 -1
-4 4 -16 11 -25 10 -13 10 -14 -1 -4 -7 6 -20 9 -27 6 -8 -3 -14 0 -14 6 0 6
-5 10 -11 9 -6 -2 -13 8 -15 21 l-4 24 17 -22 c12 -14 22 -18 31 -12z m530 22
c10 -6 10 -10 -3 -21 -11 -9 -15 -9 -15 -1 0 7 -4 9 -10 6 -6 -3 -7 1 -4 9 7
18 13 19 32 7z m-476 -28 c-6 -2 -9 -10 -6 -15 4 -7 2 -8 -4 -4 -18 11 -14 26
6 25 10 0 12 -3 4 -6z m345 -15 c-3 -8 -6 -5 -6 6 -1 11 2 17 5 13 3 -3 4 -12
1 -19z m68 -18 c-3 -5 1 -10 9 -10 9 0 16 -4 16 -10 0 -12 -22 -9 -32 5 -7 9
-2 25 8 25 3 0 2 -4 -1 -10z m-520 -49 c-3 -2 -11 2 -20 9 -10 8 -15 9 -15 1
0 -6 -5 -11 -11 -11 -8 0 -8 4 1 15 9 11 16 12 30 2 11 -6 17 -13 15 -16z m80
9 c3 -5 1 -10 -4 -10 -6 0 -11 5 -11 10 0 6 2 10 4 10 3 0 8 -4 11 -10z m559
-29 c-2 -3 -12 3 -22 13 -16 17 -16 18 5 5 12 -7 20 -15 17 -18z m193 6 c0 -6
4 -21 7 -32 5 -13 2 -11 -7 5 -9 14 -18 24 -21 23 -12 -6 -26 -3 -26 5 0 13
47 12 47 -1z m-84 -14 c-7 -2 -19 -2 -25 0 -7 3 -2 5 12 5 14 0 19 -2 13 -5z
m-1086 -20 c-4 -3 -1 -13 5 -22 10 -13 10 -14 -2 -3 -19 17 -35 15 -21 -2 8
-10 9 -16 1 -21 -6 -3 -7 -11 -4 -17 4 -7 2 -8 -5 -4 -9 6 -9 11 -1 21 7 9 8
15 1 19 -14 9 -2 36 17 36 8 0 12 -3 9 -7z m88 -23 c-3 -5 -12 -10 -18 -10 -7
0 -6 4 3 10 19 12 23 12 15 0z m-135 -34 c0 -2 -7 -7 -16 -10 -8 -3 -12 -2 -9
4 6 10 25 14 25 6z m-155 -46 c19 -8 19 -9 -3 -9 -13 -1 -20 -5 -17 -11 4 -6
11 -8 16 -5 5 4 9 4 9 1 0 -3 -4 -7 -9 -11 -12 -7 -43 24 -36 36 7 11 13 11
40 -1z m-35 -44 c0 -3 -4 -8 -10 -11 -5 -3 -10 -1 -10 4 0 6 5 11 10 11 6 0
10 -2 10 -4z m-92 -31 c-3 -3 -9 2 -12 12 -6 14 -5 15 5 6 7 -7 10 -15 7 -18z
m1842 19 c0 -8 -19 -13 -24 -6 -3 5 1 9 9 9 8 0 15 -2 15 -3z m-1870 -17 c0
-5 -7 -6 -16 -3 -14 5 -15 4 -4 -9 11 -13 10 -14 -4 -9 -11 4 -16 1 -16 -10 0
-19 -16 -21 -26 -4 -4 7 -3 8 4 4 7 -4 13 -2 13 3 1 10 4 23 8 35 2 9 41 2 41
-7z m1920 3 c0 -5 -2 -10 -4 -10 -3 0 -8 5 -11 10 -3 6 -1 10 4 10 6 0 11 -4
11 -10z m-1900 -24 c0 -3 -4 -8 -10 -11 -5 -3 -10 -1 -10 4 0 6 5 11 10 11 6
0 10 -2 10 -4z m-44 -38 c4 4 4 2 0 -5 -5 -9 -14 -9 -31 -3 -25 9 -37 -4 -12
-13 9 -4 9 -6 0 -6 -15 -1 -26 16 -18 29 3 6 15 6 29 0 13 -5 27 -6 32 -2z
m2077 -6 c-5 -11 -7 -11 -14 0 -7 10 -9 8 -9 -6 0 -11 -3 -17 -6 -13 -10 10 3
34 19 34 9 0 13 -6 10 -15z m-2161 -24 c-6 -6 -12 -4 -16 7 -3 9 -2 13 4 10 6
-3 10 0 11 7 0 10 2 10 6 0 3 -8 1 -18 -5 -24z m2168 -18 c0 -5 -2 -10 -4 -10
-3 0 -8 5 -11 10 -3 6 -1 10 4 10 6 0 11 -4 11 -10z m60 0 c0 -5 -4 -10 -10
-10 -5 0 -10 5 -10 10 0 6 5 10 10 10 6 0 10 -4 10 -10z m-2376 -78 c3 -5 -1
-9 -9 -9 -8 0 -12 4 -9 9 3 4 7 8 9 8 2 0 6 -4 9 -8z m2513 -19 c5 3 10 0 10
-8 0 -8 -4 -12 -8 -9 -4 2 -10 -4 -12 -13 -4 -14 -5 -13 -6 4 0 12 -5 25 -11
28 -5 3 -10 11 -10 18 0 6 6 3 13 -8 8 -10 18 -15 24 -12z m23 -37 c0 -3 -4
-8 -10 -11 -5 -3 -10 -1 -10 4 0 6 5 11 10 11 6 0 10 -2 10 -4z m60 -106 c0
-5 -5 -10 -11 -10 -5 0 -7 5 -4 10 3 6 8 10 11 10 2 0 4 -4 4 -10z m44 -5 c-4
-8 -8 -15 -10 -15 -2 0 -4 7 -4 15 0 8 4 15 10 15 5 0 7 -7 4 -15z m29 -35
l-7 -25 -6 25 c-8 28 -2 46 11 33 5 -5 5 -20 2 -33z m-2869 14 c3 -8 2 -12 -4
-9 -14 9 -12 -8 3 -24 10 -11 10 -13 0 -7 -8 4 -13 2 -14 -6 0 -10 -2 -10 -6
0 -8 21 -21 13 -17 -10 4 -21 4 -22 -5 -3 -6 15 -5 23 7 33 9 6 12 12 8 12 -5
0 -3 7 4 15 15 19 16 19 24 -1z m40 -12 c3 -5 -1 -9 -9 -9 -8 0 -15 4 -15 9 0
4 4 8 9 8 6 0 12 -4 15 -8z m-44 -56 c0 -3 -4 -8 -10 -11 -5 -3 -10 -1 -10 4
0 6 5 11 10 11 6 0 10 -2 10 -4z m-53 -42 c-3 -3 -12 -4 -19 -1 -8 3 -5 6 6 6
11 1 17 -2 13 -5z m-17 -24 c0 -5 -2 -10 -4 -10 -3 0 -8 5 -11 10 -3 6 -1 10
4 10 6 0 11 -4 11 -10z m-20 -76 c0 -8 -19 -13 -24 -6 -3 5 1 9 9 9 8 0 15 -2
15 -3z m-102 -58 c-7 -8 -15 -12 -17 -11 -5 6 10 25 20 25 5 0 4 -6 -3 -14z
m3346 -53 c15 -32 15 -33 -3 -24 -10 6 -21 8 -25 6 -3 -3 -2 1 4 7 14 17 12
28 -5 28 -8 0 -15 4 -15 8 0 22 30 5 44 -25z m-3423 -17 c-7 -8 -10 -20 -6
-25 4 -7 -1 -8 -12 -4 -15 5 -16 3 -5 -8 6 -7 12 -18 12 -23 0 -6 -5 -3 -11 7
-6 9 -14 15 -19 12 -10 -6 -8 15 3 33 5 7 12 10 17 7 4 -3 11 2 14 11 4 9 9
14 13 11 3 -4 0 -13 -6 -21z m53 6 c3 -5 -1 -9 -9 -9 -8 0 -12 4 -9 9 3 4 7 8
9 8 2 0 6 -4 9 -8z m3474 -207 c-3 -3 -9 2 -12 12 -6 14 -5 15 5 6 7 -7 10
-15 7 -18z m37 -34 c3 -5 2 -12 -3 -15 -5 -3 -9 1 -9 9 0 17 3 19 12 6z m15
-36 c0 -8 -4 -15 -10 -15 -5 0 -7 7 -4 15 4 8 8 15 10 15 2 0 4 -7 4 -15z
m-3735 -45 c-3 -5 -12 -10 -18 -10 -7 0 -6 4 3 10 19 12 23 12 15 0z m-35 -21
c0 -6 -4 -7 -10 -4 -5 3 -10 1 -10 -5 0 -6 -4 -8 -10 -5 -5 3 -10 -1 -10 -9 0
-9 -6 -16 -12 -16 -10 0 -9 -3 1 -9 7 -5 10 -14 7 -20 -9 -14 -25 -5 -22 12 7
31 29 63 47 64 10 1 19 -3 19 -8z m-23 -84 c0 -8 -4 -12 -9 -9 -5 3 -6 10 -3
15 9 13 12 11 12 -6z m-60 -120 c0 -8 -4 -12 -9 -9 -4 3 -8 9 -8 15 0 5 4 9 8
9 5 0 9 -7 9 -15z m-52 -55 c-3 -5 -11 -10 -16 -10 -6 0 -7 5 -4 10 3 6 11 10
16 10 6 0 7 -4 4 -10z m12 -26 c-3 -3 -12 -4 -19 -1 -8 3 -5 6 6 6 11 1 17 -2
13 -5z m4054 -21 c13 -16 12 -17 -3 -4 -10 7 -18 15 -18 17 0 8 8 3 21 -13z
m72 -110 c44 -2 50 -3 43 -10 -4 -5 -25 -8 -45 -8 -32 0 -37 3 -33 18 3 10 8
15 11 10 3 -5 14 -9 24 -10z m-4183 -43 c0 -5 -4 -10 -10 -10 -5 0 -10 5 -10
10 0 6 5 10 10 10 6 0 10 -4 10 -10z m4165 0 c3 -5 1 -10 -4 -10 -6 0 -11 5
-11 10 0 6 2 10 4 10 3 0 8 -4 11 -10z m45 -20 c-8 -5 -19 -10 -25 -10 -5 0
-3 5 5 10 8 5 20 10 25 10 6 0 3 -5 -5 -10z m32 -49 c2 -7 -7 -15 -19 -17 -13
-2 -23 1 -23 7 0 5 5 7 10 4 7 -4 9 3 6 21 -5 24 -3 26 9 13 7 -8 15 -20 17
-28z m-67 -11 c3 -5 1 -10 -4 -10 -6 0 -11 5 -11 10 0 6 2 10 4 10 3 0 8 -4
11 -10z m68 -43 c7 4 5 -2 -3 -12 -14 -17 -13 -18 3 -12 9 3 17 4 17 2 0 -2
-8 -9 -17 -14 -16 -8 -18 -4 -19 27 -1 21 1 29 3 19 3 -10 9 -14 16 -10z m17
-51 c0 -3 -4 -8 -10 -11 -5 -3 -10 -1 -10 4 0 6 5 11 10 11 6 0 10 -2 10 -4z
m-20 -46 c0 -5 -2 -10 -4 -10 -3 0 -8 5 -11 10 -3 6 -1 10 4 10 6 0 11 -4 11
-10z m57 -70 c-1 -16 -3 -17 -24 -3 -13 9 -23 20 -22 27 0 7 2 6 6 -1 7 -20
23 -15 16 5 -6 15 -4 15 9 4 9 -7 16 -22 15 -32z m-4367 16 c0 -2 -8 -10 -17
-17 -16 -13 -17 -12 -4 4 13 16 21 21 21 13z m4340 -32 c0 -2 -7 -4 -15 -4 -8
0 -15 4 -15 10 0 5 7 7 15 4 8 -4 15 -8 15 -10z m-4370 -16 c0 -4 -5 -8 -11
-8 -6 0 -9 -7 -6 -14 4 -10 1 -13 -9 -9 -7 3 -14 0 -14 -6 0 -11 9 -14 42 -14
10 0 15 -3 13 -8 -3 -4 -17 -6 -31 -3 -14 3 -23 1 -20 -4 8 -13 -11 -35 -24
-27 -8 5 -9 10 -1 18 7 7 7 15 -2 26 -8 10 -8 12 -1 8 10 -6 22 8 29 36 2 4 3
9 4 10 2 8 31 3 31 -5z m11 -31 c-10 -9 -11 -8 -5 6 3 10 9 15 12 12 3 -3 0
-11 -7 -18z m4389 -47 c0 -5 -2 -10 -4 -10 -3 0 -8 5 -11 10 -3 6 -1 10 4 10
6 0 11 -4 11 -10z m-4406 -46 c3 -8 2 -12 -4 -9 -6 3 -10 10 -10 16 0 14 7 11
14 -7z m11 -54 c-3 -5 -12 -10 -18 -10 -7 0 -6 4 3 10 19 12 23 12 15 0z m-45
-34 c0 -3 -4 -8 -10 -11 -5 -3 -10 -1 -10 4 0 6 5 11 10 11 6 0 10 -2 10 -4z
m-20 -173 c0 -2 -9 1 -20 7 -25 13 -26 2 -2 -17 15 -13 15 -13 -4 -4 -12 6
-25 7 -29 3 -4 -4 -3 3 3 14 6 12 8 25 4 29 -4 4 5 0 21 -10 15 -9 27 -19 27
-22z m-17 -47 c8 5 7 2 -1 -7 -11 -12 -14 -12 -22 1 -5 8 -10 20 -10 25 1 6 5
2 11 -8 6 -9 16 -14 22 -11z m-30 -42 c-2 -7 -13 -14 -23 -17 -15 -4 -20 8
-11 30 4 9 38 -4 34 -13z m21 -23 c3 -5 -2 -15 -12 -22 -15 -12 -16 -12 -5 2
7 9 10 19 6 22 -3 4 -4 7 0 7 3 0 8 -4 11 -9z m-84 -36 c-7 -8 -9 -15 -5 -15
4 0 2 -7 -5 -15 -10 -12 -16 -13 -24 -5 -8 8 -4 16 14 30 30 24 37 25 20 5z
m4660 1 c7 -10 8 -21 3 -31 -8 -14 -11 -14 -27 4 -10 11 -15 25 -11 30 9 15
20 14 35 -3z m-4575 -25 c3 -5 2 -12 -3 -15 -5 -3 -9 1 -9 9 0 17 3 19 12 6z
m4555 -55 c0 -3 -4 -8 -10 -11 -5 -3 -10 -1 -10 4 0 6 5 11 10 11 6 0 10 -2
10 -4z m-4586 -25 c4 -5 -3 -7 -14 -4 -23 6 -26 13 -6 13 8 0 17 -4 20 -9z
m-18 -23 c5 -7 3 -8 -6 -3 -10 6 -11 1 -6 -21 5 -24 4 -26 -5 -11 -6 10 -8 25
-5 33 7 17 12 18 22 2z m4624 -51 c0 4 5 2 11 -4 7 -7 8 -17 3 -25 -13 -20
-14 -40 -3 -59 6 -12 5 -20 -1 -24 -6 -4 -8 -10 -5 -15 3 -5 -3 -8 -14 -7 -11
0 -18 4 -15 8 2 4 -2 10 -8 13 -7 3 -2 3 12 0 25 -5 25 -5 5 12 -16 14 -17 16
-2 11 24 -9 21 9 -5 28 l-23 17 25 -7 c25 -6 25 -6 5 11 -16 13 -17 15 -3 11
10 -3 20 -2 23 3 5 9 -7 14 -27 12 -3 -1 -9 5 -12 14 -4 12 -2 12 14 4 11 -6
20 -7 20 -3z m-4614 -49 c3 -4 -1 -5 -10 -4 -8 1 -18 5 -22 8 -3 4 1 5 10 4 8
-1 18 -5 22 -8z m4577 -113 c-3 -9 -8 -14 -10 -11 -3 3 -2 9 2 15 9 16 15 13
8 -4z m-4696 -20 c0 -8 -4 -12 -9 -9 -5 3 -6 10 -3 15 9 13 12 11 12 -6z
m4693 -25 c8 -5 11 -10 5 -10 -5 0 -17 5 -25 10 -8 5 -10 10 -5 10 6 0 17 -5
25 -10z m44 -18 c-13 -11 -20 -26 -18 -44 2 -21 -2 -28 -14 -28 -10 0 -13 3
-7 8 16 11 19 45 3 36 -7 -4 -2 5 11 19 14 15 29 27 35 27 6 0 2 -8 -10 -18z
m-4680 -137 c-7 -16 -24 -21 -24 -6 0 8 7 13 27 20 1 1 0 -6 -3 -14z m4666
-15 c0 -5 -2 -10 -4 -10 -3 0 -8 5 -11 10 -3 6 -1 10 4 10 6 0 11 -4 11 -10z
m-20 -24 c0 -3 -4 -8 -10 -11 -5 -3 -10 -1 -10 4 0 6 5 11 10 11 6 0 10 -2 10
-4z m15 -26 c3 -5 1 -10 -4 -10 -6 0 -11 5 -11 10 0 6 2 10 4 10 3 0 8 -4 11
-10z m39 -39 c3 -5 -1 -11 -9 -14 -9 -4 -12 -1 -8 9 6 16 10 17 17 5z m-4641
-35 c6 -15 -17 -16 -30 -1 -4 4 -2 5 5 1 6 -4 12 -2 12 3 0 15 7 14 13 -3z
m-86 -21 c0 -8 -4 -12 -9 -9 -5 3 -6 10 -3 15 9 13 12 11 12 -6z m4703 -50 c0
-1 -11 -5 -24 -7 -16 -3 -23 -1 -19 7 3 10 43 10 43 0z m-44 -45 c0 -12 -4
-16 -9 -11 -5 5 -6 14 -3 20 10 15 12 14 12 -9z m28 -27 c-17 -12 -17 -13 0
-13 9 0 14 -4 11 -10 -4 -6 -13 -5 -25 2 -19 12 -19 13 3 25 12 7 16 12 10 13
-7 0 -13 5 -13 11 0 8 5 7 16 -2 14 -12 14 -14 -2 -26z m-4557 -59 c-3 -3 -12
-4 -19 -1 -8 3 -5 6 6 6 11 1 17 -2 13 -5z m-15 -78 c10 5 11 4 1 -7 -18 -18
-16 -34 2 -19 10 9 15 9 15 1 0 -6 -5 -11 -11 -11 -5 0 -7 -4 -4 -10 3 -5 1
-10 -4 -10 -6 0 -11 5 -11 11 0 5 -4 8 -9 5 -5 -4 -8 2 -6 11 1 10 -3 25 -9
33 -9 13 -9 13 6 2 9 -8 23 -10 30 -6z m4545 -2 c-3 -3 -12 -4 -19 -1 -8 3 -5
6 6 6 11 1 17 -2 13 -5z m-4510 -49 c0 -8 -4 -12 -9 -9 -5 3 -6 10 -3 15 9 13
12 11 12 -6z m18 -44 c3 -5 2 -12 -3 -15 -5 -3 -9 1 -9 9 0 17 3 19 12 6z
m4462 -86 c0 -8 -4 -12 -9 -9 -5 3 -6 10 -3 15 9 13 12 11 12 -6z m19 -40 c4
-8 11 -12 18 -8 6 3 3 -3 -7 -14 -9 -11 -14 -23 -10 -28 5 -4 2 -5 -4 -1 -7 4
-13 2 -13 -3 0 -6 6 -11 13 -11 9 0 8 -3 -2 -9 -11 -7 -11 -9 0 -13 11 -4 12
-8 2 -20 -7 -8 -12 -17 -10 -19 1 -3 -5 3 -14 13 -9 9 -19 15 -22 12 -3 -3 -4
3 -3 13 0 10 -5 17 -12 15 -8 -1 -11 2 -6 9 5 9 12 6 25 -9 20 -26 26 -27 26
-7 0 8 -3 15 -7 15 -4 0 -7 7 -7 15 0 8 3 13 6 11 3 -2 12 2 19 10 8 9 9 14 2
14 -6 0 -9 4 -6 9 4 5 0 12 -6 14 -10 4 -10 6 0 6 7 1 15 -6 18 -14z m-4476
-26 c0 -4 -8 -9 -18 -11 -11 -3 -19 0 -19 8 0 7 9 12 19 11 10 -1 18 -4 18 -8z
m29 -23 c9 -11 9 -16 -1 -22 -7 -4 -10 -4 -6 1 4 4 3 14 -3 22 -6 7 -9 13 -6
13 2 0 10 -6 16 -14z m-34 -16 c-3 -5 -1 -10 6 -10 7 0 4 -6 -6 -14 -27 -19
-40 -8 -19 15 18 20 29 25 19 9z m70 -80 c3 -6 -1 -7 -9 -4 -18 7 -21 14 -7
14 6 0 13 -4 16 -10z m-15 -90 c-16 -10 -15 -11 15 -29 19 -11 18 -12 -4 -5
-15 4 -21 2 -17 -4 3 -6 2 -14 -4 -17 -6 -4 -10 -3 -9 2 1 4 0 10 -1 13 -6 16
-5 48 1 44 4 -2 11 1 14 7 4 5 10 8 13 4 4 -3 0 -10 -8 -15z m36 -132 c4 -6 3
-8 -4 -4 -6 3 -13 2 -17 -4 -3 -5 -2 -10 2 -10 5 0 14 -10 22 -22 13 -20 12
-22 -1 -11 -8 7 -19 9 -23 5 -5 -4 -5 -2 -1 5 3 6 2 15 -4 18 -8 5 -7 11 1 21
14 17 16 17 25 2z m49 -66 c-3 -3 -11 0 -18 7 -9 10 -8 11 6 5 10 -3 15 -9 12
-12z m-35 -11 c0 -4 -3 -11 -7 -14 -8 -9 -34 13 -28 24 6 9 35 1 35 -10z
m4205 -41 c3 -5 1 -10 -4 -10 -6 0 -11 5 -11 10 0 6 2 10 4 10 3 0 8 -4 11
-10z m-4129 -90 c0 -12 -4 -16 -9 -11 -5 5 -6 14 -3 20 10 15 12 14 12 -9z
m4119 -24 c2 -29 -1 -34 -17 -33 -17 1 -17 3 -4 13 21 15 20 28 -1 20 -16 -5
-16 -5 -2 6 9 7 14 20 11 28 -3 8 -1 12 3 8 4 -4 9 -23 10 -42z m-3 -61 c-4
-5 -7 -16 -7 -24 0 -8 -8 -15 -18 -17 -9 -1 -15 2 -11 7 3 5 10 7 15 3 13 -8
7 29 -6 38 -5 4 0 6 12 5 12 0 19 -6 15 -12z m-74 -30 c-3 -3 -9 2 -12 12 -6
14 -5 15 5 6 7 -7 10 -15 7 -18z m-4014 -20 c-4 -8 -10 -12 -15 -9 -5 3 -9 0
-9 -5 0 -6 -6 -11 -12 -11 -7 1 -2 10 11 20 28 24 32 25 25 5z m33 0 c0 -8 -4
-12 -9 -9 -5 3 -6 10 -3 15 9 13 12 11 12 -6z m3998 -65 c-7 -11 -65 -43 -65
-36 0 4 62 45 68 46 2 0 0 -5 -3 -10z m-3955 -65 c11 -13 10 -14 -4 -9 -9 3
-16 10 -16 15 0 13 6 11 20 -6z m10 -65 c0 -5 -5 -10 -11 -10 -5 0 -7 5 -4 10
3 6 8 10 11 10 2 0 4 -4 4 -10z m3894 -21 c-2 -5 -14 -1 -24 9 -26 22 -25 24
5 10 13 -6 22 -15 19 -19z m-3882 -2 c-12 -13 -19 -28 -15 -32 5 -5 0 -3 -9 4
-17 13 -15 37 2 26 4 -3 13 2 20 10 7 8 15 15 18 15 3 0 -4 -10 -16 -23z m35
-49 c-3 -8 -6 -5 -6 6 -1 11 2 17 5 13 3 -3 4 -12 1 -19z m3768 12 c3 -5 1
-10 -4 -10 -6 0 -11 5 -11 10 0 6 2 10 4 10 3 0 8 -4 11 -10z m-3744 -77 c0
-5 2 -15 4 -24 2 -12 -3 -15 -15 -12 -15 4 -18 16 -11 41 2 6 21 1 22 -5z m39
-48 c0 -5 -5 -3 -10 5 -5 8 -10 20 -10 25 0 6 5 3 10 -5 5 -8 10 -19 10 -25z
m60 -34 c0 -6 -4 -12 -8 -15 -5 -3 -9 1 -9 9 0 8 4 15 9 15 4 0 8 -4 8 -9z
m3475 -140 c-9 -8 -36 -10 -30 -2 2 4 11 8 20 8 8 0 13 -3 10 -6z m-3375 -21
c0 -5 -5 -10 -11 -10 -5 0 -7 5 -4 10 3 6 8 10 11 10 2 0 4 -4 4 -10z m3394 1
c3 -5 0 -14 -8 -20 -10 -9 -15 -8 -19 3 -4 11 -1 13 10 9 11 -4 14 -2 9 5 -4
7 -5 12 -2 12 3 0 7 -4 10 -9z m-3294 -141 c0 -5 -2 -10 -4 -10 -3 0 -8 5 -11
10 -3 6 -1 10 4 10 6 0 11 -4 11 -10z m3115 1 c3 -5 2 -12 -3 -15 -5 -3 -9 1
-9 9 0 17 3 19 12 6z m59 -36 c-9 -14 -20 -23 -24 -20 -5 3 -14 -3 -20 -12
-10 -16 -11 -16 -6 -1 3 10 -2 22 -12 27 -9 6 -12 11 -6 11 5 0 16 -6 23 -12
12 -11 13 -10 7 6 -5 15 -4 17 8 7 11 -9 16 -9 22 0 4 8 3 9 -4 5 -7 -4 -12
-3 -12 3 0 11 21 20 32 14 4 -2 1 -15 -8 -28z m-70 -43 c-3 -28 -11 -38 -21
-28 -4 4 -1 11 7 16 8 6 10 10 4 10 -6 0 -11 6 -11 13 0 8 6 14 12 14 7 0 11
-11 9 -25z m-3030 -31 c3 -5 0 -13 -7 -18 -18 -14 -50 -10 -55 7 -4 11 -2 13
9 4 13 -9 20 -10 47 -5 4 1 0 6 -8 11 -9 6 -10 10 -3 10 6 0 14 -4 17 -9z
m2830 -109 c3 -5 -1 -9 -9 -9 -8 0 -12 4 -9 9 3 4 7 8 9 8 2 0 6 -4 9 -8z m-8
-61 c-4 -5 -1 -11 5 -13 7 -2 6 -8 -4 -16 -12 -10 -14 -8 -14 13 0 14 4 25 9
25 5 0 7 -4 4 -9z m-36 -76 c0 -11 -29 -11 -33 -1 -4 10 1 12 14 9 10 -3 19
-7 19 -8z m-60 -25 c6 -11 7 -21 3 -22 -4 0 -12 -2 -18 -2 -10 -2 -62 -51 -67
-63 -2 -4 -12 -9 -22 -10 -18 -3 -18 -2 2 15 12 11 18 22 15 26 -4 4 1 4 11 0
15 -6 17 -4 11 6 -5 8 -4 11 3 6 6 -3 13 3 17 14 3 11 13 20 21 20 17 0 19 16
2 23 -10 4 -10 6 -1 6 7 1 17 -8 23 -19z m-2423 -7 c-11 -11 13 -32 31 -27 15
5 14 4 -1 -6 -9 -6 -15 -16 -11 -21 4 -7 10 -6 18 0 10 8 12 5 11 -11 -1 -12
-7 -23 -14 -24 -7 -2 -7 -1 -1 3 13 6 -30 40 -44 35 -5 -2 -4 3 3 12 8 10 9
16 1 21 -10 6 -5 25 7 25 4 0 3 -3 0 -7z m2331 -33 c-7 -10 -14 -17 -17 -15
-4 4 18 35 25 35 2 0 -1 -9 -8 -20z m-2233 -32 c5 4 5 1 1 -6 -6 -10 -11 -10
-22 -1 -8 6 -14 14 -14 16 0 3 6 0 13 -6 8 -6 18 -7 22 -3z m-7 -42 c-7 -8
-17 -12 -22 -9 -4 3 -2 9 5 14 22 13 31 11 17 -5z m2175 -6 c3 -11 1 -18 -4
-14 -5 3 -9 12 -9 20 0 20 7 17 13 -6z m-2099 -19 c-2 -3 -12 3 -22 13 -16 17
-16 18 5 5 12 -7 20 -15 17 -18z m2041 11 c-3 -3 -11 0 -18 7 -9 10 -8 11 6 5
10 -3 15 -9 12 -12z m-2014 -40 c-7 -2 -18 1 -23 6 -8 8 -4 9 13 5 13 -4 18
-8 10 -11z m79 -47 c4 3 10 -1 13 -8 3 -9 -2 -13 -16 -12 -12 1 -22 7 -21 13
2 28 7 36 11 19 2 -9 8 -15 13 -12z m1746 -10 c-1 -8 -5 -17 -8 -21 -5 -4 -4
16 1 34 3 9 9 -1 7 -13z m-1496 -75 c0 -5 -5 -10 -11 -10 -5 0 -7 5 -4 10 3 6
8 10 11 10 2 0 4 -4 4 -10z m1355 0 c-3 -5 -12 -10 -18 -10 -7 0 -6 4 3 10 19
12 23 12 15 0z m85 0 c0 -5 -4 -10 -10 -10 -5 0 -10 5 -10 10 0 6 5 10 10 10
6 0 10 -4 10 -10z m-165 -20 c3 -5 1 -10 -4 -10 -6 0 -11 5 -11 10 0 6 2 10 4
10 3 0 8 -4 11 -10z m-1240 -32 c13 7 25 1 19 -10 -5 -8 -2 -9 9 -5 10 3 17 2
17 -4 0 -6 6 -7 13 -3 8 5 8 2 -2 -9 -19 -23 -29 -21 -43 8 -7 15 -14 21 -18
15 -4 -6 -12 2 -18 17 -12 26 -11 27 3 8 9 -11 18 -19 20 -17z m1291 6 c-3 -9
-6 -20 -6 -25 0 -5 -4 -9 -9 -9 -5 0 -8 11 -8 25 0 15 5 25 14 25 10 0 13 -6
9 -16z m-57 -34 c-23 -18 -49 -17 -49 2 0 6 6 6 14 -1 10 -8 16 -9 21 -1 3 5
1 10 -4 10 -6 0 -11 5 -11 12 0 9 3 9 12 0 17 -17 28 -15 29 6 0 12 2 13 6 3
3 -8 -5 -22 -18 -31z m-93 15 c-1 -8 -5 -17 -8 -21 -5 -4 -4 16 1 34 3 9 9 -1
7 -13z m-896 -31 c0 -8 -19 -13 -24 -6 -3 5 1 9 9 9 8 0 15 -2 15 -3z m231
-43 c7 11 9 10 9 -4 0 -22 -25 -18 -26 4 -1 12 0 12 4 0 3 -12 5 -12 13 0z
m140 5 c5 3 9 0 9 -6 0 -15 -23 -7 -26 8 -1 7 0 8 3 2 2 -5 9 -8 14 -4z m98
-30 c-9 -8 -10 -7 -5 7 3 10 7 24 7 30 1 7 3 4 6 -7 3 -10 -1 -23 -8 -30z
m-64 -3 c0 -16 -3 -27 -8 -26 -29 6 -31 11 -13 32 11 11 20 21 21 21 0 0 1
-12 0 -27z"/>
<path d="M5752 3821 c4 -13 18 -16 19 -4 0 4 -5 9 -11 12 -7 2 -11 -2 -8 -8z"/>
<path d="M3571 6611 c-8 -5 -21 -7 -30 -4 -13 4 -14 3 -2 -5 14 -10 51 0 51
13 0 7 -3 6 -19 -4z"/>
<path d="M3270 6601 c0 -6 4 -13 10 -16 6 -3 7 1 4 9 -7 18 -14 21 -14 7z"/>
<path d="M3359 6593 c-10 -12 -10 -14 -1 -9 6 4 12 2 12 -3 0 -6 -7 -11 -15
-11 -8 0 -15 -6 -15 -12 0 -9 -3 -8 -10 2 -5 8 -12 11 -17 7 -12 -12 19 -27
33 -16 7 5 17 8 24 7 13 -3 22 40 9 47 -3 3 -13 -3 -20 -12z"/>
<path d="M3650 6598 c0 -3 9 -6 20 -5 11 1 20 5 20 9 0 3 -9 6 -20 5 -11 -1
-20 -5 -20 -9z"/>
<path d="M3706 6602 c-2 -4 4 -8 14 -8 10 0 16 4 14 8 -3 4 -9 8 -14 8 -5 0
-11 -4 -14 -8z"/>
<path d="M3606 6584 c-5 -13 -10 -14 -18 -6 -12 12 -38 5 -38 -10 0 -5 5 -6
10 -3 6 3 10 0 10 -7 0 -9 3 -9 10 2 8 13 10 13 10 0 0 -9 6 -7 16 8 9 13 14
25 11 28 -2 3 -7 -3 -11 -12z"/>
<path d="M3625 6572 c-9 -20 -13 -52 -8 -52 3 0 13 5 24 10 16 9 21 7 30 -14
12 -26 42 -25 32 1 -5 12 -3 14 7 8 8 -5 11 -4 6 3 -3 6 3 13 14 17 11 3 20
14 19 23 0 11 -2 12 -6 4 -2 -6 -10 -9 -15 -6 -6 4 -8 2 -5 -3 4 -6 0 -13 -8
-17 -8 -3 -15 0 -15 7 0 8 -4 6 -10 -3 -9 -15 -11 -13 -14 13 0 6 -5 12 -11
12 -5 0 -15 4 -21 8 -7 4 -15 -1 -19 -11z m40 -11 c-8 -7 17 -31 26 -25 5 3 6
-2 3 -11 -6 -14 -8 -13 -21 5 -8 11 -19 18 -24 15 -12 -8 -31 4 -24 15 3 5 14
8 25 7 10 -1 17 -3 15 -6z"/>
<path d="M3155 6540 c-16 -7 -17 -9 -3 -9 9 -1 20 4 23 9 7 11 7 11 -20 0z"/>
<path d="M3119 6538 c-5 -18 -6 -38 -1 -34 7 8 12 36 6 36 -2 0 -4 -1 -5 -2z"/>
<path d="M3840 6500 c-12 -7 -10 -9 7 -7 12 0 19 5 17 9 -6 10 -6 10 -24 -2z"/>
<path d="M3727 6479 c7 -7 15 -10 18 -7 3 3 -2 9 -12 12 -14 6 -15 5 -6 -5z"/>
<path d="M3830 6476 c0 -2 9 -6 20 -9 11 -3 18 -1 14 4 -5 9 -34 13 -34 5z"/>
<path d="M3935 6450 c-4 -6 -12 -7 -18 -3 -8 4 -7 1 1 -9 10 -13 10 -17 0 -21
-7 -3 -3 -4 10 -4 22 1 32 17 11 17 -8 0 -8 5 1 15 7 8 10 15 7 15 -3 0 -9 -5
-12 -10z"/>
<path d="M2975 6439 c-4 -6 -5 -12 -2 -15 2 -3 7 2 10 11 7 17 1 20 -8 4z"/>
<path d="M4037 6419 c7 -7 15 -10 18 -7 3 3 -2 9 -12 12 -14 6 -15 5 -6 -5z"/>
<path d="M2760 6355 c-10 -12 -10 -15 1 -15 8 0 5 -6 -7 -16 -18 -15 -18 -15
3 -4 12 5 25 15 29 22 5 7 3 8 -6 3 -10 -6 -12 -4 -7 8 8 21 3 22 -13 2z"/>
<path d="M2595 6320 c-3 -5 -1 -10 4 -10 6 0 11 5 11 10 0 6 -2 10 -4 10 -3 0
-8 -4 -11 -10z"/>
<path d="M4220 6322 c0 -14 22 -31 35 -26 7 3 21 -5 31 -18 11 -13 26 -23 34
-23 8 0 14 -6 12 -14 -3 -12 0 -12 11 -2 12 9 16 9 19 -1 3 -9 6 -9 12 0 4 7
2 12 -4 12 -6 0 -8 5 -4 13 5 7 0 6 -11 -3 -17 -13 -18 -13 -13 1 5 12 2 16
-11 12 -13 -3 -22 4 -31 26 -7 17 -17 31 -23 31 -7 0 -7 -4 1 -12 23 -23 12
-29 -17 -9 -31 23 -41 26 -41 13z"/>
<path d="M4317 6299 c7 -7 15 -10 18 -7 3 3 -2 9 -12 12 -14 6 -15 5 -6 -5z"/>
<path d="M4410 6256 c0 -2 8 -10 18 -17 15 -13 16 -12 3 4 -13 16 -21 21 -21
13z"/>
<path d="M4534 6182 c3 -5 0 -13 -6 -15 -9 -4 -10 -6 -1 -6 17 -1 25 16 12 25
-7 4 -9 3 -5 -4z"/>
<path d="M4590 6139 c0 -5 5 -7 10 -4 6 3 10 8 10 11 0 2 -4 4 -10 4 -5 0 -10
-5 -10 -11z"/>
<path d="M4653 6115 c0 -8 4 -12 9 -9 5 3 6 10 3 15 -9 13 -12 11 -12 -6z"/>
<path d="M2303 6098 c9 -5 14 -16 11 -26 -5 -14 -3 -14 10 2 22 27 20 34 -11
34 -21 0 -23 -2 -10 -10z"/>
<path d="M2283 6075 c-10 -11 -10 -15 0 -18 7 -3 4 -6 -5 -6 -19 -1 -24 -16
-9 -26 12 -7 21 7 27 40 5 29 4 30 -13 10z"/>
<path d="M2213 6055 c0 -8 4 -12 9 -9 5 3 6 10 3 15 -9 13 -12 11 -12 -6z"/>
<path d="M2173 6015 c0 -8 4 -12 9 -9 5 3 6 10 3 15 -9 13 -12 11 -12 -6z"/>
<path d="M2117 5973 c-10 -9 -9 -23 1 -23 5 0 9 7 9 15 0 17 -1 18 -10 8z"/>
<path d="M4780 5976 c0 -2 7 -7 16 -10 8 -3 12 -2 9 4 -6 10 -25 14 -25 6z"/>
<path d="M2060 5926 c0 -2 8 -10 18 -17 15 -13 16 -12 3 4 -13 16 -21 21 -21
13z"/>
<path d="M4828 5892 c-7 -10 -8 -14 -4 -10 5 4 16 2 24 -5 11 -8 14 -8 9 0 -4
6 -3 14 3 18 5 3 10 2 10 -4 0 -6 9 -15 19 -21 17 -9 19 -7 16 11 -3 12 -7 24
-11 28 -4 3 -4 -2 -1 -11 4 -10 2 -18 -2 -18 -5 0 -11 5 -13 12 -6 18 -36 18
-50 0z"/>
<path d="M2016 5877 c3 -10 9 -15 12 -12 3 3 0 11 -7 18 -10 9 -11 8 -5 -6z"/>
<path d="M2055 5880 c3 -5 8 -10 11 -10 2 0 4 5 4 10 0 6 -5 10 -11 10 -5 0
-7 -4 -4 -10z"/>
<path d="M2046 5857 c3 -8 11 -14 19 -14 20 0 19 4 -5 17 -15 8 -18 8 -14 -3z"/>
<path d="M4962 5778 c-7 -9 -4 -20 11 -38 12 -14 27 -27 32 -30 6 -3 9 -11 9
-18 -1 -7 0 -11 3 -8 3 3 16 -8 30 -25 25 -29 47 -37 57 -20 4 5 -2 7 -12 4
-16 -4 -52 23 -44 34 6 9 1 23 -8 18 -5 -3 -10 -1 -10 4 0 6 5 11 12 11 26 0
-6 14 -43 19 -9 1 -7 31 2 31 4 0 10 -5 12 -10 3 -6 4 -5 3 2 -2 7 -11 13 -22
13 -10 1 -18 6 -16 13 3 15 -3 15 -16 0z m19 -25 c13 -16 12 -17 -3 -4 -10 7
-18 15 -18 17 0 8 8 3 21 -13z"/>
<path d="M1910 5720 c0 -5 5 -10 10 -10 6 0 10 5 10 10 0 6 -4 10 -10 10 -5 0
-10 -4 -10 -10z"/>
<path d="M5070 5676 c0 -8 4 -17 9 -20 5 -4 7 3 4 14 -6 23 -13 26 -13 6z"/>
<path d="M5090 5681 c0 -6 4 -13 10 -16 6 -3 7 1 4 9 -7 18 -14 21 -14 7z"/>
<path d="M1816 5655 c-9 -26 -7 -32 5 -12 6 10 9 21 6 23 -2 3 -7 -2 -11 -11z"/>
<path d="M5215 5500 c-3 -5 -1 -10 4 -10 6 0 11 5 11 10 0 6 -2 10 -4 10 -3 0
-8 -4 -11 -10z"/>
<path d="M1653 5415 c0 -8 4 -12 9 -9 5 3 6 10 3 15 -9 13 -12 11 -12 -6z"/>
<path d="M1690 5404 c0 -9 -5 -12 -12 -8 -9 5 -9 2 1 -9 7 -9 16 -17 19 -17 3
0 2 3 -1 6 -3 4 -2 15 4 25 6 13 6 19 -1 19 -5 0 -10 -7 -10 -16z"/>
<path d="M5328 5308 c-14 -14 -15 -18 -4 -18 8 0 17 7 20 16 9 23 4 24 -16 2z"/>
<path d="M1595 5293 c2 -10 4 -20 5 -23 1 -3 2 -9 0 -15 -1 -5 4 -4 11 2 7 7
14 20 15 29 1 9 0 13 -3 10 -4 -3 -12 -1 -19 5 -9 8 -12 6 -9 -8z"/>
<path d="M1547 5279 c7 -7 15 -10 18 -7 3 3 -2 9 -12 12 -14 6 -15 5 -6 -5z"/>
<path d="M5365 5220 c-3 -6 1 -7 9 -4 18 7 21 14 7 14 -6 0 -13 -4 -16 -10z"/>
<path d="M5366 5165 c3 -7 16 -17 30 -24 14 -6 23 -15 20 -20 -6 -10 24 -25
32 -16 3 3 1 5 -5 5 -6 0 -14 7 -17 16 -4 11 -2 15 7 11 8 -3 14 1 14 8 0 8
-7 11 -15 7 -11 -4 -13 -1 -7 9 4 8 5 11 1 7 -4 -3 -20 -2 -36 2 -22 6 -27 5
-24 -5z m49 -15 c3 -6 -1 -7 -9 -4 -18 7 -21 14 -7 14 6 0 13 -4 16 -10z"/>
<path d="M1476 5113 c-6 -14 -5 -15 5 -6 7 7 10 15 7 18 -3 3 -9 -2 -12 -12z"/>
<path d="M5440 5086 c0 -2 7 -9 15 -16 13 -11 14 -10 9 4 -5 14 -24 23 -24 12z"/>
<path d="M1475 5050 c-3 -6 -11 -7 -17 -4 -7 5 -8 2 -4 -5 5 -7 11 -10 14 -7
3 3 11 1 18 -5 7 -6 14 -6 18 -1 3 6 -1 15 -8 21 -10 8 -16 9 -21 1z"/>
<path d="M5489 4995 c-1 -8 -2 -21 -3 -27 -1 -7 2 -22 8 -33 5 -11 11 -26 12
-34 4 -20 32 -46 41 -38 3 4 2 12 -4 18 -13 13 -6 42 7 34 5 -3 11 -1 14 4 4
5 -2 8 -11 7 -9 -2 -19 -8 -21 -14 -2 -7 -8 -12 -13 -12 -11 0 -8 22 5 31 13
10 -3 29 -19 23 -10 -4 -12 2 -9 25 3 17 3 31 0 31 -3 0 -7 -7 -7 -15z"/>
<path d="M5520 5000 c-9 -6 -10 -10 -3 -10 6 0 15 5 18 10 8 12 4 12 -15 0z"/>
<path d="M5555 4851 c-3 -5 -2 -12 3 -15 5 -3 9 1 9 9 0 17 -3 19 -12 6z"/>
<path d="M1370 4848 c0 -2 9 -11 20 -21 11 -9 20 -13 20 -7 0 5 -9 14 -20 20
-11 6 -20 9 -20 8z"/>
<path d="M1310 4761 c0 -16 28 -33 35 -21 4 6 1 9 -7 8 -7 -2 -12 3 -10 10 1
6 -2 12 -8 12 -5 0 -10 -4 -10 -9z"/>
<path d="M5606 4758 c3 -5 10 -6 15 -3 13 9 11 12 -6 12 -8 0 -12 -4 -9 -9z"/>
<path d="M1346 4724 c-11 -8 -14 -14 -7 -14 7 0 9 -5 5 -11 -4 -7 2 -7 17 1
32 17 31 16 17 28 -9 7 -19 6 -32 -4z"/>
<path d="M1321 4684 c0 -11 3 -14 6 -6 3 7 2 16 -1 19 -3 4 -6 -2 -5 -13z"/>
<path d="M1300 4671 c0 -7 -5 -9 -12 -5 -7 5 -8 3 -3 -5 5 -9 10 -10 18 -2 6
6 8 14 4 18 -4 3 -7 1 -7 -6z"/>
<path d="M1310 4644 c-14 -8 -17 -13 -8 -10 10 3 20 1 23 -4 4 -6 1 -10 -4
-10 -6 0 -11 -5 -11 -12 0 -21 23 9 25 32 1 11 1 20 1 20 -1 -1 -12 -8 -26
-16z"/>
<path d="M1275 4570 c-3 -5 -1 -10 4 -10 6 0 11 5 11 10 0 6 -2 10 -4 10 -3 0
-8 -4 -11 -10z"/>
<path d="M1279 4521 c11 -7 11 -9 0 -14 -9 -4 -10 -6 -2 -6 7 -1 10 -8 6 -18
-5 -15 -3 -15 10 2 17 23 12 45 -12 45 -13 0 -13 -2 -2 -9z"/>
<path d="M5719 4274 c7 -4 6 -12 -2 -24 -9 -15 -9 -22 1 -32 9 -9 12 -6 12 15
0 15 0 30 1 34 0 4 -4 8 -10 10 -7 1 -7 -1 -2 -3z"/>
<path d="M1195 4230 c3 -6 0 -10 -7 -10 -8 0 -9 -3 -3 -8 6 -4 10 -13 9 -19
-1 -7 -2 -18 -3 -24 0 -5 -5 -8 -10 -4 -5 3 -13 1 -16 -5 -4 -6 -1 -9 7 -8 7
2 13 -4 13 -12 0 -8 -6 -14 -14 -12 -12 3 -12 0 -1 -13 18 -22 44 -1 30 25 -7
13 -7 21 1 25 6 4 8 13 5 21 -3 7 -1 16 4 19 15 9 12 22 -6 29 -8 3 -12 2 -9
-4z"/>
<path d="M5735 4151 c0 -16 2 -28 4 -25 2 2 10 -1 17 -7 8 -7 14 -7 19 1 4 6
1 9 -6 8 -6 -2 -14 3 -17 11 -3 9 0 11 9 6 8 -5 5 1 -5 13 -11 12 -20 22 -20
22 -1 0 -2 -13 -1 -29z"/>
<path d="M6030 4041 c0 -6 4 -13 10 -16 6 -3 7 1 4 9 -7 18 -14 21 -14 7z"/>
<path d="M1115 4000 c-3 -5 -1 -10 4 -10 6 0 11 5 11 10 0 6 -2 10 -4 10 -3 0
-8 -4 -11 -10z"/>
<path d="M5775 4000 c-3 -5 -3 -10 2 -10 4 0 1 -4 -7 -10 -15 -9 -23 -60 -8
-60 4 0 6 11 4 24 -2 14 0 26 6 28 6 2 12 12 14 21 3 19 -2 22 -11 7z"/>
<path d="M6000 4000 c-9 -6 -10 -10 -3 -10 6 0 15 5 18 10 8 12 4 12 -15 0z"/>
<path d="M1070 3956 c0 -2 8 -10 18 -17 15 -13 16 -12 3 4 -13 16 -21 21 -21
13z"/>
<path d="M1067 3919 c7 -7 15 -10 18 -7 3 3 -2 9 -12 12 -14 6 -15 5 -6 -5z"/>
<path d="M5940 3926 c0 -2 8 -10 18 -17 15 -13 16 -12 3 4 -13 16 -21 21 -21
13z"/>
<path d="M1120 3911 c0 -7 -4 -9 -10 -6 -6 4 -7 -1 -3 -11 6 -15 7 -15 15 1 6
9 7 19 4 22 -3 4 -6 1 -6 -6z"/>
<path d="M5759 3896 c9 -11 9 -15 -1 -18 -7 -3 -8 -7 -2 -11 5 -3 16 3 23 15
7 11 8 17 2 13 -6 -3 -11 -1 -11 4 0 6 -5 11 -11 11 -8 0 -8 -4 0 -14z"/>
<path d="M1040 3885 c0 -2 6 -8 13 -14 10 -8 14 -7 14 2 0 8 -6 14 -14 14 -7
0 -13 -1 -13 -2z"/>
<path d="M1090 3878 c0 -9 5 -20 10 -23 13 -8 13 5 0 25 -8 13 -10 13 -10 -2z"/>
<path d="M5794 3868 l-19 -23 23 19 c12 11 22 21 22 23 0 8 -8 2 -26 -19z"/>
<path d="M1146 3833 c-6 -14 -5 -15 5 -6 7 7 10 15 7 18 -3 3 -9 -2 -12 -12z"/>
<path d="M1038 3828 c-7 -17 15 -19 29 -3 4 4 3 5 -4 2 -6 -4 -13 -2 -15 5 -3
8 -6 6 -10 -4z"/>
<path d="M986 3758 c3 -4 9 -8 15 -8 5 0 9 4 9 8 0 5 -7 9 -15 9 -8 0 -12 -4
-9 -9z"/>
<path d="M1116 3761 c-4 -7 -5 -15 -2 -18 9 -9 19 4 14 18 -4 11 -6 11 -12 0z"/>
<path d="M5785 3761 c-3 -5 -2 -12 3 -15 5 -3 9 1 9 9 0 17 -3 19 -12 6z"/>
<path d="M1038 3733 c7 -3 16 -2 19 1 4 3 -2 6 -13 5 -11 0 -14 -3 -6 -6z"/>
<path d="M5800 3726 c0 -2 7 -9 15 -16 13 -11 14 -10 9 4 -5 14 -24 23 -24 12z"/>
<path d="M1010 3680 c-8 -5 -10 -10 -5 -10 6 0 17 5 25 10 8 5 11 10 5 10 -5
0 -17 -5 -25 -10z"/>
<path d="M1030 3659 c0 -5 5 -7 10 -4 6 3 10 2 10 -3 0 -16 -13 -22 -25 -12
-9 7 -17 5 -26 -7 -13 -16 -12 -17 3 -5 14 11 18 10 26 -4 9 -15 13 -16 26 -5
9 7 16 9 16 3 0 -5 -7 -15 -15 -22 -12 -10 -18 -10 -30 0 -9 7 -18 10 -22 6
-3 -3 -2 -6 3 -6 5 0 20 -10 34 -21 24 -20 24 -20 3 -14 -13 4 -23 3 -23 -2 0
-12 48 -15 55 -3 4 6 -1 13 -9 16 -13 5 -12 9 7 24 22 19 22 19 2 34 -11 8
-15 16 -10 16 6 0 3 5 -5 10 -20 13 -30 12 -30 -1z"/>
<path d="M5830 3659 c0 -5 5 -7 10 -4 6 3 10 8 10 11 0 2 -4 4 -10 4 -5 0 -10
-5 -10 -11z"/>
<path d="M5810 3600 c0 -5 5 -10 10 -10 6 0 10 5 10 10 0 6 -4 10 -10 10 -5 0
-10 -4 -10 -10z"/>
<path d="M995 3550 c-4 -6 -11 -7 -17 -4 -7 4 -8 2 -4 -4 7 -12 36 -5 36 9 0
12 -7 11 -15 -1z"/>
<path d="M5840 3540 c-9 -6 -10 -10 -3 -10 6 0 15 5 18 10 8 12 4 12 -15 0z"/>
<path d="M996 3485 c4 -8 8 -15 10 -15 2 0 4 7 4 15 0 8 -4 15 -10 15 -5 0 -7
-7 -4 -15z"/>
<path d="M1004 3386 c21 -20 26 -30 17 -39 -6 -6 -11 -16 -11 -21 0 -6 4 -5 9
3 6 9 11 10 15 2 4 -6 0 -14 -9 -17 -12 -5 -13 -9 -4 -20 14 -17 -2 -18 -20
-1 -11 9 -12 9 -7 0 4 -7 16 -17 26 -23 16 -9 18 -7 14 16 -3 15 -1 23 5 20 5
-4 12 -2 15 3 4 5 2 12 -4 16 -6 4 -7 12 -3 18 4 7 8 22 9 34 1 18 -2 20 -17
13 -24 -13 -32 -12 -23 3 4 6 4 9 -1 5 -4 -4 -15 -3 -24 3 -9 6 -3 -1 13 -15z"/>
<path d="M5793 3395 c0 -8 4 -15 9 -15 4 0 8 7 8 15 0 8 -4 15 -8 15 -5 0 -9
-7 -9 -15z"/>
<path d="M5824 3390 c0 -9 5 -17 11 -17 6 0 11 8 11 17 0 9 -5 17 -11 17 -6 0
-11 -8 -11 -17z"/>
<path d="M5855 3329 c-4 -6 -5 -12 -2 -15 2 -3 7 2 10 11 7 17 1 20 -8 4z"/>
<path d="M994 3236 c1 -8 5 -18 8 -22 4 -3 5 1 4 10 -1 8 -5 18 -8 22 -4 3 -5
-1 -4 -10z"/>
<path d="M1070 3242 c0 -5 7 -13 16 -16 10 -4 14 -1 12 6 -5 15 -28 23 -28 10z"/>
<path d="M5833 3210 c1 -11 5 -20 9 -20 3 0 6 9 5 20 -1 11 -5 20 -9 20 -3 0
-6 -9 -5 -20z"/>
<path d="M975 3200 c-3 -5 -1 -10 4 -10 6 0 11 5 11 10 0 6 -2 10 -4 10 -3 0
-8 -4 -11 -10z"/>
<path d="M1025 3200 c3 -5 11 -10 16 -10 6 0 7 5 4 10 -3 6 -11 10 -16 10 -6
0 -7 -4 -4 -10z"/>
<path d="M5830 3176 c0 -2 8 -10 18 -17 15 -13 16 -12 3 4 -13 16 -21 21 -21
13z"/>
<path d="M1013 3115 c0 -7 6 -11 14 -8 7 3 13 6 13 8 0 2 -6 5 -13 8 -8 3 -14
-1 -14 -8z"/>
<path d="M5816 3113 c-6 -14 -5 -15 5 -6 7 7 10 15 7 18 -3 3 -9 -2 -12 -12z"/>
<path d="M1093 3090 c-1 -11 2 -20 7 -20 4 0 7 7 6 15 -3 23 -12 26 -13 5z"/>
<path d="M5790 3101 c0 -6 4 -13 10 -16 6 -3 7 1 4 9 -7 18 -14 21 -14 7z"/>
<path d="M1035 3041 c-3 -5 -2 -12 3 -15 5 -3 9 1 9 9 0 17 -3 19 -12 6z"/>
<path d="M5800 3040 c-9 -6 -10 -10 -3 -10 6 0 15 5 18 10 8 12 4 12 -15 0z"/>
<path d="M1073 2985 c0 -8 4 -15 9 -15 4 0 8 4 8 9 0 6 -4 12 -8 15 -5 3 -9
-1 -9 -9z"/>
<path d="M5780 2955 c-7 -8 -16 -13 -20 -10 -5 3 -11 1 -15 -5 -3 -5 2 -10 12
-10 15 0 16 -2 3 -11 -10 -7 -11 -9 -2 -7 8 2 12 6 10 10 -2 3 6 15 16 27 11
12 17 21 14 21 -3 0 -11 -7 -18 -15z"/>
<path d="M1070 2940 c0 -5 5 -10 11 -10 5 0 7 5 4 10 -3 6 -8 10 -11 10 -2 0
-4 -4 -4 -10z"/>
<path d="M1055 2900 c3 -5 8 -10 11 -10 2 0 4 5 4 10 0 6 -5 10 -11 10 -5 0
-7 -4 -4 -10z"/>
<path d="M5755 2890 c3 -5 8 -10 11 -10 2 0 4 5 4 10 0 6 -5 10 -11 10 -5 0
-7 -4 -4 -10z"/>
<path d="M1115 2871 c-3 -5 -2 -12 3 -15 5 -3 9 1 9 9 0 17 -3 19 -12 6z"/>
<path d="M5740 2761 c0 -10 19 -25 25 -20 1 2 -3 10 -11 17 -8 7 -14 8 -14 3z"/>
<path d="M1155 2720 c3 -5 8 -10 11 -10 2 0 4 5 4 10 0 6 -5 10 -11 10 -5 0
-7 -4 -4 -10z"/>
<path d="M5740 2718 c0 -4 5 -8 11 -8 5 0 7 -5 4 -10 -4 -6 -11 -7 -17 -4 -6
4 -5 -2 2 -15 9 -18 30 -21 30 -5 0 3 -4 2 -10 -1 -14 -9 -13 8 2 23 7 7 8 12
3 12 -6 0 -3 5 5 10 12 7 10 9 -8 7 -12 0 -22 -5 -22 -9z"/>
<path d="M1170 2620 c0 -5 5 -10 11 -10 5 0 7 5 4 10 -3 6 -8 10 -11 10 -2 0
-4 -4 -4 -10z"/>
<path d="M5706 2444 c-5 -14 -4 -15 9 -4 17 14 19 20 6 20 -5 0 -12 -7 -15
-16z"/>
<path d="M1210 2402 c0 -5 7 -9 15 -9 8 0 12 4 9 9 -3 4 -9 8 -15 8 -5 0 -9
-4 -9 -8z"/>
<path d="M5677 2375 c-4 -8 -3 -16 1 -19 4 -3 9 4 9 15 2 23 -3 25 -10 4z"/>
<path d="M5706 2378 c3 -5 10 -6 15 -3 13 9 11 12 -6 12 -8 0 -12 -4 -9 -9z"/>
<path d="M1255 2330 c6 -30 16 -40 12 -12 -2 12 -6 24 -10 28 -3 4 -4 -4 -2
-16z"/>
<path d="M5655 2280 c-4 -6 1 -7 11 -3 13 5 15 3 9 -7 -5 -9 -4 -11 4 -6 6 4
9 12 6 17 -8 12 -22 12 -30 -1z"/>
<path d="M5625 2251 c1 -9 -2 -22 -8 -28 -5 -7 -6 -13 -2 -13 4 0 1 -8 -6 -17
-12 -16 -12 -17 2 -6 9 7 20 9 24 5 5 -4 5 -2 1 5 -3 6 1 16 10 21 15 8 14 10
-2 17 -18 7 -18 7 0 14 19 7 19 8 -1 13 -15 4 -20 1 -18 -11z"/>
<path d="M1276 2247 c3 -10 9 -15 12 -12 3 3 0 11 -7 18 -10 9 -11 8 -5 -6z"/>
<path d="M5653 2195 c0 -8 4 -12 9 -9 5 3 6 10 3 15 -9 13 -12 11 -12 -6z"/>
<path d="M1365 2071 c-3 -5 -2 -12 3 -15 5 -3 9 1 9 9 0 17 -3 19 -12 6z"/>
<path d="M1355 2010 c-3 -6 1 -7 9 -4 18 7 21 14 7 14 -6 0 -13 -4 -16 -10z"/>
<path d="M1381 1924 c0 -11 3 -14 6 -6 3 7 2 16 -1 19 -3 4 -6 -2 -5 -13z"/>
<path d="M5533 1894 c-3 -8 -3 -18 1 -21 3 -4 6 1 6 10 0 10 5 14 15 11 8 -4
15 -4 15 -1 0 14 -31 15 -37 1z"/>
<path d="M1453 1803 c0 -10 4 -10 16 -1 9 7 18 13 20 15 2 1 -5 1 -16 0 -11 0
-20 -7 -20 -14z"/>
<path d="M1479 1798 c0 -2 -2 -11 -4 -21 -3 -15 -1 -16 11 -6 7 6 11 15 8 20
-5 9 -13 12 -15 7z"/>
<path d="M1497 1763 c-4 -3 -7 -11 -7 -17 0 -6 5 -5 12 2 6 6 9 14 7 17 -3 3
-9 2 -12 -2z"/>
<path d="M5389 1679 c-9 -17 -8 -20 2 -14 9 6 11 3 6 -9 -4 -10 -7 -22 -7 -27
0 -6 -5 -7 -10 -4 -6 4 -7 11 -4 17 4 6 -2 6 -15 -1 -24 -13 -29 -26 -6 -18 8
4 17 2 20 -3 9 -15 34 0 28 17 -5 12 -3 14 6 8 10 -6 11 -3 3 11 -5 11 -7 25
-5 32 8 20 -5 14 -18 -9z"/>
<path d="M5430 1680 c-9 -6 -10 -10 -3 -10 6 0 15 5 18 10 8 12 4 12 -15 0z"/>
<path d="M1594 1529 c-10 -17 4 -23 22 -8 13 11 15 11 14 -2 -5 -35 0 -51 15
-45 9 3 18 -1 21 -9 4 -8 10 -12 16 -9 5 3 0 13 -11 21 -12 8 -19 18 -17 22 8
12 -9 31 -32 36 -12 2 -24 -1 -28 -6z"/>
<path d="M5260 1479 c0 -5 5 -7 10 -4 6 3 10 8 10 11 0 2 -4 4 -10 4 -5 0 -10
-5 -10 -11z"/>
<path d="M5232 1437 c-8 -10 -6 -16 9 -25 18 -12 19 -11 10 6 -6 11 -7 22 -4
26 3 3 4 6 1 6 -3 0 -10 -6 -16 -13z"/>
<path d="M5240 1340 c-9 -6 -10 -10 -3 -10 6 0 15 5 18 10 8 12 4 12 -15 0z"/>
<path d="M5154 1236 c1 -8 5 -18 8 -22 4 -3 5 1 4 10 -1 8 -5 18 -8 22 -4 3
-5 -1 -4 -10z"/>
<path d="M1874 1132 c0 -10 6 -19 13 -19 8 0 9 6 2 19 -5 10 -11 18 -12 18 -2
0 -3 -8 -3 -18z"/>
<path d="M1950 1051 c0 -6 4 -13 10 -16 6 -3 7 1 4 9 -7 18 -14 21 -14 7z"/>
<path d="M4951 1039 c5 -10 12 -19 15 -19 3 0 3 4 0 9 -4 5 -1 11 6 13 7 3 3
7 -10 10 -19 5 -20 4 -11 -13z"/>
<path d="M2045 1000 c-3 -5 1 -10 10 -10 9 0 13 5 10 10 -3 6 -8 10 -10 10 -2
0 -7 -4 -10 -10z"/>
<path d="M2010 981 c0 -6 3 -10 8 -10 22 4 42 -2 37 -11 -6 -9 8 -14 28 -11 4
0 7 -5 7 -11 0 -9 4 -8 11 2 8 12 9 10 7 -10 -2 -20 1 -24 16 -22 11 2 15 -1
11 -7 -3 -6 -1 -19 4 -28 9 -15 10 -12 7 12 -6 53 -16 68 -42 64 -4 0 -11 5
-15 13 -7 11 -9 10 -9 -1 0 -12 -2 -12 -12 1 -16 20 -58 33 -58 19z"/>
<path d="M4919 953 c-13 -16 -12 -17 4 -4 16 13 21 21 13 21 -2 0 -10 -8 -17
-17z"/>
<path d="M2166 891 c-4 -7 -5 -15 -2 -18 9 -9 19 4 14 18 -4 11 -6 11 -12 0z"/>
<path d="M2223 828 c-13 -23 -11 -34 8 -35 25 -2 35 15 14 23 -13 6 -14 8 -3
15 9 6 9 9 1 9 -6 0 -15 -6 -20 -12z m22 -26 c-3 -3 -11 0 -18 7 -9 10 -8 11
6 5 10 -3 15 -9 12 -12z"/>
<path d="M4794 820 c0 -13 4 -16 10 -10 7 7 7 13 0 20 -6 6 -10 3 -10 -10z"/>
<path d="M4656 742 c-2 -4 4 -8 15 -8 10 0 19 4 19 8 0 4 -6 8 -14 8 -8 0 -17
-4 -20 -8z"/>
<path d="M2376 662 c-3 -5 1 -9 9 -9 8 0 12 4 9 9 -3 4 -7 8 -9 8 -2 0 -6 -4
-9 -8z"/>
<path d="M2490 640 c0 -5 5 -10 11 -10 5 0 7 5 4 10 -3 6 -8 10 -11 10 -2 0
-4 -4 -4 -10z"/>
<path d="M4336 518 c3 -5 10 -6 15 -3 13 9 11 12 -6 12 -8 0 -12 -4 -9 -9z"/>
<path d="M4233 495 c0 -8 4 -12 9 -9 4 3 8 9 8 15 0 5 -4 9 -8 9 -5 0 -9 -7
-9 -15z"/>
<path d="M2731 487 c2 -1 13 -9 24 -17 19 -14 19 -14 6 3 -7 9 -18 17 -24 17
-6 0 -8 -1 -6 -3z"/>
<path d="M2788 463 c9 -4 10 -8 2 -18 -8 -10 -6 -13 7 -11 10 0 17 -5 15 -12
-1 -8 2 -11 8 -7 12 7 -17 55 -34 54 -7 0 -6 -3 2 -6z"/>
<path d="M2991 416 c7 -15 15 -23 17 -16 3 7 -3 19 -13 28 -15 16 -16 15 -4
-12z"/>
<path d="M4135 431 c-3 -5 -2 -12 3 -15 5 -3 9 1 9 9 0 17 -3 19 -12 6z"/>
<path d="M3200 401 c-8 -6 -17 -8 -21 -5 -4 2 -9 -2 -12 -9 -3 -8 1 -14 9 -14
8 0 14 4 14 9 0 4 5 8 11 8 5 0 8 -4 5 -8 -2 -4 7 -9 22 -10 l27 -1 -24 13
c-18 10 -20 15 -10 19 8 3 10 6 4 6 -5 0 -17 -3 -25 -8z"/>
<path d="M3751 404 c-1 -13 31 -44 45 -44 5 0 1 5 -9 11 -15 9 -16 13 -5 27
11 15 11 15 -4 4 -13 -10 -17 -10 -21 0 -3 7 -6 8 -6 2z"/>
<path d="M3700 378 c0 -4 7 -8 15 -8 8 0 15 4 15 8 0 5 -7 9 -15 9 -8 0 -15
-4 -15 -9z"/>
<path d="M3242 344 c10 -10 20 -16 22 -13 3 3 -5 11 -17 18 -21 13 -21 12 -5
-5z"/>
<path d="M3435 325 c0 -13 3 -21 8 -18 4 2 7 10 7 18 0 8 -3 16 -7 18 -5 3 -8
-5 -8 -18z"/>
<path d="M3553 343 c4 -6 1 -14 -5 -16 -10 -4 -10 -6 0 -6 7 -1 10 -6 6 -13
-4 -6 -3 -8 4 -5 12 8 10 32 -3 44 -4 4 -5 3 -2 -4z"/>
<path d="M3730 339 c0 -5 5 -7 10 -4 6 3 10 8 10 11 0 2 -4 4 -10 4 -5 0 -10
-5 -10 -11z"/>
<path d="M3380 331 c0 -6 4 -13 10 -16 6 -3 7 1 4 9 -7 18 -14 21 -14 7z"/>
<path d="M3504 298 c10 -6 22 -6 26 -2 5 5 -3 10 -18 11 -22 1 -24 0 -8 -9z"/>
</g>
</svg>
