<?xml version="1.0" standalone="no"?>
<!DOCTYPE svg PUBLIC "-//W3C//DTD SVG 20010904//EN"
 "http://www.w3.org/TR/2001/REC-SVG-20010904/DTD/svg10.dtd">
<svg version="1.0" xmlns="http://www.w3.org/2000/svg"
 width="696.000000pt" height="1280.000000pt" viewBox="0 0 696.000000 1280.000000"
 preserveAspectRatio="xMidYMid meet">
<metadata>
Created by potrace 1.15, written by Peter Selinger 2001-2017
</metadata>
<g transform="translate(0.000000,1280.000000) scale(0.100000,-0.100000)"
fill="#000000" stroke="none">
<path d="M1032 12757 c-23 -23 -42 -47 -42 -53 0 -16 -90 -144 -191 -271 -123
-155 -132 -173 -132 -244 1 -101 27 -123 188 -159 206 -47 418 -136 573 -242
42 -29 131 -107 197 -173 216 -215 375 -459 478 -735 48 -130 72 -225 108
-430 65 -367 47 -727 -58 -1220 -57 -271 -79 -318 -174 -387 -43 -31 -49 -39
-49 -71 0 -53 -44 -255 -75 -347 -14 -43 -46 -109 -70 -146 -25 -38 -54 -87
-65 -108 -11 -22 -33 -49 -50 -61 -43 -31 -399 -196 -462 -215 -267 -78 -419
-148 -548 -252 -132 -106 -282 -262 -350 -365 -112 -169 -210 -396 -244 -563
-52 -264 -83 -884 -56 -1145 6 -52 15 -146 21 -209 5 -64 17 -127 26 -144 12
-24 14 -47 9 -99 -3 -38 -2 -77 3 -86 5 -10 14 -66 19 -126 6 -59 15 -112 20
-119 5 -7 14 -49 21 -94 20 -138 92 -404 115 -425 7 -7 11 -22 8 -35 -8 -43
24 -193 104 -491 80 -297 319 -865 409 -969 20 -23 35 -52 35 -66 0 -14 19
-51 44 -84 60 -79 132 -196 201 -328 106 -200 349 -575 536 -825 120 -161 369
-450 526 -611 68 -69 123 -131 123 -137 0 -11 -7 -14 -80 -32 -25 -6 -74 -24
-110 -40 -36 -15 -101 -43 -144 -61 -50 -20 -93 -46 -114 -68 -33 -34 -92
-142 -92 -168 0 -7 17 -24 37 -38 54 -35 268 -129 361 -159 83 -26 296 -69
397 -81 33 -3 103 -18 155 -31 150 -39 336 -47 925 -40 541 6 771 17 865 41
30 8 168 39 305 70 429 95 460 113 405 234 -11 24 -20 49 -20 56 0 19 -115
122 -163 147 -23 11 -57 31 -77 44 -19 13 -77 39 -129 58 -52 19 -98 40 -101
47 -12 19 0 45 41 88 21 22 39 46 39 53 0 7 29 47 65 87 36 41 65 80 65 86 0
7 26 43 58 81 164 197 493 723 734 1174 69 130 158 290 198 355 81 136 250
473 250 499 0 9 7 19 15 23 20 7 44 54 47 89 2 14 10 30 20 35 10 5 18 18 18
28 0 10 13 43 30 74 17 31 30 68 30 82 0 14 5 25 10 25 13 0 29 40 41 104 5
27 15 57 23 65 7 9 16 31 19 49 7 33 52 147 113 282 34 76 64 183 64 232 0 14
12 48 26 76 17 32 33 96 49 188 14 76 34 177 45 224 34 139 70 460 70 621 0
55 4 89 13 98 20 20 16 516 -6 726 l-18 170 35 175 c58 289 84 483 126 966 74
854 82 1073 84 2119 1 823 -5 980 -44 1075 -10 25 -21 74 -24 110 -3 36 -17
103 -31 150 -31 99 -66 234 -88 340 -43 209 -237 670 -311 739 -15 14 -26 32
-26 41 0 22 -93 183 -146 251 -73 96 -196 203 -281 246 -43 22 -104 54 -135
72 -79 44 -228 80 -387 92 -235 19 -368 -9 -588 -126 -143 -76 -215 -126 -307
-214 -225 -217 -375 -496 -425 -789 l-18 -107 -34 3 c-108 8 -228 5 -264 -7
-55 -18 -102 -65 -120 -121 -8 -25 -26 -111 -40 -191 -13 -80 -34 -174 -45
-210 -23 -75 -26 -132 -6 -148 8 -6 26 -51 41 -99 14 -48 31 -99 37 -115 16
-40 64 -77 102 -77 21 0 40 -8 55 -24 30 -32 91 -174 91 -214 0 -41 -21 -91
-49 -116 -21 -19 -21 -19 -83 49 -168 182 -159 174 -221 190 -70 18 -148 50
-199 82 -28 17 -40 33 -49 65 -74 279 -331 809 -495 1024 -30 39 -54 76 -54
82 0 43 -524 586 -700 725 -192 153 -436 298 -601 358 -84 31 -347 88 -404 89
-23 0 -41 -11 -73 -43z m98 -13 c0 -3 -26 -40 -58 -82 -32 -42 -78 -104 -102
-136 -24 -33 -45 -55 -48 -48 -5 17 86 167 136 223 38 42 72 63 72 43z m278
-30 c152 -50 430 -200 601 -322 90 -64 283 -236 429 -382 297 -295 557 -689
752 -1135 88 -203 143 -364 133 -392 -8 -22 -42 -14 -59 12 -9 13 -38 89 -66
167 -28 79 -88 226 -135 328 -141 311 -250 493 -420 705 -308 384 -891 831
-1193 914 -87 24 -205 27 -254 7 -42 -18 -100 -77 -172 -180 -94 -132 -162
-214 -185 -221 -63 -20 -37 60 53 162 66 75 91 110 171 235 60 93 143 143 225
133 23 -2 77 -16 120 -31z m4072 -94 c0 -13 -38 -32 -51 -25 -14 10 9 35 32
35 11 0 19 -4 19 -10z m-4115 -40 c-3 -5 -17 -10 -31 -10 -13 0 -24 5 -24 10
0 6 14 10 31 10 17 0 28 -4 24 -10z m123 -29 c3 -8 -1 -12 -9 -9 -7 2 -15 10
-17 17 -3 8 1 12 9 9 7 -2 15 -10 17 -17z m4101 -27 c-64 -67 -117 -81 -145
-39 -21 32 -10 65 22 65 13 0 24 -4 24 -10 0 -15 41 -12 70 5 14 8 34 14 44
15 17 0 14 -6 -15 -36z m149 -10 c30 -21 18 -36 -27 -32 l-36 3 3 -47 c2 -40
0 -47 -19 -53 -21 -7 -109 2 -109 11 0 3 15 20 33 37 17 18 40 47 49 65 14 26
23 32 50 32 19 0 44 -7 56 -16z m217 -33 c61 -29 104 -65 91 -78 -3 -4 -40 11
-81 32 -71 36 -75 37 -99 22 -13 -9 -34 -34 -47 -56 -15 -28 -30 -41 -47 -43
-20 -2 -28 -11 -34 -35 -7 -26 -14 -33 -32 -33 -13 0 -29 7 -37 16 -11 14 -7
21 29 54 23 22 42 46 42 54 0 22 100 95 130 95 14 1 52 -12 85 -28z m-567 7
c18 -18 15 -48 -6 -48 -28 0 -43 20 -31 42 11 21 20 23 37 6z m-398 -79 c0
-10 -4 -19 -9 -19 -10 0 -21 36 -14 44 10 10 23 -5 23 -25z m-3164 -57 c-9 -9
-37 8 -31 18 5 8 11 7 21 -1 8 -6 12 -14 10 -17z m3464 -1 c0 -5 -12 -13 -27
-19 -76 -29 -95 -25 -40 8 33 21 67 26 67 11z m865 -11 c10 -11 15 -23 12 -26
-11 -12 -56 6 -67 26 -9 17 -8 20 13 20 13 0 32 -9 42 -20z m-312 -35 c7 -18
-9 -29 -30 -21 -12 5 -13 9 -3 21 16 19 26 19 33 0z m-4913 -131 c0 -12 -35
-33 -55 -33 -18 -1 -18 1 5 19 25 19 50 26 50 14z m4687 -36 c39 -14 102 -46
140 -71 87 -59 251 -206 315 -283 64 -77 185 -322 239 -484 22 -69 47 -135 55
-147 8 -13 12 -33 8 -47 -3 -13 6 -79 20 -147 14 -68 30 -186 36 -263 6 -76
17 -186 25 -245 58 -419 40 -1750 -31 -2291 -28 -212 -33 -264 -59 -548 -25
-276 -33 -323 -54 -336 -6 -4 -50 33 -98 82 -104 104 -283 227 -446 307 -125
60 -187 81 -362 121 -105 24 -127 33 -175 70 -63 48 -102 69 -146 78 -35 8
-69 41 -104 101 -13 22 -39 60 -57 84 -18 25 -40 68 -48 96 -9 28 -30 87 -49
131 -42 101 -62 181 -79 321 -12 101 -16 115 -41 138 -66 61 -187 408 -221
630 -17 117 -20 296 -4 381 6 32 23 100 39 149 54 171 59 310 23 640 -21 182
-23 481 -5 585 29 166 82 325 164 500 44 92 61 115 132 185 124 121 276 221
416 272 58 21 78 23 180 20 90 -3 131 -10 187 -29z m-547 -3 c0 -8 -7 -15 -15
-15 -16 0 -20 12 -8 23 11 12 23 8 23 -8z m-4247 -32 c-7 -2 -19 -2 -25 0 -7
3 -2 5 12 5 14 0 19 -2 13 -5z m217 -16 c0 -23 -17 -47 -32 -47 -11 0 -10 28
2 51 14 26 30 24 30 -4z m5208 5 c2 -7 -3 -12 -12 -12 -9 0 -16 7 -16 16 0 17
22 14 28 -4z m62 3 c0 -8 -4 -15 -9 -15 -5 0 -11 7 -15 15 -3 9 0 15 9 15 8 0
15 -7 15 -15z m-119 -41 c12 -14 11 -16 -5 -13 -11 2 -21 10 -24 17 -5 17 13
15 29 -4z m-4951 -14 c0 -16 -40 -52 -53 -47 -20 6 -13 31 13 44 30 15 40 16
40 3z m4726 -31 c11 -18 -13 -34 -31 -19 -8 7 -15 16 -15 21 0 13 38 11 46 -2z
m439 -9 c0 -18 -33 -26 -47 -12 -6 6 -7 15 -3 22 10 16 50 8 50 -10z m-5136
-46 c-14 -18 -24 -11 -15 11 3 9 11 13 16 10 8 -5 7 -11 -1 -21z m5041 -44 c0
-11 -4 -20 -9 -20 -11 0 -22 26 -14 34 12 12 23 5 23 -14z m154 -7 c4 -9 2
-21 -4 -27 -13 -13 -44 4 -48 28 -5 22 44 22 52 -1z m-344 -39 c0 -14 -21 -19
-33 -7 -9 9 13 34 24 27 5 -3 9 -12 9 -20z m380 -65 c0 -20 -15 -26 -25 -9 -9
15 3 43 15 35 5 -3 10 -15 10 -26z m-4942 -12 c2 -10 -3 -17 -12 -17 -10 0
-16 9 -16 21 0 24 23 21 28 -4z m4825 -46 c19 -43 12 -77 -10 -49 -17 22 -52
106 -46 112 11 10 36 -18 56 -63z m-188 29 c0 -18 -33 -26 -47 -12 -6 6 -7 15
-3 22 10 16 50 8 50 -10z m-4579 -31 c10 -17 -13 -36 -27 -22 -12 12 -4 33 11
33 5 0 12 -5 16 -11z m4913 -22 c13 -17 5 -27 -24 -27 -21 0 -45 17 -45 32 0
13 57 9 69 -5z m-296 -42 c-3 -13 -53 -20 -53 -7 0 15 13 23 35 20 11 -2 19
-7 18 -13z m-4503 -14 c0 -11 -25 -21 -51 -21 -19 0 -25 11 -12 23 10 10 63 8
63 -2z m4810 -73 c0 -30 -25 -15 -28 17 -3 25 -2 27 12 16 9 -8 16 -22 16 -33z
m-4770 6 c0 -8 -9 -14 -20 -14 -22 0 -28 26 -7 33 16 6 27 -1 27 -19z m845 5
c0 -8 -10 -15 -22 -17 -25 -4 -30 7 -11 26 15 15 33 10 33 -9z m3655 -5 c0 -8
-7 -14 -15 -14 -15 0 -21 21 -9 33 10 9 24 -2 24 -19z m-3582 -91 c-4 -22 -22
-20 -26 1 -2 10 3 16 13 16 10 0 15 -7 13 -17z m-770 -61 c3 -9 -3 -13 -19
-10 -12 1 -24 9 -27 16 -3 9 3 13 19 10 12 -1 24 -9 27 -16z m4657 -39 c-7
-28 -51 -73 -71 -73 -24 0 -15 28 15 49 15 11 34 35 42 53 10 25 14 29 17 15
2 -10 1 -30 -3 -44z m-97 25 c-6 -18 -28 -21 -28 -4 0 9 7 16 16 16 9 0 14 -5
12 -12z m-2468 -28 c0 -13 -10 -24 -25 -30 -20 -7 -25 -16 -25 -42 0 -32 11
-106 26 -175 4 -23 3 -33 -5 -33 -27 0 -68 156 -56 210 7 31 55 90 74 90 6 0
11 -9 11 -20z m-115 -75 c8 -79 0 -134 -15 -119 -24 24 -23 194 0 194 4 0 11
-34 15 -75z m187 -6 c-6 -112 11 -185 48 -204 27 -14 29 -13 35 5 3 11 3 40 0
64 -4 24 -4 59 0 78 8 33 8 33 17 8 5 -14 13 -79 18 -145 5 -66 16 -149 24
-185 17 -73 21 -200 6 -200 -10 0 -16 21 -24 89 -3 30 -12 50 -26 61 -13 10
-29 42 -40 81 -18 62 -18 63 -25 31 -9 -39 -20 -48 -30 -24 -8 22 -45 294 -45
337 0 25 31 85 44 85 2 0 1 -36 -2 -81z m-1307 61 c3 -6 -4 -10 -17 -10 -18 0
-20 2 -8 10 19 12 18 12 25 0z m1361 -97 c-9 -133 -30 -152 -24 -22 5 90 11
119 25 119 3 0 3 -44 -1 -97z m-316 46 c0 -16 -4 -29 -10 -29 -12 0 -24 45
-15 60 11 18 25 1 25 -31z m-1094 10 c10 -17 -13 -36 -27 -22 -12 12 -4 33 11
33 5 0 12 -5 16 -11z m1283 -106 c0 -42 -3 -52 -9 -38 -12 28 -12 95 0 95 6 0
10 -25 9 -57z m2486 28 c0 -13 -8 -29 -17 -35 -14 -9 -23 -6 -44 16 -33 32
-24 50 24 46 31 -3 37 -7 37 -27z m-3657 -23 c-6 -18 -28 -21 -28 -4 0 9 7 16
16 16 9 0 14 -5 12 -12z m-775 -35 c-7 -2 -19 -2 -25 0 -7 3 -2 5 12 5 14 0
19 -2 13 -5z m1762 -33 c7 0 33 -16 57 -36 23 -20 62 -45 86 -55 45 -20 57
-49 20 -49 -13 0 -61 14 -108 31 -47 17 -100 33 -117 36 -36 6 -38 9 -24 47
10 24 34 37 59 30 8 -2 20 -4 27 -4z m2925 -40 c0 -25 -18 -36 -26 -16 -8 21
3 49 16 41 5 -3 10 -15 10 -25z m-3830 -10 c0 -12 -33 -30 -54 -30 -24 0 -19
19 7 30 30 12 47 12 47 0z m-804 -11 c11 -18 -13 -34 -31 -19 -8 7 -15 16 -15
21 0 13 38 11 46 -2z m1740 -79 c165 -29 163 -29 179 -67 9 -20 33 -55 54 -78
29 -31 46 -65 65 -123 23 -74 53 -288 42 -299 -4 -4 -64 -13 -161 -23 -5 -1 1
-6 14 -11 22 -9 23 -13 17 -56 -10 -73 -37 -95 -54 -43 -6 16 -22 45 -36 63
-15 19 -26 46 -26 61 0 15 -7 29 -15 32 -24 10 -17 33 12 40 24 6 25 8 9 20
-26 18 -13 31 52 51 l57 18 -45 3 c-69 5 -101 -5 -159 -48 -80 -60 -119 -52
-65 13 l27 32 -32 6 c-66 14 -51 36 30 45 61 7 83 24 60 47 -6 6 -43 13 -83
16 -68 6 -73 8 -77 31 -1 14 -12 37 -22 51 -24 34 -24 39 1 39 17 0 20 7 20
41 0 36 2 40 15 29 9 -8 15 -30 15 -56 0 -24 4 -44 9 -44 10 0 51 79 51 98 0
22 29 24 79 6 41 -14 52 -15 65 -4 12 9 13 16 5 26 -13 16 -98 48 -151 58 -24
4 -38 13 -38 21 0 18 8 18 86 5z m-860 -25 c-21 -16 -86 -21 -86 -7 0 17 14
22 59 22 43 -1 45 -2 27 -15z m3794 -81 c0 -14 -21 -19 -33 -7 -9 9 13 34 24
27 5 -3 9 -12 9 -20z m-3759 -25 c11 -5 17 -14 14 -20 -8 -12 -82 -12 -90 1
-17 27 36 41 76 19z m1357 -61 c-3 -7 -11 -13 -18 -13 -7 0 -15 6 -17 13 -3 7
4 12 17 12 13 0 20 -5 18 -12z m2437 -19 c4 -5 4 -22 0 -37 -5 -20 -8 -23 -16
-11 -12 19 -12 59 0 59 6 0 13 -5 16 -11z m-3735 -19 c0 -14 -43 -30 -54 -20
-4 5 -5 13 -2 19 9 14 56 14 56 1z m3658 -71 l-4 -34 -12 29 c-14 33 -8 66 9
49 6 -6 9 -26 7 -44z m-2471 -61 c-2 -13 -4 -5 -4 17 -1 22 1 32 4 23 2 -10 2
-28 0 -40z m63 -98 c0 -38 14 -62 22 -38 6 18 38 1 38 -20 0 -11 -10 -31 -21
-46 -30 -38 -11 -57 27 -27 28 22 44 27 44 12 0 -16 -105 -90 -114 -81 -15 15
-21 255 -7 246 6 -4 11 -25 11 -46z m-1170 -5 c0 -9 -9 -15 -25 -15 -16 0 -25
6 -25 15 0 9 9 15 25 15 16 0 25 -6 25 -15z m3688 -2 c2 -8 -5 -13 -17 -13
-21 0 -35 13 -24 24 10 10 36 3 41 -11z m-2568 -77 c0 -33 -42 -90 -68 -94
-12 -2 -22 -1 -22 1 0 3 16 28 35 57 19 29 35 56 35 62 0 5 5 6 10 3 6 -3 10
-16 10 -29z m-1100 -16 c0 -12 -27 -20 -66 -20 -42 0 -37 16 9 28 33 9 57 6
57 -8z m200 -66 c82 -24 265 -119 312 -162 77 -69 322 -387 424 -548 29 -47
60 -108 70 -137 9 -29 23 -59 31 -67 12 -13 15 -13 24 0 22 34 -17 133 -96
245 -74 105 -94 165 -60 179 8 3 15 14 15 24 0 10 8 26 19 36 10 9 26 34 36
56 36 81 75 36 95 -110 13 -95 23 -114 45 -84 18 24 51 125 59 183 9 61 53
141 78 141 15 0 8 -100 -22 -303 -47 -319 -68 -403 -127 -522 -58 -117 -99
-147 -158 -119 -45 21 -145 127 -145 153 0 12 -25 68 -55 126 -66 127 -106
218 -152 349 -53 152 -75 189 -130 221 -26 16 -70 52 -99 80 -58 59 -156 112
-225 121 -37 5 -60 0 -124 -25 -78 -32 -105 -34 -105 -8 0 23 44 57 100 75 79
25 80 46 1 37 -101 -12 -67 28 51 59 69 19 75 19 138 0z m758 -38 c4 -21 -17
-76 -29 -76 -10 0 -12 60 -3 85 8 20 28 14 32 -9z m341 -35 c8 -5 11 -16 8
-25 -5 -13 -11 -15 -26 -7 -26 14 -35 41 -13 41 9 0 23 -4 31 -9z m-231 -33
c3 -25 0 -28 -24 -28 -15 0 -36 -7 -46 -17 -25 -23 -24 2 2 45 26 42 63 42 68
0z m-1904 -44 c16 -6 23 -34 9 -34 -11 1 -43 26 -43 34 0 8 14 8 34 0z m1746
-24 c0 -5 -10 -10 -22 -10 -19 0 -20 2 -8 10 19 13 30 13 30 0z m190 -32 c0
-10 -4 -18 -9 -18 -11 0 -19 30 -13 49 4 11 6 11 13 0 5 -8 9 -22 9 -31z
m-924 17 c16 -13 17 -16 4 -25 -16 -11 -105 -8 -118 4 -12 12 30 36 63 36 17
0 40 -7 51 -15z m872 -34 c3 -16 -1 -22 -10 -19 -7 3 -15 15 -16 27 -3 16 1
22 10 19 7 -3 15 -15 16 -27z m-55 -6 c4 -8 2 -17 -3 -20 -6 -4 -10 3 -10 14
0 25 6 27 13 6z m172 -33 c-15 -22 -29 -59 -32 -82 -6 -43 -18 -59 -35 -42
-16 16 10 90 49 133 44 49 53 44 18 -9z m-1359 7 c3 -6 2 -15 -2 -19 -12 -12
-38 5 -30 19 9 14 23 14 32 0z m189 -19 c3 -5 -10 -26 -28 -47 -46 -51 -57
-75 -57 -122 0 -52 8 -71 30 -71 14 0 23 -14 34 -54 9 -30 24 -62 33 -71 23
-24 101 -16 183 19 84 36 97 37 118 3 16 -26 16 -29 -7 -71 -42 -80 -61 -91
-155 -91 -75 0 -90 3 -151 35 -83 42 -127 98 -151 190 -26 102 -1 227 54 270
26 21 86 27 97 10z m323 -8 c3 -9 -2 -13 -14 -10 -9 1 -19 9 -22 16 -3 9 2 13
14 10 9 -1 19 -9 22 -16z m449 -56 c-8 -19 -37 -21 -37 -3 0 7 5 18 12 25 15
15 33 -1 25 -22z m2945 -8 c-9 -9 -12 -7 -12 12 0 19 3 21 12 12 9 -9 9 -15 0
-24z m-2909 -47 c-3 -12 -11 -20 -17 -18 -16 5 -19 36 -5 53 10 13 14 13 20 1
5 -7 5 -23 2 -36z m-661 -49 c-2 -13 3 -25 12 -28 20 -8 21 -50 2 -57 -22 -9
-56 21 -56 49 0 33 18 66 33 61 7 -2 11 -14 9 -25z m268 -116 c-12 -12 -14 84
-2 124 5 18 8 5 10 -44 2 -39 -2 -74 -8 -80z m3326 113 c10 -17 -13 -36 -27
-22 -12 12 -4 33 11 33 5 0 12 -5 16 -11z m-4576 -39 c8 -5 11 -12 7 -16 -4
-4 -15 0 -24 9 -18 18 -8 23 17 7z m1191 -63 c-8 -8 -11 -5 -11 9 0 27 14 41
18 19 2 -9 -1 -22 -7 -28z m29 -107 c0 -10 -5 -22 -10 -25 -13 -8 -24 20 -16
41 8 20 26 9 26 -16z m-110 -179 c0 -12 -20 -25 -27 -18 -7 7 6 27 18 27 5 0
9 -4 9 -9z m-132 -33 c16 -16 15 -28 -2 -28 -17 0 -38 24 -29 33 9 10 17 9 31
-5z m240 -45 c5 -18 -20 -16 -44 2 -18 15 -18 15 10 13 16 -2 31 -9 34 -15z
m-122 -34 c3 -6 1 -16 -4 -21 -13 -13 -45 8 -36 23 7 12 31 11 40 -2z m102
-21 c-6 -18 -28 -21 -28 -4 0 9 7 16 16 16 9 0 14 -5 12 -12z m885 -23 c1 -5
-6 -11 -15 -13 -11 -2 -18 3 -18 13 0 17 30 18 33 0z m-1064 -41 c-14 -18 -24
-11 -15 11 3 9 11 13 16 10 8 -5 7 -11 -1 -21z m299 -1 c5 -10 12 -34 16 -53
3 -19 16 -44 28 -57 l21 -23 -40 0 c-24 0 -46 6 -53 15 -10 13 -9 15 8 15 20
0 21 1 7 48 -8 26 -15 53 -15 60 0 18 18 15 28 -5z m116 -25 c-3 -5 -12 -4
-20 3 -7 6 -11 15 -8 21 3 5 12 4 20 -3 7 -6 11 -15 8 -21z m631 7 c-35 -16
-55 -19 -55 -7 0 16 14 22 49 21 l36 -1 -30 -13z m-510 -5 c3 -6 -4 -10 -17
-10 -18 0 -20 2 -8 10 19 12 18 12 25 0z m3015 -17 c0 -5 -4 -15 -10 -23 -11
-18 -25 -7 -17 15 6 15 27 21 27 8z m-3545 -33 c0 -7 -6 -15 -12 -17 -8 -3
-13 4 -13 17 0 13 5 20 13 18 6 -3 12 -11 12 -18z m439 14 c25 -10 19 -34 -8
-34 -27 0 -41 14 -31 30 7 12 17 12 39 4z m619 -3 c13 -5 27 -17 30 -25 15
-38 -16 -57 -117 -71 -45 -6 -49 -5 -37 9 8 9 39 24 70 33 l56 18 -48 5 c-71
8 -65 25 15 39 4 0 18 -3 31 -8z m-873 -21 c13 -9 13 -11 0 -20 -8 -5 -22 -8
-30 -5 -8 2 -27 7 -42 11 -16 3 -28 10 -28 15 0 12 81 11 100 -1z m405 1 c3
-5 1 -12 -5 -16 -13 -8 -50 3 -50 16 0 12 47 12 55 0z m-107 -74 c-25 -21 -26
-23 -10 -34 13 -9 -4 -12 -88 -12 -95 -1 -146 8 -124 22 5 2 39 8 76 11 38 4
72 14 79 22 6 8 29 14 53 14 l41 -1 -27 -22z m192 13 c24 -15 4 -23 -60 -22
-63 1 -84 7 -75 23 8 12 116 12 135 -1z m-460 -25 c0 -10 -11 -15 -35 -15 -24
0 -35 5 -35 15 0 10 11 15 35 15 24 0 35 -5 35 -15z m900 -33 c0 -15 5 -33 12
-40 8 -8 4 -14 -17 -24 l-29 -13 30 -5 c33 -6 77 -71 59 -89 -6 -6 -100 -13
-210 -16 -231 -6 -241 9 -16 26 74 6 142 14 150 19 22 13 -162 13 -289 0 -99
-11 -151 -6 -134 10 5 5 86 14 179 20 94 7 179 15 190 19 26 10 -174 24 -220
15 -37 -7 -200 5 -177 13 20 7 14 33 -10 43 -19 7 -13 9 27 9 38 1 46 -2 37
-11 -27 -27 -10 -31 121 -25 158 8 217 16 217 29 0 7 -37 8 -100 3 -72 -5
-100 -4 -100 4 0 17 20 22 122 31 165 13 158 14 158 -18z m-607 -58 c48 -6 60
-11 67 -30 5 -12 17 -27 27 -33 16 -9 16 -12 3 -21 -21 -14 -25 -13 -57 14
-34 28 -52 32 -208 46 -156 14 -195 20 -195 33 0 10 247 4 363 -9z m-638 -44
c0 -18 -33 -26 -47 -12 -6 6 -7 15 -3 22 10 16 50 8 50 -10z m307 -19 c59 -7
79 -31 26 -31 -35 0 -106 15 -115 23 -10 10 8 26 22 20 9 -3 38 -8 67 -12z
m271 -7 c53 -11 15 -24 -67 -24 -60 0 -87 4 -95 14 -10 11 -8 15 6 19 19 6
108 0 156 -9z m-82 -69 c0 -5 -9 -11 -21 -13 -20 -3 -27 8 -13 22 10 9 34 3
34 -9z m153 9 c33 -13 14 -24 -38 -24 -51 0 -74 9 -59 24 8 8 76 8 97 0z m146
-9 c11 -13 5 -15 -41 -15 -52 1 -53 1 -29 15 33 19 55 19 70 0z m-1835 -16
c12 -19 -3 -22 -27 -5 l-22 16 21 0 c12 0 25 -5 28 -11z m1308 -4 c-4 -15 -36
-12 -41 3 -3 9 3 13 19 10 13 -1 23 -7 22 -13z m125 -3 c3 -10 -7 -12 -39 -10
-24 2 -44 9 -47 16 -3 10 7 12 39 10 24 -2 44 -9 47 -16z m934 -4 c-18 -18
-101 -27 -312 -33 -218 -6 -220 5 -4 29 169 18 332 20 316 4z m-635 -39 c22
-8 24 -12 13 -19 -21 -13 -77 -12 -103 2 -21 11 -21 11 -2 19 29 11 60 11 92
-2z m-147 -9 c20 -12 5 -17 -95 -27 -105 -10 -108 -10 -112 3 -8 25 172 46
207 24z m-260 -7 c0 -5 -4 -15 -10 -23 -11 -18 -25 -7 -17 15 6 15 27 21 27 8z
m1066 -12 c-8 -13 -57 -20 -239 -36 -186 -17 -297 -19 -297 -6 0 13 41 22 160
36 124 15 384 19 376 6z m-766 -51 c25 -16 1 -25 -65 -25 -35 0 -67 4 -71 8
-14 14 19 27 71 27 28 0 57 -4 65 -10z m128 3 c-10 -2 -26 -2 -35 0 -10 3 -2
5 17 5 19 0 27 -2 18 -5z m-600 -22 c3 -8 -1 -12 -9 -9 -7 2 -15 10 -17 17 -3
8 1 12 9 9 7 -2 15 -10 17 -17z m1276 0 c30 -33 17 -55 -39 -67 -28 -7 -73
-13 -101 -13 -47 -1 -52 1 -58 24 -8 30 -26 33 -33 6 -5 -20 -31 -31 -73 -31
-24 1 -25 1 -5 16 36 27 0 35 -119 28 -72 -5 -107 -3 -103 3 10 16 290 49 433
52 68 1 84 -2 98 -18z m-1084 -13 c0 -12 10 -32 22 -45 l21 -23 -21 0 c-14 0
-29 12 -42 33 -25 41 -25 57 0 57 14 0 20 -7 20 -22z m117 6 c2 -6 -3 -14 -12
-18 -20 -7 -58 11 -49 25 8 13 56 7 61 -7z m-1591 -39 c18 -14 18 -14 -8 -15
-32 0 -58 9 -58 21 0 14 44 10 66 -6z m1054 0 c0 -8 -7 -15 -15 -15 -9 0 -12
6 -9 15 4 8 10 15 15 15 5 0 9 -7 9 -15z m886 0 c3 -8 21 -17 40 -21 19 -3 33
-11 31 -18 -6 -19 -57 -19 -78 0 -17 15 -34 16 -152 10 -73 -3 -146 -10 -163
-15 -31 -9 -54 -5 -54 9 0 20 165 46 303 49 51 1 69 -3 73 -14z m-1694 -30
c-1 -13 6 -24 19 -30 28 -13 30 -29 3 -33 -14 -2 -29 7 -44 25 -12 15 -34 36
-48 46 l-27 18 50 -3 c44 -3 50 -6 47 -23z m941 18 c-7 -2 -21 -2 -30 0 -10 3
-4 5 12 5 17 0 24 -2 18 -5z m217 -3 c0 -6 -7 -13 -15 -16 -20 -8 -48 3 -40
16 8 13 55 13 55 0z m-1292 -28 c2 -7 -3 -12 -12 -12 -9 0 -16 7 -16 16 0 17
22 14 28 -4z m467 -12 c315 -31 538 -40 974 -40 399 0 684 10 871 31 219 24
200 24 200 2 0 -27 -15 -38 -78 -57 -111 -32 -300 -40 -962 -40 -593 0 -662 2
-860 22 -275 28 -334 39 -356 63 -9 10 -25 19 -36 19 -10 0 -18 7 -18 16 0 13
7 15 33 10 17 -3 122 -15 232 -26z m1570 20 c-29 -12 -98 -12 -90 0 3 6 30 10
58 9 38 0 47 -3 32 -9z m2581 -111 c10 -17 -13 -36 -27 -22 -12 12 -4 33 11
33 5 0 12 -5 16 -11z m-2130 -18 c-7 -11 -94 -31 -133 -31 -18 0 -24 3 -17 10
21 21 162 40 150 21z m-226 -30 c0 -18 -174 -29 -185 -12 -6 10 36 17 128 19
31 1 57 -2 57 -7z m-2190 -24 c0 -22 -16 -47 -31 -47 -12 0 -17 36 -7 54 13
24 38 20 38 -7z m158 1 c-3 -7 -11 -13 -18 -13 -7 0 -15 6 -17 13 -3 7 4 12
17 12 13 0 20 -5 18 -12z m1717 3 c25 -10 -290 -29 -325 -20 l-25 6 25 7 c60
14 292 19 325 7z m-2115 -16 c0 -10 -11 -15 -35 -15 -24 0 -35 5 -35 15 0 10
11 15 35 15 24 0 35 -5 35 -15z m615 -18 c27 -21 9 -37 -40 -37 -45 0 -61 11
-51 35 7 19 66 20 91 2z m2043 -79 c3 -84 2 -88 -19 -88 -16 0 -20 -4 -14 -17
4 -10 12 -44 18 -75 14 -77 2 -107 -42 -100 -17 2 -31 1 -31 -3 0 -16 43 -76
60 -85 36 -19 50 -2 50 60 0 66 17 91 42 62 8 -9 32 -43 51 -74 39 -61 52 -69
72 -41 11 15 15 15 29 4 25 -21 4 -37 -72 -55 -121 -29 -194 -36 -497 -47
-304 -12 -1367 -5 -1509 9 -83 8 -103 27 -69 64 12 13 23 34 25 48 2 20 9 26
37 28 59 6 75 -4 104 -63 15 -30 32 -55 38 -55 25 0 81 44 105 81 14 23 32 39
43 39 11 0 28 3 38 7 16 6 15 8 -7 13 -35 8 -34 44 2 48 31 4 92 -52 114 -104
14 -34 57 -64 91 -64 13 0 29 20 51 65 23 48 38 66 57 71 31 8 67 -21 95 -76
26 -50 53 -72 87 -68 31 3 55 42 70 113 6 32 13 41 32 43 20 3 40 -12 101 -77
64 -69 80 -81 107 -81 37 0 48 14 58 80 3 25 9 53 11 63 6 20 44 23 62 5 17
-17 16 4 -7 87 -21 76 -16 95 24 95 42 0 75 -68 75 -158 0 -36 -4 -44 -25 -54
-32 -14 -34 -59 -4 -89 19 -19 23 -19 36 -6 8 8 18 42 22 76 4 33 9 63 12 65
10 10 27 -11 59 -71 45 -87 83 -97 96 -25 15 89 24 112 46 112 19 0 20 3 13
73 -11 112 -11 120 2 124 17 6 69 -79 88 -144 14 -49 37 -75 52 -60 10 10 4
100 -10 147 -9 33 -19 46 -36 50 -46 11 -83 87 -56 114 21 21 55 4 55 -27 0
-34 21 -56 58 -63 l34 -7 -7 46 c-10 66 -3 79 42 75 l38 -3 3 -87z m-2537 48
c13 -27 -4 -70 -24 -63 -16 5 -15 43 1 40 17 -4 15 7 -5 29 -15 17 -15 18 1
18 9 0 21 -11 27 -24z m247 -11 c3 -42 -11 -63 -32 -46 -16 14 -22 62 -9 75
16 15 38 0 41 -29z m567 10 c0 -17 -8 -20 -60 -23 -66 -2 -91 7 -82 32 6 14
19 16 74 14 60 -3 68 -5 68 -23z m289 19 c37 -14 13 -73 -44 -109 -29 -18 -37
-29 -33 -45 9 -33 -23 -24 -53 15 -20 27 -25 42 -20 65 4 21 2 30 -7 30 -22 0
-51 26 -43 38 8 13 171 17 200 6z m1124 -49 c2 -34 -2 -57 -13 -70 -15 -20
-15 -20 -35 3 -21 26 -36 83 -26 108 4 10 16 14 38 12 32 -3 33 -5 36 -53z
m-2388 15 c0 -13 -37 -13 -45 0 -3 6 -3 15 0 20 7 12 45 -5 45 -20z m1516 20
c24 0 16 -53 -16 -103 -16 -26 -33 -47 -38 -47 -31 0 -88 102 -76 135 6 16 46
24 88 19 16 -2 35 -4 42 -4z m282 -4 c12 -12 -42 -100 -70 -116 -26 -14 -29
-13 -48 6 -14 13 -22 35 -23 64 -2 39 1 45 23 51 28 9 107 5 118 -5z m236 1
c16 -12 16 -18 4 -67 -9 -37 -19 -56 -30 -58 -22 -4 -80 74 -76 102 5 31 71
46 102 23z m194 -71 c2 -44 -1 -83 -6 -88 -13 -13 -48 25 -78 84 -38 75 -32
89 41 85 l40 -2 3 -79z m-1688 -7 c0 -11 -9 -21 -24 -25 -47 -11 -63 23 -24
50 25 18 48 6 48 -25z m110 22 c13 -25 -1 -35 -36 -27 -23 6 -32 25 -17 39 13
14 43 7 53 -12z m-685 -9 c0 -18 -20 -15 -23 4 -3 10 1 15 10 12 7 -3 13 -10
13 -16z m956 8 c27 -15 24 -45 -7 -69 -25 -20 -51 -20 -39 -1 3 5 -8 16 -25
25 -36 18 -38 32 -7 45 30 12 55 12 78 0z m993 -50 c94 -102 105 -194 30 -259
-42 -38 -61 -32 -98 32 -29 49 -59 188 -50 229 5 25 37 58 55 58 4 0 32 -27
63 -60z m-1154 30 c0 -27 -27 -37 -47 -17 -20 19 -9 37 23 37 17 0 24 -5 24
-20z m2025 -33 c31 -71 66 -187 60 -198 -9 -14 -30 0 -49 31 -23 40 -66 167
-66 197 0 42 30 26 55 -30z m-1157 27 c39 -27 56 -73 56 -155 1 -90 -10 -109
-63 -109 -54 0 -92 43 -99 109 -6 65 4 113 29 145 23 30 45 33 77 10z m-1323
-24 c0 -22 -39 -19 -43 3 -3 15 1 18 20 15 12 -2 23 -10 23 -18z m1064 4 c45
-32 61 -102 41 -176 -15 -51 -35 -68 -80 -68 -74 0 -118 90 -85 175 17 46 56
85 84 85 9 0 27 -7 40 -16z m3525 -16 c12 -47 7 -78 -13 -78 -21 0 -31 19 -31
59 0 45 33 59 44 19z m-3812 -16 c13 -13 1 -32 -20 -32 -11 0 -4 -8 16 -20 51
-31 36 -45 -50 -48 -55 -2 -78 1 -87 11 -13 17 -2 29 44 45 17 6 23 11 14 11
-37 2 -44 42 -9 53 19 6 79 -7 92 -20z m1256 -24 c13 -26 26 -74 29 -107 6
-58 5 -60 -21 -67 -41 -10 -72 17 -86 76 -19 81 0 155 39 148 9 -2 27 -24 39
-50z m-2397 27 c-1 -15 -24 -12 -29 3 -3 9 2 13 12 10 10 -1 17 -7 17 -13z
m209 -6 c-7 -11 -14 -18 -17 -15 -8 8 5 36 17 36 7 0 7 -6 0 -21z m401 -10 c5
-8 2 -20 -7 -30 -9 -10 -14 -25 -12 -36 2 -15 -5 -19 -41 -21 -54 -4 -69 9
-48 41 14 21 14 24 -1 33 -9 6 -12 15 -7 23 10 17 104 9 116 -10z m240 4 c5
-5 11 -23 15 -40 5 -26 2 -36 -21 -57 -25 -23 -26 -27 -11 -41 16 -16 13 -40
-7 -48 -7 -3 -28 1 -47 7 -34 11 -35 13 -44 79 -6 48 -5 76 3 94 11 23 16 25
57 20 25 -2 50 -9 55 -14z m-486 -58 c0 -23 -5 -31 -22 -33 -24 -4 -27 6 -17
46 10 34 39 24 39 -13z m-267 2 c3 -16 1 -17 -17 -7 -25 13 -28 33 -4 28 10
-2 19 -11 21 -21z m-148 -43 c0 -16 -16 -19 -25 -4 -8 13 4 32 16 25 5 -4 9
-13 9 -21z m4920 0 c0 -14 -21 -19 -33 -7 -9 9 13 34 24 27 5 -3 9 -12 9 -20z
m-4800 -8 c0 -8 -10 -40 -22 -71 -18 -48 -19 -58 -7 -66 19 -13 92 -1 102 16
15 27 70 18 99 -15 22 -26 32 -30 55 -24 15 4 32 13 36 21 4 7 17 13 28 13 17
0 19 5 13 35 -5 30 -3 36 20 46 34 16 41 8 38 -48 -1 -32 5 -56 19 -79 l20
-33 -27 -7 c-37 -9 -180 1 -358 26 -196 28 -250 54 -127 62 l45 3 14 55 c14
55 27 80 43 80 5 0 9 -6 9 -14z m4880 -21 c0 -19 -20 -29 -32 -17 -8 8 -7 16
2 26 14 17 30 12 30 -9z m-4681 1 c9 -10 9 -16 1 -21 -16 -10 -40 2 -40 20 0
19 24 20 39 1z m271 4 c12 -7 12 -13 4 -27 -14 -24 -47 -28 -63 -9 -28 34 19
62 59 36z m575 -2 c35 -16 28 -39 -17 -56 -33 -13 -41 -12 -74 4 -21 11 -40
25 -42 32 -8 27 86 42 133 20z m-426 -22 c9 -11 8 -15 -5 -20 -39 -15 -84 5
-53 25 21 13 45 11 58 -5z m-452 -23 c5 -15 -36 -28 -49 -15 -6 6 -7 15 -3 22
9 14 47 9 52 -7z m703 8 c0 -5 -7 -14 -15 -21 -12 -10 -15 -10 -15 2 0 8 3 18
7 21 9 10 23 9 23 -2z m3930 -25 c0 -21 -21 -31 -30 -15 -5 7 -6 17 -4 21 9
14 34 9 34 -6z m-4168 -12 c12 -8 9 -32 -4 -36 -9 -3 -8 -9 5 -22 9 -10 17
-22 17 -28 0 -6 8 -17 18 -24 15 -12 15 -15 2 -24 -19 -14 -185 -9 -200 6 -16
16 15 88 53 120 25 21 37 24 66 19 20 -4 39 -9 43 -11z m4243 -25 c8 -23 -7
-45 -24 -35 -6 4 -11 18 -11 32 0 30 26 32 35 3z m-5075 -59 c333 -91 1619
-157 2340 -120 265 14 629 39 719 50 83 10 101 6 101 -21 0 -18 -11 -23 -64
-31 -11 -2 -21 -9 -24 -17 -3 -10 4 -12 34 -8 44 6 164 -16 221 -39 55 -23 31
-31 -153 -48 -976 -92 -2046 -85 -3024 20 -258 27 -452 76 -422 106 8 8 26 5
69 -10 32 -12 78 -24 103 -28 l45 -6 -40 27 c-22 14 -31 24 -20 21 11 -3 41
-8 67 -11 26 -4 49 -13 52 -21 4 -9 22 -14 53 -14 26 0 170 -12 318 -25 387
-36 823 -47 1478 -36 302 5 551 12 554 15 4 3 -249 6 -561 6 -579 0 -903 9
-1266 35 -429 32 -720 79 -720 117 0 5 17 8 38 6 33 -2 37 -1 34 20 -4 25 11
28 68 12z m5058 -56 c-4 -23 -26 -30 -34 -10 -8 20 15 51 29 37 5 -5 7 -17 5
-27z m-5234 -10 c23 -9 20 -34 -3 -34 -22 0 -35 15 -26 30 7 12 8 12 29 4z
m5236 -135 c0 -41 -21 -76 -39 -65 -14 9 -7 76 11 110 14 26 28 3 28 -45z
m-5444 -7 c-9 -9 -37 8 -31 18 5 8 11 7 21 -1 8 -6 12 -14 10 -17z m5344 3 c0
-28 -15 -34 -24 -9 -10 25 -7 34 9 34 9 0 15 -9 15 -25z m-5431 -51 c-15 -18
-39 -18 -39 0 0 16 19 25 38 18 9 -3 10 -8 1 -18z m339 17 c16 -10 6 -19 -56
-50 -51 -26 -61 -22 -38 14 24 36 67 53 94 36z m-465 -33 c10 -5 15 -13 12
-18 -10 -16 -72 -22 -94 -11 -23 13 -28 37 -8 44 15 7 65 -2 90 -15z m233 11
c10 -17 -13 -36 -27 -22 -12 12 -4 33 11 33 5 0 12 -5 16 -11z m3780 -20 c20
-12 75 -24 160 -34 151 -18 162 -21 190 -47 12 -10 39 -21 60 -24 112 -16 534
-271 534 -323 0 -5 -17 -13 -37 -17 -71 -12 -70 -23 0 -24 38 0 80 -6 95 -14
30 -16 80 -74 106 -123 l16 -32 -55 -16 c-30 -9 -55 -17 -55 -18 0 -1 28 -2
63 -3 66 -1 107 -16 107 -39 0 -8 -12 -17 -27 -21 -53 -11 -58 -18 -18 -22 22
-2 48 -11 58 -19 46 -43 147 -266 147 -327 0 -30 -5 -38 -25 -46 -30 -11 -30
-11 -6 -80 11 -30 24 -82 29 -115 6 -33 18 -103 27 -156 11 -59 15 -117 11
-150 -3 -30 -6 -71 -6 -92 1 -41 -3 -44 -76 -57 l-49 -8 43 -1 c74 -2 99 -26
66 -63 -14 -14 -15 -20 -4 -33 7 -9 13 -29 12 -46 -1 -37 -21 -99 -32 -99 -4
0 -18 16 -29 36 -19 31 -25 35 -49 29 -46 -11 -55 -25 -49 -75 7 -57 -4 -80
-28 -60 -51 42 -57 94 -39 355 31 455 -5 672 -159 947 -131 235 -405 497 -593
567 -126 48 -326 46 -424 -2 -54 -27 -91 -92 -98 -171 -10 -120 78 -209 432
-435 86 -55 184 -124 217 -153 114 -99 199 -237 199 -323 0 -115 -104 -195
-255 -195 -126 0 -222 49 -251 127 -9 26 -25 57 -35 67 -18 19 -19 19 -71 -13
-98 -62 -147 -55 -368 49 -80 37 -192 82 -250 99 -58 16 -130 39 -161 49 -30
11 -74 23 -97 27 -67 11 -51 -12 36 -52 42 -20 112 -58 155 -85 83 -54 122
-68 262 -98 114 -25 168 -40 162 -47 -3 -3 -71 1 -150 8 -112 10 -174 10 -272
1 -118 -10 -134 -14 -217 -53 -76 -37 -125 -69 -104 -69 4 0 48 17 99 37 l92
37 187 1 187 0 58 -43 c69 -51 149 -92 181 -92 29 0 62 34 62 64 0 16 -14 37
-42 61 l-43 37 40 -8 c51 -9 69 -18 127 -67 43 -36 54 -40 125 -48 43 -4 107
-15 143 -24 45 -12 91 -16 156 -13 78 3 100 8 158 37 112 55 151 130 127 246
-33 158 -149 277 -520 533 -205 142 -311 259 -311 341 1 35 32 103 60 129 31
28 136 45 251 40 109 -5 168 -27 278 -105 89 -63 263 -240 334 -341 122 -170
243 -464 254 -616 3 -39 -2 -177 -11 -306 -29 -428 -23 -484 68 -573 55 -55
56 -73 6 -131 -64 -73 -89 -170 -99 -391 l-6 -140 -55 -11 c-48 -10 -51 -12
-20 -13 39 -1 81 -20 88 -38 2 -7 -13 -23 -34 -35 -33 -20 -35 -22 -16 -29 90
-34 -52 -78 -250 -79 -31 0 -60 -4 -63 -10 -4 -6 53 -9 162 -7 153 2 168 0
171 -16 2 -11 -7 -23 -26 -34 -29 -17 -29 -18 -9 -28 28 -14 32 -32 10 -43
-21 -12 -257 -42 -324 -42 -25 0 -54 7 -65 15 -19 15 -19 15 0 30 10 8 45 17
77 21 70 8 68 24 -3 24 l-51 0 7 67 c4 37 12 70 18 74 6 4 50 10 99 14 145 11
159 25 19 18 l-126 -5 -18 57 c-25 81 -82 140 -154 161 -72 21 -128 13 -219
-31 -69 -34 -107 -67 -268 -234 -16 -18 -38 -38 -47 -46 -13 -11 -18 -30 -18
-70 0 -31 -9 -84 -21 -118 -35 -106 -169 -327 -169 -278 0 6 20 46 45 89 68
118 78 197 29 229 -18 11 -33 13 -61 6 -49 -11 -65 -42 -98 -194 -14 -63 -37
-138 -52 -166 -48 -96 -151 -179 -352 -284 -36 -19 -67 -40 -69 -46 -14 -47
196 51 352 162 26 19 52 35 57 35 28 0 -13 -174 -70 -295 l-40 -85 -98 0
c-164 0 -739 -39 -902 -60 -41 -6 -76 -8 -79 -5 -4 4 -22 186 -35 371 l-6 71
52 7 c29 3 88 6 132 6 127 1 66 21 -81 28 l-124 5 0 159 c0 87 -7 225 -15 306
-28 267 -98 655 -140 771 -12 34 -13 46 -3 52 21 13 176 22 272 14 l93 -7 32
38 31 39 78 -28 c96 -34 135 -35 167 -3 23 23 55 110 55 151 0 28 -38 63 -77
71 -33 6 -61 -5 -106 -42 -20 -17 -41 -24 -70 -24 -64 1 -214 25 -229 38 -8 6
-22 33 -32 61 -12 33 -40 75 -82 120 -35 38 -64 72 -64 75 0 21 40 -5 121 -79
52 -47 100 -85 108 -85 24 0 120 81 186 156 117 135 165 219 196 350 25 107
31 117 94 150 114 61 141 97 189 255 41 134 31 190 -39 223 -38 19 -65 10 -65
-21 0 -20 -57 -101 -80 -113 -17 -9 -20 -7 -25 17 -14 67 -20 78 -45 78 -39 0
-70 -66 -80 -173 -13 -132 -35 -183 -152 -357 -41 -61 -89 -138 -108 -172 -18
-35 -38 -63 -44 -63 -6 0 -42 46 -80 103 -39 56 -86 122 -107 147 -21 25 -54
80 -74 123 -25 53 -49 88 -76 109 -21 17 -39 39 -39 48 0 9 24 41 54 72 92 94
108 138 52 138 -37 0 -41 18 -12 49 14 15 26 32 26 39 0 14 -33 15 -77 3 -44
-13 -49 1 -18 46 43 64 26 93 -35 58 -14 -8 -36 -14 -49 -15 -21 0 -23 3 -16
28 18 75 18 89 -6 106 -13 9 -30 16 -39 16 -8 0 -54 19 -102 42 l-88 41 -54
-13 c-39 -9 -87 -11 -164 -6 -109 7 -110 7 -115 -16 -3 -13 -16 -61 -30 -108
-14 -47 -40 -152 -57 -233 -17 -82 -34 -155 -36 -162 -3 -7 11 -28 31 -47 32
-30 37 -41 37 -81 1 -55 -9 -70 -62 -86 -76 -22 -220 -131 -371 -279 l-147
-143 -88 3 c-62 2 -88 0 -91 -9 -3 -9 4 -11 25 -7 36 7 105 -13 99 -29 -1 -7
-19 -20 -38 -30 -29 -14 -42 -15 -67 -6 -17 6 -34 19 -37 29 -9 29 -30 41
-101 59 -64 16 -98 41 -80 58 4 4 74 10 154 13 140 5 144 6 77 13 -38 5 -83
15 -100 22 l-30 13 30 13 c20 8 74 13 159 13 l128 0 -87 21 c-73 18 -92 27
-114 53 -24 30 -31 32 -86 32 -33 0 -73 -7 -89 -15 -15 -8 -30 -15 -32 -15 -2
0 -4 25 -4 55 l0 55 132 0 131 0 -19 21 c-17 19 -18 21 -1 30 25 15 21 32 -23
95 -22 32 -40 63 -40 70 0 8 12 20 27 27 l27 15 -31 6 c-47 11 -105 -3 -111
-26 -2 -10 -10 -17 -16 -15 -6 3 -9 11 -7 18 2 8 6 29 9 48 l4 33 282 -7 c206
-5 278 -4 270 4 -6 7 -93 15 -230 21 -233 10 -277 15 -294 35 -14 16 7 33 62
50 l43 14 -42 0 c-44 1 -65 17 -42 32 8 5 104 9 214 10 211 1 207 6 -27 29
-109 12 -163 28 -146 46 10 9 154 22 283 25 l100 2 -115 8 c-129 9 -190 23
-190 43 0 22 24 26 178 27 l147 2 -130 13 c-71 7 -140 18 -153 24 -27 12 -25
30 6 46 l22 11 -25 11 c-32 15 -32 40 1 48 25 6 155 1 264 -12 37 -4 52 -3 45
4 -5 5 -19 12 -30 14 -15 2 -21 14 -26 46 -3 23 -15 56 -28 72 -18 25 -19 31
-7 36 24 9 79 -24 109 -66 31 -44 77 -73 101 -64 21 8 21 67 1 84 -20 17 -19
47 2 59 27 15 63 -5 119 -65 45 -49 55 -55 85 -52 23 2 35 9 37 20 4 22 -40
64 -76 73 -33 8 -54 24 -46 36 7 12 131 11 155 -1 12 -7 19 -21 19 -40 0 -38
26 -52 88 -48 42 3 47 5 47 27 0 18 -7 27 -30 33 -61 19 -58 17 -45 33 29 34
113 13 195 -49 59 -46 89 -45 93 2 4 38 19 47 67 38 40 -8 43 -18 15 -53 -24
-31 -19 -40 50 -77 73 -40 94 -14 45 58 -14 20 -25 42 -25 47 0 12 48 4 98
-17 31 -12 32 -15 32 -68 0 -48 3 -57 31 -80 33 -28 67 -40 96 -34 33 7 19 58
-27 98 -54 48 -53 64 5 58 25 -3 45 -4 45 -1 0 10 -135 65 -195 78 -35 8 -71
18 -79 21 -22 8 -20 24 3 24 29 0 47 26 30 46 -18 22 -94 13 -119 -14 -24 -25
-106 -37 -203 -29 -57 5 -75 11 -98 33 -32 30 -54 27 -110 -17 -46 -36 -65
-36 -83 -1 -38 74 -91 80 -125 13 -37 -71 -107 -64 -113 12 -3 41 -4 42 -41
45 -47 4 -64 -9 -73 -54 -7 -36 -32 -58 -52 -45 -7 4 -15 25 -19 47 -7 45 -16
54 -59 54 -35 0 -54 -18 -69 -64 -6 -17 -18 -32 -29 -34 -34 -7 -38 13 -14 62
26 54 19 66 -42 66 -65 0 -79 -9 -94 -59 l-13 -46 -83 2 c-60 2 -88 7 -101 19
-24 22 -42 79 -35 109 6 22 3 24 -41 30 -27 3 -59 8 -73 11 l-25 6 28 -30 c19
-20 25 -32 17 -37 -12 -7 -60 20 -60 35 0 5 -9 18 -20 28 -32 30 -4 47 63 38
300 -41 484 -59 818 -81 276 -18 771 -31 822 -21 33 6 36 9 23 22 -23 23 -3
104 25 104 5 0 9 -9 9 -20 0 -14 17 -31 50 -52 35 -21 47 -34 38 -39 -20 -12
-7 -18 68 -29 194 -28 782 -1 1445 65 135 14 322 29 416 35 94 5 178 12 187
16 37 14 10 22 -93 26 -104 3 -111 5 -154 36 -25 18 -59 35 -76 38 -37 8 -49
23 -30 35 17 10 43 3 85 -22z m-3197 2 c22 -14 3 -31 -35 -31 -53 0 -44 33 11
39 6 0 16 -3 24 -8z m3046 -1 c3 -6 -4 -10 -17 -10 -18 0 -20 2 -8 10 19 12
18 12 25 0z m-130 -25 c0 -14 -8 -21 -30 -25 -40 -7 -38 -32 3 -44 82 -23 -1
-46 -171 -46 -71 0 -137 -5 -148 -11 -29 -15 -99 -14 -114 2 -7 8 -16 37 -20
65 l-7 51 59 6 c52 5 66 1 131 -29 81 -38 112 -38 112 1 0 30 15 39 60 37 19
-1 42 2 50 8 8 6 29 9 45 8 22 -2 30 -8 30 -23z m1825 11 c0 -16 -18 -31 -27
-22 -8 8 5 36 17 36 5 0 10 -6 10 -14z m-4614 -7 c10 -17 -13 -36 -27 -22 -12
12 -4 33 11 33 5 0 12 -5 16 -11z m185 -18 c-12 -22 -60 -55 -69 -47 -8 9 49
66 65 66 10 0 11 -5 4 -19z m-933 -5 c10 -11 -20 -26 -53 -26 -46 0 -107 19
-99 32 7 11 139 6 152 -6z m367 -6 c19 -18 28 -19 86 -11 76 11 92 1 59 -34
-21 -22 -31 -25 -94 -24 -168 2 -213 24 -139 67 47 27 61 27 88 2z m5070 -10
c0 -13 -5 -25 -11 -27 -14 -5 -25 22 -17 42 8 23 28 12 28 -15z m-5720 1 c50
-10 104 -25 120 -31 l30 -13 -35 -8 c-19 -4 -41 -17 -49 -28 -16 -25 -37 -26
-116 -5 -97 25 -93 37 10 30 107 -7 97 5 -20 27 -92 18 -115 26 -115 38 0 15
79 10 175 -10z m429 10 c3 -5 -1 -14 -8 -20 -20 -17 -68 -19 -73 -3 -8 21 69
43 81 23z m1076 -8 c-1 -5 -21 -30 -45 -56 l-44 -48 -94 -1 c-52 0 -104 3
-117 7 -39 12 -2 25 75 25 91 0 129 12 164 49 27 28 62 42 61 24z m480 -3 c0
-5 -9 -10 -21 -10 -11 0 -17 5 -14 10 3 6 13 10 21 10 8 0 14 -4 14 -10z
m1047 -29 c57 -45 88 -79 81 -87 -14 -13 -143 -24 -248 -22 l-115 3 -22 45
c-28 57 -29 80 -3 80 12 0 26 -12 35 -30 21 -40 50 -50 145 -50 110 0 117 4
74 45 -34 33 -38 55 -9 55 7 0 35 -17 62 -39z m133 4 c30 -19 70 -37 88 -41
44 -9 39 -36 -9 -48 -55 -13 -83 -1 -123 53 -59 80 -44 93 44 36z m-2182 7
c-5 -16 4 -20 65 -30 63 -10 110 -33 95 -47 -8 -8 -261 15 -271 24 -8 8 79 69
102 70 8 1 12 -6 9 -17z m807 -24 c-11 -70 -15 -78 -40 -78 -30 0 -39 14 -31
46 7 26 51 74 68 74 6 0 7 -18 3 -42z m-1988 20 c35 -13 44 -28 16 -28 -34 0
-63 12 -63 26 0 17 5 17 47 2z m1823 -3 c0 -7 -7 -18 -15 -23 -9 -4 -19 -21
-24 -38 -6 -23 -14 -30 -39 -32 -36 -4 -39 5 -17 48 25 49 95 82 95 45z m2501
-2 c15 -15 -2 -19 -127 -33 -80 -9 -107 -9 -125 0 l-23 13 24 19 c22 18 37 20
132 16 62 -2 112 -8 119 -15z m-2221 -23 c0 -35 16 -45 88 -55 52 -7 66 -18
36 -29 -9 -3 -58 -6 -110 -6 -103 0 -116 7 -94 52 18 33 51 68 67 68 8 0 13
-12 13 -30z m552 -13 c30 -22 121 -27 156 -8 33 18 51 13 67 -19 8 -16 15 -34
15 -40 0 -6 -52 -10 -150 -10 l-150 0 0 48 c0 69 4 71 62 29z m-2175 -4 c9
-24 -32 -53 -77 -53 -25 0 -40 5 -44 16 -11 28 -7 34 23 34 17 0 33 5 36 10
10 16 55 11 62 -7z m-433 -23 c37 -14 24 -30 -24 -30 -26 0 -40 -5 -44 -16 -7
-18 -45 -16 -101 6 l-29 11 29 25 c26 22 37 24 86 20 31 -3 68 -10 83 -16z
m5876 -16 c0 -19 -39 -18 -47 2 -3 9 0 20 8 24 15 10 39 -6 39 -26z m-3375 5
c9 -27 -12 -50 -25 -29 -14 22 -12 50 4 50 8 0 18 -9 21 -21z m-2184 -39 c25
-14 24 -34 -3 -48 -23 -10 -22 -11 5 -11 16 -1 36 -11 50 -27 19 -22 28 -25
59 -20 34 6 38 4 44 -20 4 -15 3 -43 -2 -63 l-9 -36 -81 0 c-53 1 -87 5 -98
14 -22 19 -20 28 10 35 19 5 24 11 19 25 -3 10 1 24 10 31 13 11 11 15 -17 29
-39 20 -73 64 -65 85 7 18 49 21 78 6z m-476 -23 c19 -11 19 -12 -5 -15 -14
-2 -35 -13 -47 -24 -24 -23 -74 -20 -109 7 -18 13 -16 14 19 15 25 0 37 5 37
14 0 8 6 17 13 19 16 7 66 -2 92 -16z m6013 -33 c-4 -24 -24 -29 -32 -8 -8 20
13 49 27 35 5 -5 7 -17 5 -27z m-5308 11 c14 -17 5 -35 -18 -35 -27 0 -45 17
-39 34 8 20 41 21 57 1z m-825 -75 c0 -8 -8 -16 -18 -18 -11 -2 -28 -13 -38
-23 -15 -15 -24 -17 -39 -9 -23 12 -27 30 -7 30 8 0 22 9 32 20 22 24 70 24
70 0z m889 -2 c16 -22 22 -58 10 -58 -11 0 -49 23 -56 34 -28 41 18 64 46 24z
m5242 -9 c10 -17 -23 -46 -38 -31 -8 8 -8 15 2 27 15 18 26 19 36 4z m-6245
-62 c10 -4 3 -16 -28 -44 -24 -21 -43 -44 -43 -51 0 -7 -12 -17 -26 -22 -14
-6 -28 -19 -31 -30 -6 -23 -35 -34 -63 -25 -25 8 -26 32 -3 37 11 2 18 13 18
28 0 21 6 26 35 30 23 3 31 8 23 13 -25 16 -12 27 32 27 49 0 56 8 25 28 -22
14 -26 32 -9 49 7 7 17 4 33 -12 12 -12 29 -25 37 -28z m1279 10 c31 -11 36
-18 48 -70 9 -34 11 -62 6 -67 -12 -12 -202 15 -249 35 -74 30 -23 56 94 47
82 -6 94 11 16 22 -46 7 -61 18 -50 36 8 14 92 12 135 -3z m223 -36 c16 -16
-3 -31 -37 -31 -40 0 -68 26 -45 41 15 10 68 4 82 -10z m-496 -17 c4 -12 -10
-32 -51 -68 -51 -46 -57 -56 -63 -101 -7 -60 -19 -85 -38 -85 -8 0 -27 -19
-41 -42 -34 -54 -160 -185 -196 -204 -15 -8 -53 -14 -85 -14 -108 0 -107 30 2
41 62 5 60 10 -10 25 -25 6 -40 15 -40 24 0 12 18 16 80 20 97 6 78 16 -57 30
-116 12 -176 24 -192 40 -17 17 13 31 59 25 280 -32 345 -38 345 -28 0 5 -66
18 -147 30 -82 12 -161 26 -177 33 -27 10 -28 12 -13 27 15 16 26 15 150 -5
142 -24 227 -28 211 -12 -5 5 -67 16 -137 25 -70 9 -139 20 -154 26 -24 9 -25
11 -10 26 14 15 26 15 139 -1 119 -16 206 -21 197 -11 -3 2 -64 14 -137 26
-109 18 -132 25 -130 38 2 10 17 18 38 21 26 4 36 11 40 30 6 25 8 25 96 23
l89 -2 -60 13 c-73 16 -95 25 -95 38 0 7 24 8 68 4 37 -3 106 -9 154 -13 81
-5 87 -4 99 16 16 25 57 28 66 5z m5213 1 c15 -18 9 -50 -9 -50 -19 0 -36 29
-28 49 8 20 21 21 37 1z m-5805 -9 c17 -12 17 -16 6 -30 -11 -13 -27 -16 -64
-14 -61 4 -72 23 -25 43 42 18 59 18 83 1z m1118 -57 c53 -14 48 -43 -8 -47
-46 -3 -81 17 -72 42 7 19 27 20 80 5z m-1153 -19 c24 -16 -15 -40 -65 -40
-50 0 -89 24 -65 40 8 5 38 10 65 10 28 0 57 -5 65 -10z m-580 -63 c0 -18 -28
-55 -51 -67 -26 -14 -25 4 1 48 20 32 50 44 50 19z m528 -24 c-4 -20 -54 -29
-77 -14 -23 15 -2 31 40 31 33 0 40 -3 37 -17z m5882 -18 c0 -8 -7 -15 -15
-15 -8 0 -15 7 -15 15 0 8 7 15 15 15 8 0 15 -7 15 -15z m-5070 -14 c0 -12
-20 -25 -27 -18 -7 7 6 27 18 27 5 0 9 -4 9 -9z m1430 -15 c0 -24 -16 -43 -27
-32 -8 8 6 56 17 56 6 0 10 -11 10 -24z m-2293 -13 c2 -6 -4 -19 -14 -28 -10
-10 -18 -25 -18 -33 0 -9 -6 -17 -12 -19 -19 -7 -16 48 3 75 16 23 35 25 41 5z
m5922 -39 c-14 -18 -24 -11 -15 11 3 9 11 13 16 10 8 -5 7 -11 -1 -21z m-4934
-10 c0 -20 -26 -30 -53 -19 -15 6 -14 9 7 26 28 23 46 20 46 -7z m1085 -16 c7
-13 48 -58 93 -100 63 -61 78 -81 69 -90 -9 -9 -18 -7 -39 10 -16 13 -40 28
-55 34 -14 7 -31 22 -37 35 -6 12 -28 34 -51 48 -44 28 -48 39 -23 67 21 24
30 23 43 -4z m-1320 -2 c0 -17 -35 -30 -51 -20 -9 5 -6 11 6 21 24 17 45 17
45 -1z m-1295 -16 c7 -12 -73 -100 -91 -100 -25 0 -15 30 17 49 25 15 27 20
13 25 -13 5 -14 9 -4 21 14 17 56 20 65 5z m150 -20 c-3 -5 -13 -10 -21 -10
-8 0 -14 5 -14 10 0 6 9 10 21 10 11 0 17 -4 14 -10z m6303 -7 c-4 -22 -22
-20 -26 1 -2 10 3 16 13 16 10 0 15 -7 13 -17z m-5282 -14 c7 -12 -15 -31 -28
-23 -4 3 -8 12 -8 20 0 17 26 19 36 3z m-576 -44 c0 -10 -10 -15 -26 -15 -22
0 -25 2 -14 15 7 8 19 15 26 15 8 0 14 -7 14 -15z m800 8 c0 -14 -34 -43 -52
-43 -22 0 -23 8 -1 32 15 17 53 25 53 11z m-915 -23 c8 -13 -20 -24 -41 -16
-20 8 -9 26 16 26 10 0 22 -5 25 -10z m681 -5 c45 -19 35 -35 -21 -35 -72 0
-99 21 -52 40 30 12 33 12 73 -5z m-506 -61 c0 -18 -63 -19 -93 -2 -21 12 -20
13 18 18 50 7 75 2 75 -16z m-201 5 c60 -21 28 -39 -71 -39 -67 0 -83 15 -36
35 40 17 65 18 107 4z m753 -17 c23 -23 -18 -42 -88 -42 -99 0 -146 26 -86 49
36 14 158 9 174 -7z m-595 -39 c5 -14 -40 -28 -57 -18 -8 5 -8 11 1 21 14 17
51 15 56 -3z m5823 -4 c0 -24 -23 -21 -28 4 -2 10 3 17 12 17 10 0 16 -9 16
-21z m-5955 -19 c8 -7 15 -20 15 -30 0 -20 52 -30 165 -30 51 0 76 -4 84 -14
18 -21 -16 -36 -82 -36 -76 0 -253 19 -282 30 -33 13 -32 30 3 30 39 0 73 11
66 21 -3 5 -24 9 -47 9 -48 0 -73 12 -62 30 10 16 119 8 140 -10z m293 5 c29
-9 52 -20 52 -25 0 -13 -84 -23 -125 -16 -38 7 -50 19 -41 41 7 19 49 19 114
0z m423 -16 c26 -13 20 -33 -12 -38 -47 -6 -208 11 -226 25 -16 12 -16 15 -3
24 19 14 212 5 241 -11z m197 -5 c-4 -20 -34 -41 -44 -31 -8 8 24 47 38 47 5
0 8 -7 6 -16z m-293 -57 c105 -14 105 -13 80 -123 l-17 -75 -66 6 c-37 3 -85
8 -107 12 -28 3 -37 2 -30 -5 6 -6 59 -16 120 -23 170 -18 176 -23 128 -110
-24 -43 -26 -51 -13 -60 22 -15 89 -4 122 21 l28 21 0 -34 c0 -37 -15 -57 -43
-57 -10 0 -38 -11 -62 -25 -74 -44 -236 -35 -218 11 5 14 17 16 77 10 53 -4
66 -3 53 5 -10 6 -51 13 -92 16 -40 3 -79 9 -87 14 -24 15 8 32 74 38 l63 7
-53 12 c-29 7 -65 12 -81 12 -36 0 -66 22 -58 44 4 9 14 16 24 17 10 0 -3 7
-29 15 -39 12 -47 19 -50 41 -3 24 -9 29 -57 40 -55 12 -80 27 -67 40 4 5 76
7 159 6 119 -1 140 1 97 8 -101 16 -171 32 -176 40 -2 4 9 15 26 24 17 9 35
27 40 40 9 23 15 25 67 24 32 0 98 -6 148 -12z m5312 -29 c-3 -7 -5 -2 -5 12
0 14 2 19 5 13 2 -7 2 -19 0 -25z m-6554 -29 c-4 -55 -13 -81 -26 -76 -16 5
-21 85 -6 103 19 23 34 10 32 -27z m3142 1 c31 -35 10 -71 -53 -94 -66 -23
-80 -15 -62 39 7 22 24 44 44 56 39 24 49 24 71 -1z m-2930 -50 c-4 -20 -15
-34 -32 -41 -32 -12 -130 -12 -138 1 -9 14 49 40 89 40 27 0 40 6 52 26 22 32
39 17 29 -26z m506 10 l24 -19 -49 -1 c-42 0 -47 -2 -36 -15 7 -8 24 -15 39
-15 50 0 102 -20 110 -43 12 -32 3 -39 -26 -20 -19 13 -68 20 -195 29 -159 11
-219 25 -172 39 10 4 46 19 78 36 76 37 188 42 227 9z m5820 -123 c-10 -26
-31 -38 -31 -17 0 16 21 114 28 130 11 25 14 -84 3 -113z m-3567 84 c7 -11
-17 -21 -50 -21 -25 0 -33 15 -11 23 20 9 55 8 61 -2z m3481 -55 c21 -71 34
-188 24 -206 -6 -11 -8 -7 -9 15 0 17 -6 42 -14 57 -28 54 -49 207 -26 193 5
-3 17 -30 25 -59z m-4835 41 c0 -20 -22 -37 -47 -37 -29 0 -29 14 -1 34 27 19
48 21 48 3z m-1230 -63 c0 -15 -116 -134 -130 -134 -3 0 -15 7 -26 16 -14 12
-16 17 -6 21 26 10 84 67 93 90 10 28 69 34 69 7z m2304 -10 c9 -4 21 -15 27
-25 9 -18 7 -19 -29 -13 -34 5 -42 3 -56 -17 -9 -13 -16 -37 -16 -55 0 -41 -7
-46 -42 -28 -28 15 -31 14 -52 -5 l-22 -21 -28 29 c-38 39 -27 55 34 48 67 -8
82 -2 113 49 26 43 39 50 71 38z m-1094 -39 c0 -21 -17 -35 -41 -35 -13 0 -11
44 2 57 17 17 39 4 39 -22z m-1482 13 c-3 -7 -22 -14 -44 -16 -37 -2 -38 -1
-20 13 24 18 69 20 64 3z m2932 -37 c-5 -11 -22 -29 -37 -41 -38 -30 -43 -7
-7 31 32 34 61 40 44 10z m-2905 -13 c14 -6 25 -15 25 -19 0 -35 -151 -38
-176 -4 -7 10 -11 22 -8 26 8 13 129 11 159 -3z m3085 -21 c0 -13 -7 -32 -15
-43 -13 -18 -14 -17 -15 17 0 20 3 39 7 42 13 14 23 7 23 -16z m-2302 -36 c3
-8 -1 -12 -9 -9 -7 2 -15 10 -17 17 -3 8 1 12 9 9 7 -2 15 -10 17 -17z m-671
-27 c5 -14 -11 -33 -28 -34 -15 0 -41 28 -35 38 11 18 56 14 63 -4z m2704 -11
c8 -9 38 -34 66 -55 48 -35 69 -68 43 -68 -17 0 -93 41 -117 63 -14 12 -23 32
-23 49 0 32 11 36 31 11z m-2891 -8 c0 -8 -7 -15 -15 -15 -16 0 -20 12 -8 23
11 12 23 8 23 -8z m907 -83 c14 -35 22 -66 19 -69 -17 -18 -66 66 -66 114 0
41 20 21 47 -45z m-757 35 c0 -31 -43 -158 -65 -191 -17 -26 -48 -35 -60 -17
-3 6 3 14 12 20 16 9 16 13 5 32 -12 18 -11 24 7 43 12 12 21 30 21 40 0 10 9
20 19 23 16 4 18 8 9 23 -16 25 -3 50 27 50 20 0 25 -5 25 -23z m2428 -15 c3
-9 -2 -13 -14 -10 -9 1 -19 9 -22 16 -3 9 2 13 14 10 9 -1 19 -9 22 -16z m536
3 c-4 -8 -15 -15 -25 -15 -10 0 -19 7 -19 15 0 9 9 15 25 15 18 0 23 -4 19
-15z m-3154 -30 c0 -16 -6 -25 -15 -25 -9 0 -15 9 -15 25 0 16 6 25 15 25 9 0
15 -9 15 -25z m6476 -11 c-5 -13 -10 -14 -18 -6 -6 6 -8 18 -4 28 5 13 10 14
18 6 6 -6 8 -18 4 -28z m-5213 -5 c48 -13 46 -39 -3 -53 l-35 -10 50 -6 c66
-7 84 -18 60 -37 -23 -16 -112 -17 -145 0 -35 18 -49 71 -25 97 20 23 43 25
98 9z m1402 -47 c0 -18 -20 -15 -23 4 -3 10 1 15 10 12 7 -3 13 -10 13 -16z
m3828 -16 c3 -8 9 -53 13 -100 6 -76 5 -86 -11 -92 -10 -4 -21 -1 -26 7 -10
16 -12 142 -3 177 7 25 19 29 27 8z m-5503 -82 c0 -25 6 -47 15 -54 8 -7 15
-18 15 -26 0 -20 -32 -34 -53 -23 -14 8 -17 25 -17 88 0 43 3 81 7 85 14 13
33 -28 33 -70z m1958 27 c3 -8 -1 -12 -9 -9 -7 2 -15 10 -17 17 -3 8 1 12 9 9
7 -2 15 -10 17 -17z m-528 -30 c21 -40 11 -71 -38 -124 -79 -87 -78 -82 -48
-118 25 -30 32 -66 18 -102 -6 -15 -14 -12 -57 24 -28 23 -80 62 -117 86 -45
29 -65 48 -62 58 3 8 27 26 52 41 26 15 84 56 130 91 46 35 90 63 97 63 8 0
19 -9 25 -19z m-962 -28 l3 -33 -55 0 c-52 0 -55 -1 -58 -27 -3 -26 -6 -28
-45 -27 -39 1 -43 -2 -43 -23 0 -18 -5 -23 -25 -23 -41 0 -61 63 -29 94 8 9
34 17 57 17 43 1 40 3 -25 14 -37 6 -51 28 -25 39 6 2 64 4 127 3 l115 -2 3
-32z m127 -18 c0 -13 -8 -21 -24 -23 -28 -4 -46 11 -37 33 9 25 61 16 61 -10z
m-1480 -25 c0 -18 -33 -26 -48 -11 -9 9 -8 14 3 21 21 14 45 8 45 -10z m-10
-60 c0 -18 -33 -26 -48 -11 -9 9 -8 14 3 21 21 14 45 8 45 -10z m1463 -2 c15
-15 16 -45 2 -53 -15 -9 -47 3 -54 20 -14 36 25 60 52 33z m-542 -10 c4 -6 0
-16 -9 -23 -15 -11 -15 -14 3 -30 13 -11 17 -22 11 -28 -15 -15 -50 2 -57 28
-11 43 31 87 52 53z m5495 -15 c18 -49 -7 -104 -40 -84 -9 6 -9 20 0 59 12 58
24 65 40 25z m-3433 -35 c12 -44 1 -60 -14 -23 -16 37 -17 55 -4 55 5 0 13
-15 18 -32z m-3002 -10 c4 -6 0 -16 -8 -22 -14 -10 -14 -14 -2 -31 14 -19 20
-187 8 -219 -9 -24 -44 -20 -44 4 0 11 -4 20 -10 20 -16 0 -12 60 5 66 12 5
13 9 4 20 -15 18 -13 143 2 161 14 16 35 17 45 1z m1204 -3 c16 -19 5 -35 -24
-35 -27 0 -51 24 -41 40 9 15 51 12 65 -5z m458 -10 c27 -59 6 -70 -114 -63
-79 5 -120 26 -97 49 16 16 102 37 154 38 40 1 47 -2 57 -24z m1149 -17 c-3
-7 -5 -2 -5 12 0 14 2 19 5 13 2 -7 2 -19 0 -25z m-187 -20 c25 -42 26 -68 2
-68 -21 0 -42 38 -42 75 0 34 17 31 40 -7z m-151 -75 c42 -97 45 -137 13 -141
-25 -4 -145 33 -180 55 -25 15 -21 33 8 33 28 0 74 44 95 89 10 23 21 41 24
41 4 0 22 -35 40 -77z m-1529 46 c0 -4 -7 -12 -16 -17 -15 -8 -15 -12 0 -40
29 -56 18 -202 -17 -224 -40 -26 -48 11 -16 73 16 33 18 43 8 55 -10 12 -9 18
3 31 14 14 14 17 -3 34 -23 23 -25 72 -4 93 15 15 45 12 45 -5z m389 8 c39
-14 53 -37 23 -37 -11 0 -34 -11 -50 -25 -36 -30 -74 -45 -113 -45 -32 0 -34
-3 -18 -31 7 -15 7 -24 -1 -35 -10 -11 -9 -15 1 -18 8 -2 34 -10 58 -18 59
-17 62 -34 9 -50 l-43 -13 90 -6 c50 -3 100 -11 113 -18 23 -12 23 -13 6 -32
-14 -15 -31 -19 -84 -19 -69 0 -167 23 -185 43 -7 8 -9 55 -7 125 l4 112 44 0
c28 0 43 4 39 10 -3 6 -19 10 -34 10 -35 0 -57 22 -39 38 28 22 135 27 187 9z
m5092 -13 c8 -10 13 -44 14 -92 0 -67 -2 -77 -19 -80 -31 -6 -106 9 -106 21 2
32 37 82 65 91 41 14 42 14 17 32 -12 8 -22 22 -22 30 0 19 34 18 51 -2z
m-4082 -35 c-12 -21 -14 -22 -17 -6 -6 28 6 53 19 40 8 -8 7 -18 -2 -34z
m-567 5 c16 -8 28 -19 28 -24 0 -27 -171 -24 -198 4 -14 14 -12 17 19 31 38
17 106 12 151 -11z m-302 -8 c0 -13 -7 -29 -15 -36 -13 -11 -15 -8 -15 17 0
16 3 33 7 36 13 14 23 6 23 -17z m1490 -30 c0 -21 -21 -31 -30 -15 -5 7 -6 17
-4 21 9 14 34 9 34 -6z m308 -2 c29 -20 28 -44 -2 -44 -28 0 -51 24 -42 45 7
19 16 19 44 -1z m-588 -41 c14 -37 8 -65 -14 -57 -15 6 -26 57 -18 87 6 22 14
14 32 -30z m-531 14 c13 -6 23 -16 22 -22 -2 -12 -51 -7 -68 7 -33 26 2 38 46
15z m-262 -26 c138 -78 318 -145 416 -157 40 -5 61 -12 67 -25 13 -23 2 -49
-20 -49 -10 0 -48 -34 -85 -75 -65 -73 -69 -75 -114 -75 l-46 -1 28 -15 c32
-17 35 -49 6 -64 -30 -17 -76 -123 -89 -205 -20 -129 -94 -315 -126 -315 -17
0 -17 -5 -1 -31 10 -17 9 -22 -7 -35 -11 -8 -40 -14 -65 -14 -50 0 -49 -9 1
-19 26 -5 34 -12 36 -33 4 -36 20 -47 78 -54 l49 -7 -23 19 c-24 19 -24 20 -5
43 15 19 32 25 76 29 56 4 72 14 42 26 -55 21 37 67 97 49 31 -9 33 -12 31
-54 -2 -59 -35 -133 -83 -185 -48 -52 -66 -110 -86 -269 -17 -139 -29 -178
-84 -260 -22 -33 -40 -65 -40 -70 0 -6 10 -15 22 -20 13 -6 24 -19 26 -30 11
-79 21 -82 77 -25 41 42 84 63 105 50 22 -13 6 -43 -30 -56 -26 -9 -29 -13
-13 -13 35 -1 53 -12 53 -31 0 -24 -19 -30 -90 -30 -56 0 -82 -11 -60 -25 5
-3 42 -9 81 -12 l71 -6 -5 -42 c-8 -54 -89 -272 -110 -292 -24 -25 -97 -23
-111 2 -6 11 -28 43 -49 72 -43 57 -45 84 -7 93 18 4 27 16 35 42 5 20 13 40
17 44 4 4 36 10 70 14 l63 7 -64 2 c-96 2 -187 20 -206 41 -25 27 -10 40 46
40 27 0 49 5 49 10 0 6 -10 10 -22 10 -50 0 -49 16 2 40 57 27 64 40 21 40
-53 0 -129 86 -101 114 6 6 30 16 53 23 l42 11 -42 1 c-109 3 -127 64 -22 78
l42 6 -44 16 c-55 20 -56 41 -4 55 l39 11 -89 13 c-97 14 -125 25 -125 48 0
20 41 34 108 35 58 1 59 2 10 13 -19 4 -28 13 -28 26 0 26 28 36 122 48 69 9
70 9 22 11 -72 2 -153 18 -183 37 -23 16 -24 17 -6 30 10 8 29 14 43 14 13 0
20 4 17 10 -3 6 -50 10 -106 10 l-100 0 3 62 c3 69 22 88 32 33 15 -77 65 -51
125 64 l42 80 -27 7 c-15 4 -52 7 -83 8 -55 1 -56 1 -59 -29 -8 -69 -52 -64
-52 6 0 27 6 42 21 53 l22 15 -22 26 c-11 15 -19 31 -16 35 2 4 25 13 49 20
25 7 63 28 84 46 51 44 80 54 155 55 l62 1 -71 17 c-40 10 -87 24 -105 32
l-34 13 38 11 c64 18 42 30 -60 32 -143 4 -147 5 -140 54 4 29 1 42 -9 46 -15
5 -19 44 -7 57 4 4 24 -11 43 -34 34 -39 38 -41 121 -52 62 -8 99 -8 130 -1
42 10 40 11 -44 12 -90 1 -127 11 -127 35 0 19 44 36 113 43 l61 6 -51 17
c-27 9 -71 30 -97 48 -46 30 -57 33 -138 47 -29 4 -38 11 -38 25 0 11 1 21 3
21 1 1 58 5 127 8 121 6 135 13 57 26 -54 9 -45 33 22 58 42 16 50 22 35 28
-11 4 -29 21 -42 38 -12 17 -29 31 -37 31 -7 0 -27 11 -43 25 -37 31 -70 32
-81 3 -5 -13 -13 -32 -17 -43 -7 -17 -8 -16 -12 10 -2 17 -10 34 -18 38 -22
13 -16 37 12 47 14 6 55 11 92 11 l67 2 -75 9 c-110 14 -118 16 -125 39 -11
32 8 44 39 24 23 -16 29 -16 73 -1 26 9 66 30 88 47 39 30 42 31 122 26 59 -3
93 -11 120 -26z m1386 -45 c59 -24 45 -36 -43 -36 -70 0 -80 2 -80 18 0 45 45
51 123 18z m-1129 -11 c11 -8 17 -17 14 -20 -7 -7 -54 11 -63 24 -9 16 27 13
49 -4z m860 -21 c23 -9 1 -34 -30 -34 -26 0 -30 10 -12 28 14 14 20 15 42 6z
m109 -1 c-7 -2 -19 -2 -25 0 -7 3 -2 5 12 5 14 0 19 -2 13 -5z m-703 -29 c0
-8 -10 -14 -25 -14 -26 0 -35 25 -12 33 18 6 37 -3 37 -19z m1340 0 c0 -16
-26 -19 -35 -4 -3 6 -4 14 0 20 8 13 35 1 35 -16z m2659 17 c16 -10 4 -20 -49
-37 l-35 -12 36 -1 c50 -1 63 -18 38 -49 -17 -23 -18 -27 -4 -34 21 -12 19
-56 -4 -94 -12 -20 -16 -36 -10 -45 12 -19 11 -96 0 -104 -15 -9 -41 36 -41
70 0 16 -20 73 -45 125 -45 96 -56 155 -33 178 14 14 126 16 147 3z m-3863
-22 c3 -5 -6 -9 -20 -9 -24 0 -41 12 -30 23 7 7 43 -3 50 -14z m304 6 c0 -8
-7 -15 -15 -15 -9 0 -12 6 -9 15 4 8 10 15 15 15 5 0 9 -7 9 -15z m-2860 -11
c18 -20 2 -88 -22 -92 -21 -4 -33 45 -19 81 12 31 23 34 41 11z m2719 7 c17
-11 6 -31 -18 -31 -25 0 -33 11 -20 27 13 15 19 16 38 4z m-2861 -41 c-7 -11
-18 -22 -25 -24 -20 -8 -15 22 5 33 27 16 33 13 20 -9z m3232 -65 c0 -19 -11
-19 -35 -2 -24 18 -11 41 16 27 10 -6 19 -17 19 -25z m-2164 4 c11 -18 -13
-34 -31 -19 -8 7 -15 16 -15 21 0 13 38 11 46 -2z m1999 1 c-3 -5 -12 -10 -20
-10 -8 0 -17 5 -20 10 -4 6 5 10 20 10 15 0 24 -4 20 -10z m-1676 -23 c8 -10
4 -19 -19 -36 -17 -12 -30 -28 -30 -35 0 -16 -21 -26 -55 -26 -13 0 -26 -4
-29 -9 -9 -14 22 -23 99 -30 61 -5 70 -9 73 -27 2 -16 -4 -23 -21 -28 -31 -7
-176 9 -189 22 -14 14 -1 65 28 107 13 20 24 42 24 49 0 7 3 16 7 19 12 13
100 7 112 -6z m1229 -2 c18 -10 72 -18 134 -21 57 -3 121 -10 143 -16 36 -9
38 -11 21 -24 -10 -7 -39 -16 -65 -19 -25 -3 -77 -11 -114 -16 -76 -12 -81
-10 -129 55 -25 35 -34 56 -25 56 2 0 18 -7 35 -15z m-2449 -42 c6 -21 11 -45
11 -54 0 -9 11 -46 25 -82 20 -55 22 -66 9 -71 -30 -11 -83 121 -71 180 3 18
1 24 -9 20 -7 -3 -16 -1 -20 5 -10 17 4 39 25 39 15 0 23 -10 30 -37z m899 5
c-5 -15 -68 -24 -68 -9 0 12 18 19 48 20 15 1 22 -4 20 -11z m5229 -38 c18
-36 16 -87 -3 -94 -27 -10 -51 -7 -65 10 -11 14 -10 19 11 36 22 18 23 21 7
29 -14 8 -15 14 -6 30 13 26 40 21 56 -11z m-4627 -5 c17 -21 1 -38 -31 -33
-16 2 -25 11 -27 26 -3 18 1 22 21 22 14 0 30 -7 37 -15z m-631 -24 c19 -12 5
-31 -24 -31 -13 0 -27 5 -31 11 -7 11 12 29 31 29 6 0 16 -4 24 -9z m2133 -43
c-9 -9 -12 -4 -11 23 0 32 1 33 11 11 8 -17 8 -26 0 -34z m3264 -3 c28 -68 17
-85 -56 -85 -44 0 -70 -8 -70 -22 0 -5 27 -7 70 -2 71 7 86 0 55 -26 -9 -7
-39 -19 -68 -26 l-52 -12 56 -1 c65 -1 79 -12 79 -61 0 -42 -14 -60 -49 -60
-25 0 -25 -1 7 -20 18 -11 35 -27 38 -35 8 -19 -12 -135 -25 -148 -12 -12
-151 -26 -186 -19 -52 10 -23 27 90 51 l40 9 -46 1 c-26 1 -61 4 -79 7 -31 7
-32 8 -26 48 8 49 23 65 67 76 l34 8 -30 1 c-16 1 -37 6 -45 11 -25 15 7 38
69 50 76 14 75 20 -1 20 -44 0 -69 5 -77 14 -7 9 -11 42 -9 88 l3 73 50 9
c115 20 125 24 125 56 0 40 18 38 36 -5z m-4878 -7 c-2 -15 -11 -24 -25 -26
-25 -4 -31 16 -11 36 20 20 40 14 36 -10z m1052 -4 c19 -48 -19 -154 -55 -154
-21 0 -19 44 6 118 23 68 34 76 49 36z m-1589 -20 c10 -13 10 -17 -2 -25 -8
-5 -18 -9 -24 -9 -5 0 -16 4 -24 9 -12 8 -12 12 -2 25 8 9 19 16 26 16 7 0 18
-7 26 -16z m1843 -20 c9 -3 16 -12 16 -20 0 -21 -44 -17 -65 6 -18 20 -17 20
8 20 14 0 32 -3 41 -6z m-1350 -27 c33 -6 61 -16 63 -22 5 -17 -128 -73 -210
-88 -89 -17 -108 -27 -51 -27 45 0 56 -6 73 -38 19 -36 74 -54 154 -50 81 3
92 -7 58 -53 -17 -22 -18 -29 -7 -29 24 0 29 -19 27 -107 -1 -46 3 -102 9
-125 14 -51 3 -64 -61 -76 -27 -5 -55 -19 -71 -35 -15 -15 -36 -27 -47 -27
-28 0 -34 -14 -22 -55 l9 -35 -156 0 c-236 1 -411 15 -431 35 -25 25 -2 32
128 41 l116 8 -125 13 c-138 14 -180 27 -161 46 8 8 83 14 244 17 254 5 254 6
-134 27 l-121 6 -24 54 c-13 29 -24 63 -24 75 0 20 3 20 113 14 61 -4 162 -11
222 -16 61 -5 166 -12 234 -16 l124 -6 34 -35 c46 -45 71 -41 101 17 30 60 29
93 -5 119 -41 33 -68 36 -101 11 -27 -20 -34 -21 -80 -11 -66 14 -366 25 -332
12 14 -5 99 -14 189 -20 90 -6 167 -13 170 -16 2 -3 -5 -15 -16 -27 -22 -21
-23 -21 -230 -9 -237 14 -364 28 -378 42 -25 24 67 53 144 45 l46 -6 -47 17
c-27 9 -48 23 -48 30 0 29 51 35 185 24 132 -11 222 -14 214 -7 -2 2 -62 11
-134 20 -145 18 -198 32 -192 49 3 9 52 12 168 11 l164 -2 -122 19 c-68 10
-130 22 -139 27 -15 9 -15 11 5 22 13 6 53 15 90 19 65 7 65 8 38 21 -23 11
-27 18 -22 39 4 14 16 38 27 54 l21 30 131 -7 c72 -3 158 -12 190 -19z m-514
-27 c0 -21 -49 -105 -74 -129 -15 -14 -31 -21 -41 -17 -14 5 -14 9 1 38 34 67
75 118 94 118 11 0 20 -5 20 -10z m2180 -5 c0 -16 -27 -32 -37 -22 -3 4 -3 13
0 22 8 20 37 20 37 0z m-1500 -10 c0 -9 -9 -15 -25 -15 -16 0 -25 6 -25 15 0
9 9 15 25 15 16 0 25 -6 25 -15z m810 6 c0 -12 -20 -25 -27 -18 -7 7 6 27 18
27 5 0 9 -4 9 -9z m239 -38 c26 -92 1 -188 -35 -138 -24 33 -15 175 12 175 7
0 18 -17 23 -37z m-2471 -12 c25 -44 28 -71 9 -71 -22 0 -45 32 -52 73 -10 51
14 50 43 -2z m2642 -16 c0 -12 -35 -75 -42 -75 -11 0 -10 7 8 46 14 28 34 46
34 29z m109 -41 c-14 -18 -24 -11 -15 11 3 9 11 13 16 10 8 -5 7 -11 -1 -21z
m171 -20 c0 -25 -20 -65 -30 -59 -11 7 -13 64 -3 91 6 16 7 16 20 -2 7 -10 13
-23 13 -30z m-700 -94 c0 -55 -22 -90 -56 -90 -30 0 -30 -7 -2 -30 17 -14 22
-27 21 -58 -3 -73 -14 -83 -90 -80 -85 4 -92 21 -22 52 51 22 52 23 25 30 -24
6 -27 10 -22 34 9 36 36 72 74 98 l32 22 -22 14 -22 15 29 49 29 49 12 -30 c7
-17 13 -50 14 -75z m-2160 66 c0 -19 -17 -29 -37 -22 -12 5 -13 9 -3 21 16 19
40 19 40 1z m5298 -48 c52 -49 82 -121 82 -194 0 -81 -27 -166 -93 -289 l-54
-100 -84 -5 c-51 -3 -77 -8 -66 -12 10 -5 31 -8 47 -8 38 0 60 -9 60 -25 0
-26 -52 -75 -91 -86 -37 -12 -38 -13 -19 -26 28 -19 26 -27 -18 -76 -21 -23
-57 -68 -80 -99 -27 -37 -53 -61 -76 -69 -34 -12 -34 -12 -13 -29 20 -17 20
-19 4 -43 -19 -30 -69 -46 -142 -48 -56 -1 -47 -5 36 -14 l57 -6 4 -122 c5
-139 23 -194 77 -240 40 -33 70 -34 241 -7 69 10 155 22 193 25 72 7 93 25 28
25 -82 0 -96 30 -28 60 28 13 73 54 137 125 89 99 97 105 147 115 70 15 237
18 243 5 5 -10 -43 -27 -115 -41 -38 -8 -38 -8 -10 -11 120 -12 142 -23 89
-43 -22 -9 -25 -14 -19 -40 6 -26 3 -31 -19 -40 -31 -11 -33 -25 -6 -40 23
-12 18 -30 -8 -30 -9 0 -23 -4 -31 -9 -11 -7 -10 -13 3 -33 19 -29 13 -38 -26
-38 -35 0 -35 -5 -1 -34 l27 -23 -50 -16 c-27 -9 -170 -35 -319 -57 -148 -22
-277 -42 -285 -45 -50 -15 216 10 375 35 210 33 235 35 235 19 0 -14 -77 -47
-152 -63 l-63 -14 88 -1 c66 -1 88 -4 85 -13 -7 -20 -60 -34 -265 -72 -448
-84 -648 -102 -1493 -136 -146 -6 -303 -16 -350 -21 -148 -17 -432 -23 -465
-10 -57 23 -4 31 208 31 l207 0 -6 40 c-6 35 -4 41 17 50 18 7 3 8 -53 4 -48
-4 -89 -2 -112 6 -46 15 -110 88 -135 154 -28 77 -55 249 -42 273 12 24 8 23
589 54 442 23 462 22 462 -23 0 -13 -4 -28 -8 -35 -11 -17 -57 -33 -100 -34
-36 -1 -35 -2 10 -9 58 -10 71 -17 60 -35 -13 -25 -75 -65 -98 -65 -13 0 -26
-5 -30 -12 -5 -8 25 -9 122 -4 341 18 610 39 619 48 7 7 -26 9 -110 4 -264
-14 -451 -17 -463 -8 -20 14 5 59 40 71 16 6 127 18 246 26 119 9 222 21 227
27 7 7 -17 8 -76 3 l-87 -7 -12 74 c-29 170 29 428 114 507 14 13 47 29 73 36
60 15 83 45 89 116 7 73 -17 123 -62 127 -26 3 -37 -4 -68 -39 -20 -23 -45
-68 -56 -98 -27 -73 -41 -101 -53 -101 -17 0 3 54 76 200 70 141 73 146 124
173 28 15 54 36 58 46 3 10 -3 37 -14 61 -25 57 -14 88 58 161 81 80 222 144
300 134 21 -3 48 -17 69 -37z m-4732 21 c4 -7 -3 -19 -15 -28 -12 -9 -28 -28
-34 -41 -16 -30 -71 -58 -132 -66 -28 -4 -54 -13 -58 -21 -13 -22 -55 -15 -73
13 -16 23 -21 25 -68 19 -46 -6 -56 -3 -106 29 -70 45 -82 55 -75 67 13 20 59
8 96 -26 l39 -35 128 0 c138 0 145 2 222 69 37 32 64 39 76 20z m2070 -46 c19
-14 42 -39 50 -54 16 -31 19 -72 5 -67 -12 4 -111 128 -111 139 0 16 21 9 56
-18z m-209 -57 c-11 -27 -27 -17 -27 16 0 30 1 31 16 16 9 -9 14 -24 11 -32z
m-1037 -36 c0 -54 -15 -83 -30 -60 -13 20 -13 86 1 112 16 29 29 6 29 -52z
m866 -127 c-3 -7 -12 -13 -21 -13 -21 0 -20 68 3 139 l17 56 3 -84 c2 -46 1
-90 -2 -98z m3829 7 c0 -24 -46 -40 -115 -40 -63 0 -102 12 -88 26 14 13 113
33 158 31 32 -1 45 -6 45 -17z m-3425 -57 c0 -50 -31 -128 -55 -137 -8 -3 -15
-4 -15 -2 0 9 42 172 46 178 13 21 24 3 24 -39z m-2296 -14 c-8 -14 -34 -11
-34 4 0 8 3 17 7 20 9 9 34 -13 27 -24z m-74 0 c0 -11 -27 -12 -34 0 -3 4 -3
11 0 14 8 8 34 -3 34 -14z m1947 -5 c6 -16 -12 -34 -34 -34 -7 0 -13 9 -13 19
0 18 12 28 33 30 4 1 10 -6 14 -15z m3821 10 c56 -15 6 -41 -96 -50 -71 -5
-106 6 -85 27 22 22 130 36 181 23z m-3843 -85 c11 -17 7 -110 -6 -125 -20
-24 -29 -5 -29 67 0 53 3 69 14 69 8 0 18 -5 21 -11z m3855 -2 c0 -23 -31
-121 -46 -144 -8 -14 -28 -24 -51 -28 -100 -16 -111 -29 -33 -39 27 -4 52 -11
55 -16 9 -14 -30 -30 -77 -31 l-43 -1 31 -13 c34 -15 59 -41 47 -48 -4 -2 -29
-8 -55 -11 -49 -7 -67 -26 -24 -26 26 0 51 -23 42 -39 -10 -15 -146 -35 -158
-23 -15 15 -3 41 23 51 15 5 18 10 11 15 -17 10 -15 44 8 113 26 74 51 103 93
104 l32 1 -31 8 c-59 14 -67 19 -55 34 7 8 30 17 52 20 21 3 57 9 79 12 63 9
36 24 -41 23 -73 -1 -90 4 -72 22 27 27 213 41 213 16z m-6240 -17 c0 -11 -4
-20 -10 -20 -5 0 -10 9 -10 20 0 11 5 20 10 20 6 0 10 -9 10 -20z m329 -6 c47
-6 51 -9 51 -34 0 -15 9 -35 20 -45 29 -26 34 -54 16 -74 -16 -17 -15 -19 14
-24 21 -5 30 -12 30 -25 0 -11 14 -37 31 -58 38 -48 63 -94 54 -102 -11 -11
-59 23 -82 58 -12 19 -29 42 -36 50 -59 65 -82 120 -57 135 20 12 9 21 -19 17
-22 -3 -32 1 -40 16 -6 11 -26 25 -45 32 -41 13 -60 34 -52 56 5 12 14 15 35
11 15 -3 51 -9 80 -13z m1159 -34 c4 -47 -10 -72 -30 -52 -13 13 -15 73 -3 92
14 22 30 3 33 -40z m4475 21 c14 -14 -20 -31 -79 -42 -33 -5 -130 -12 -216
-16 -138 -5 -158 -4 -158 9 0 33 31 41 203 53 167 13 234 11 250 -4z m-8 -85
c0 -23 -55 -45 -140 -55 -114 -14 -355 -14 -355 -1 0 5 12 17 26 27 44 28 469
55 469 29z m-5796 -22 c-9 -11 -15 -12 -26 -3 -17 14 1 31 24 22 10 -4 11 -9
2 -19z m2637 -5 c10 -17 -13 -36 -27 -22 -12 12 -4 33 11 33 5 0 12 -5 16 -11z
m-1513 -18 c32 -5 53 -15 63 -29 8 -12 21 -22 29 -22 8 0 17 -5 20 -10 9 -15
-22 -60 -41 -60 -9 0 -29 -14 -45 -32 -27 -28 -37 -31 -102 -36 -72 -4 -333
12 -374 24 -32 9 -29 21 7 29 50 11 45 25 -9 25 -91 0 -132 34 -65 54 67 20
70 25 17 25 -52 1 -77 16 -52 32 17 11 486 11 552 0z m221 0 c9 -14 -4 -39
-22 -43 -26 -7 -42 2 -42 22 0 26 51 42 64 21z m861 -8 c14 -13 16 -28 12 -71
-8 -75 -19 -85 -86 -80 -47 4 -52 3 -36 -9 11 -7 22 -13 27 -13 4 0 8 -7 8
-15 0 -14 -12 -21 -90 -53 -25 -11 -25 -11 6 -11 17 -1 37 -7 43 -15 10 -12 7
-18 -18 -30 -16 -9 -37 -16 -46 -16 -20 0 -19 -10 2 -25 27 -20 9 -45 -33 -45
l-37 0 7 63 c8 78 37 187 60 221 14 22 24 26 67 26 56 0 65 21 13 30 -40 7
-37 32 6 47 49 17 76 16 95 -4z m590 -37 c7 -21 6 -29 -5 -36 -23 -14 -44 13
-36 45 8 32 28 28 41 -9z m2971 2 c11 -18 -34 -48 -75 -49 l-36 -1 34 -8 c30
-7 50 -24 51 -41 0 -16 -33 -30 -96 -43 -63 -12 -65 -14 -27 -15 48 -1 93 -16
93 -31 0 -5 -9 -19 -20 -30 -11 -11 -20 -31 -20 -44 0 -29 -14 -41 -60 -54
l-35 -9 27 -11 c56 -23 41 -46 -41 -62 -29 -5 -144 -17 -254 -25 -111 -8 -226
-18 -254 -21 -52 -6 -53 -6 -53 20 0 34 24 43 133 53 l82 7 -70 8 c-114 14
-118 35 -25 122 36 33 57 46 71 43 10 -3 19 -1 19 4 0 5 -4 9 -10 9 -5 0 -10
7 -10 16 0 21 58 125 78 142 10 7 50 12 106 13 50 1 134 5 186 9 153 11 198
11 206 -2z m-5620 -39 c10 -17 -13 -36 -27 -22 -12 12 -4 33 11 33 5 0 12 -5
16 -11z m1198 -5 c3 -9 6 -35 6 -59 0 -45 -16 -68 -31 -44 -12 20 -22 96 -14
108 9 16 32 13 39 -5z m106 1 c18 -22 3 -57 -23 -53 -25 3 -34 32 -17 53 16
19 24 19 40 0z m1365 -65 c15 -29 15 -31 -10 -56 -32 -32 -31 -34 4 -34 38 0
47 -15 27 -45 -15 -23 -69 -45 -110 -45 -17 0 -18 6 -13 59 7 77 39 151 66
151 13 0 27 -12 36 -30z m3245 -5 c0 -16 -27 -27 -36 -14 -3 5 -3 16 0 24 6
17 36 9 36 -10z m-5892 -47 c15 -19 19 -50 6 -55 -19 -6 -58 32 -51 50 8 20
30 22 45 5z m1282 -18 c0 -11 -4 -20 -10 -20 -5 0 -10 9 -10 20 0 11 5 20 10
20 6 0 10 -9 10 -20z m3060 -6 c0 -8 -9 -14 -20 -14 -22 0 -28 26 -7 33 16 6
27 -1 27 -19z m1516 15 c10 -17 -13 -36 -27 -22 -12 12 -4 33 11 33 5 0 12 -5
16 -11z m-3109 -31 c-3 -7 -5 -2 -5 12 0 14 2 19 5 13 2 -7 2 -19 0 -25z
m1690 -34 c-21 -40 -28 -15 -9 31 14 33 17 36 20 18 2 -12 -3 -34 -11 -49z
m-3415 33 c20 -8 41 -25 47 -36 17 -31 -10 -86 -54 -112 -19 -12 -35 -25 -35
-29 0 -5 18 -30 40 -55 22 -25 40 -52 40 -60 0 -9 -24 -17 -72 -25 -108 -17
-105 -18 41 -19 l134 -1 -6 -47 c-5 -51 -25 -73 -66 -73 -57 0 -52 -15 24 -72
41 -31 89 -59 105 -63 17 -4 30 -10 30 -15 0 -12 -144 -70 -174 -70 -14 0 -26
-4 -26 -9 0 -11 25 -21 50 -21 11 0 23 -6 27 -14 4 -7 24 -21 43 -31 42 -21
69 -53 70 -81 0 -25 -41 -33 -184 -35 l-91 -2 84 -8 c84 -8 100 -13 87 -26
-13 -14 -359 -9 -381 5 -20 11 -20 12 3 18 46 13 22 26 -67 36 -14 2 -26 8
-28 14 -6 17 97 24 293 19 249 -6 169 11 -110 24 -121 5 -223 14 -229 20 -10
10 7 13 158 30 l80 8 -130 2 c-132 1 -177 11 -142 32 27 16 20 29 -15 29 -37
0 -67 15 -55 26 4 5 42 11 85 14 77 6 77 6 32 14 -25 5 -73 9 -107 8 -60 0
-81 9 -47 22 9 3 64 6 122 7 59 1 148 4 197 8 83 6 75 7 -115 15 -113 5 -223
11 -245 15 l-40 7 40 7 c22 3 103 10 180 14 l140 8 -167 5 c-94 3 -172 9 -177
15 -6 6 -13 24 -17 41 -8 41 4 44 179 44 84 0 137 4 137 10 0 6 -4 10 -10 10
-22 0 -8 26 20 37 41 16 38 33 -7 33 -21 0 -44 4 -52 9 -25 16 24 31 106 32
126 1 131 15 8 22 -119 8 -165 15 -165 27 0 11 46 18 176 27 l119 7 -153 12
c-84 7 -165 15 -180 19 l-27 7 25 10 c13 5 101 14 195 21 l170 12 -196 5
c-150 4 -200 9 -213 20 -31 25 6 40 97 40 49 0 76 4 72 10 -3 6 -23 10 -43 10
-49 0 -112 18 -112 32 0 18 436 5 482 -15z m179 -4 c5 -15 9 -47 7 -72 -3 -39
-6 -46 -25 -49 -26 -4 -30 16 -12 49 8 16 7 25 -5 38 -17 18 -21 43 -9 54 14
15 34 6 44 -20z m-953 -25 c7 -16 20 -28 28 -28 17 0 19 -27 2 -33 -30 -10
-88 45 -88 83 0 22 45 5 58 -22z m5582 -17 c-11 -22 -37 -34 -45 -21 -3 5 4
19 15 30 24 24 45 18 30 -9z m-100 -1 c22 -13 4 -26 -60 -43 -55 -15 -55 -15
-22 -22 35 -8 42 -28 15 -44 -15 -9 -12 -10 15 -11 26 0 41 8 65 35 29 33 60
45 71 27 3 -5 0 -27 -6 -51 -13 -50 -15 -52 -161 -76 -59 -10 -110 -22 -113
-27 -3 -5 9 -7 28 -4 80 12 194 16 208 6 28 -19 -16 -37 -123 -49 -56 -7 -115
-14 -132 -16 -52 -8 -59 5 -38 65 19 55 38 70 91 70 27 1 27 1 -6 15 -29 13
-32 18 -26 42 10 40 31 80 46 86 23 9 132 7 148 -3z m-5671 -43 c6 -8 8 -17 5
-20 -9 -8 -44 11 -44 23 0 15 26 12 39 -3z m1271 -49 c0 -51 30 -122 59 -140
48 -29 10 -79 -44 -58 -19 7 -25 21 -35 82 -6 40 -15 90 -20 110 -8 41 -5 48
22 48 15 0 18 -8 18 -42z m3076 15 c-20 -97 -28 -224 -17 -299 6 -43 13 -89
17 -100 7 -26 -1 -30 -111 -45 -140 -20 -160 3 -107 116 35 72 77 125 101 125
26 0 32 10 16 27 -18 17 -9 39 36 91 16 18 29 39 29 47 0 25 19 65 31 65 7 0
9 -10 5 -27z m-1771 7 c3 -5 11 -51 16 -102 9 -81 22 -119 109 -332 143 -352
145 -361 107 -481 l-23 -70 -74 -6 c-128 -12 -527 -22 -545 -15 -17 6 -17 7 1
21 19 15 19 15 0 30 -24 19 -15 40 29 66 19 12 35 23 35 24 0 2 -53 3 -117 2
-85 -1 -126 3 -148 14 -35 17 -44 43 -18 55 10 4 133 10 273 13 246 6 251 6
131 14 -68 4 -191 7 -273 7 l-148 0 0 45 0 45 258 1 c141 1 307 4 367 8 105 6
101 6 -110 13 -121 5 -269 8 -330 9 -130 1 -160 8 -160 34 0 35 45 45 217 52
195 7 242 22 78 24 -63 1 -149 4 -190 8 -72 6 -75 7 -78 32 -2 18 3 29 15 34
10 4 101 11 203 16 286 13 511 39 342 39 -64 0 -112 13 -112 30 0 19 40 50 63
50 41 0 60 32 54 87 -16 124 -20 143 -33 143 -19 0 -47 47 -40 65 10 28 88 47
101 25z m-2285 -14 c0 -8 14 -19 31 -25 46 -16 26 -31 -42 -31 -55 0 -60 2
-69 26 -16 40 -13 44 35 44 32 0 45 -4 45 -14z m-378 -48 c-16 -16 -37 4 -28
28 6 16 8 16 23 1 13 -13 15 -19 5 -29z m1268 7 c0 -12 -33 -33 -45 -29 -18 7
-20 41 -2 47 11 4 47 -9 47 -18z m-1132 -27 c14 -14 16 -48 4 -48 -15 0 -44
38 -37 49 8 14 18 14 33 -1z m1720 -5 c19 -36 -12 -59 -38 -28 -15 18 -6 45
14 45 9 0 19 -8 24 -17z m432 -82 c8 -78 28 -117 66 -131 19 -8 24 -17 24 -44
0 -25 -6 -38 -19 -46 -21 -11 -201 -14 -238 -4 -53 14 -2 74 62 74 33 0 32 18
-1 22 -43 5 -50 28 -25 81 29 60 101 141 113 129 6 -6 14 -42 18 -81z m-1811
55 c19 -23 -13 -34 -76 -25 -60 8 -68 12 -58 28 10 17 120 14 134 -3z m789 -8
c19 -19 14 -28 -18 -28 -16 0 -30 4 -30 8 0 9 21 32 30 32 3 0 11 -5 18 -12z
m4161 6 c38 -8 39 -23 6 -54 -14 -13 -25 -29 -25 -35 0 -30 -30 -48 -96 -60
-46 -9 -58 -13 -36 -14 37 -1 72 -16 72 -31 0 -22 -56 -44 -124 -50 l-71 -6
43 -13 c67 -19 53 -38 -80 -105 -113 -57 -119 -59 -198 -60 -67 -1 -84 2 -93
16 -15 22 -7 28 45 36 l43 6 -57 7 c-32 3 -65 12 -73 19 -20 16 -20 103 -1
119 8 7 49 15 92 20 l79 7 -80 8 c-44 4 -88 10 -97 12 -24 7 -23 36 2 57 11 9
20 28 20 41 0 13 7 29 15 36 13 10 227 29 495 43 36 2 70 4 76 5 6 1 26 -1 43
-4z m-4899 -64 c13 -9 13 -11 0 -20 -8 -5 -24 -10 -35 -11 -11 -1 7 -5 40 -10
74 -11 88 -16 80 -29 -10 -16 -159 -12 -202 5 -46 18 -72 53 -51 66 18 12 150
11 168 -1z m1333 3 c9 -9 -13 -34 -24 -27 -14 8 -11 34 4 34 8 0 17 -3 20 -7z
m-579 -34 c33 -26 34 -49 1 -49 -26 0 -62 41 -50 60 9 15 19 13 49 -11z
m-1089 1 c3 -5 -3 -10 -14 -10 -12 0 -21 5 -21 10 0 6 6 10 14 10 8 0 18 -4
21 -10z m1239 -119 c-2 -79 -37 -80 -55 -1 -12 55 2 78 35 56 16 -11 21 -24
20 -55z m-1216 25 c3 -12 -1 -17 -10 -14 -7 3 -15 13 -16 22 -3 12 1 17 10 14
7 -3 15 -13 16 -22z m1111 -33 c21 -75 5 -129 -26 -88 -13 19 -18 106 -6 118
14 14 22 6 32 -30z m-1269 -3 c0 -11 -7 -20 -15 -20 -15 0 -21 21 -8 33 12 13
23 7 23 -13z m2396 -31 c10 -17 -13 -36 -27 -22 -12 12 -4 33 11 33 5 0 12 -5
16 -11z m-2177 -23 c9 -10 9 -16 1 -21 -16 -10 -40 2 -40 20 0 19 24 20 39 1z
m1185 -23 c3 -10 10 -58 15 -107 7 -55 16 -95 26 -106 10 -11 15 -31 13 -52
-2 -26 -8 -34 -27 -36 -32 -5 -44 17 -26 45 13 20 13 26 -5 55 -24 42 -53 164
-45 195 6 27 41 31 49 6z m-1134 -78 c0 -8 -7 -15 -15 -15 -8 0 -15 7 -15 15
0 8 7 15 15 15 8 0 15 -7 15 -15z m1035 -19 c31 -73 27 -225 -4 -177 -5 8 -15
44 -21 80 -6 36 -15 78 -20 93 -16 50 24 54 45 4z m-1327 1 c2 -11 -3 -17 -16
-17 -26 0 -34 11 -20 27 14 17 32 12 36 -10z m436 -113 c9 -3 16 -17 16 -29 0
-19 7 -24 40 -30 75 -13 34 -39 -51 -33 -39 3 -44 5 -41 26 2 15 -2 22 -13 22
-9 0 -25 5 -36 11 -44 23 32 53 85 33z m2476 -42 c0 -15 -2 -15 -10 -2 -13 20
-13 33 0 25 6 -3 10 -14 10 -23z m-2783 12 c-3 -3 -12 -4 -19 -1 -8 3 -5 6 6
6 11 1 17 -2 13 -5z m-54 -61 c-7 -2 -19 -2 -25 0 -7 3 -2 5 12 5 14 0 19 -2
13 -5z m32 -44 c0 -8 -12 -15 -27 -17 -31 -4 -37 12 -10 27 21 13 37 9 37 -10z
m502 7 c13 -12 -9 -20 -67 -24 -64 -5 -110 3 -110 18 0 5 12 11 28 13 34 6
141 1 149 -7z m773 -60 c0 -37 -14 -61 -28 -52 -16 9 -26 71 -17 103 l7 28 19
-24 c10 -13 19 -37 19 -55z m84 68 c9 -3 16 -11 16 -18 0 -6 11 -28 25 -48 31
-46 31 -50 -2 -46 -22 2 -29 9 -31 31 -2 15 -9 27 -16 27 -8 0 -19 7 -26 15
-10 12 -10 18 0 30 14 17 13 17 34 9z m-824 -64 c24 -15 2 -25 -58 -25 -68 0
-104 11 -82 25 19 12 121 12 140 0z m2400 -4 c0 -8 -4 -17 -9 -21 -12 -7 -24
12 -16 25 9 15 25 12 25 -4z m-1820 -43 c36 -26 58 -34 110 -39 85 -8 99 -12
80 -24 -26 -17 -401 -4 -462 16 -48 15 -7 24 107 24 69 0 125 4 125 9 0 4 -78
11 -172 14 -95 3 -182 9 -193 13 -40 16 26 23 195 21 l165 -2 45 -32z m485 27
c9 -15 -4 -68 -22 -85 -10 -11 -38 -15 -103 -15 -133 0 -152 13 -72 49 26 12
63 31 82 41 37 21 105 27 115 10z m3743 -24 c-10 -7 -18 -23 -18 -35 0 -31
-34 -42 -249 -85 -180 -36 -220 -39 -205 -14 5 7 -4 5 -18 -4 -76 -50 -488
-95 -978 -108 -950 -24 -2777 -22 -2819 4 -8 5 -8 13 -1 27 15 27 1 24 -32 -8
-25 -24 -37 -28 -86 -27 -66 0 -112 10 -112 24 0 6 10 10 22 10 14 0 18 4 13
9 -14 13 -173 34 -202 26 -38 -9 -16 -25 35 -25 58 0 87 -15 45 -23 -62 -12
-557 33 -611 55 l-27 12 24 4 c13 2 74 -1 136 -7 219 -22 223 -10 8 24 -81 12
-168 29 -193 36 l-45 13 34 4 c18 2 102 -6 185 -17 83 -11 198 -25 256 -31
479 -45 1575 -61 2660 -40 999 19 1477 59 1995 164 66 13 138 25 160 25 35 0
38 -1 23 -13z m-5241 -26 c77 -13 168 -13 254 1 39 6 73 8 77 4 12 -11 -22
-25 -64 -25 -26 0 -47 -6 -55 -16 -11 -13 -26 -15 -74 -11 -86 8 -199 35 -221
53 -18 14 -18 15 3 9 11 -3 47 -10 80 -15z m1963 -15 c0 -8 -9 -15 -20 -15
-20 0 -26 11 -13 23 12 13 33 7 33 -8z m-910 -66 c91 -6 172 -15 180 -21 23
-14 -398 -1 -504 16 -186 31 -98 32 324 5z m453 -10 c10 -6 16 -16 14 -22 -7
-22 -225 -5 -230 18 -5 24 171 27 216 4z m315 -14 c13 -13 -16 -20 -89 -24
-131 -5 -218 17 -124 32 35 6 206 -1 213 -8z m3367 -4 c8 -14 -23 -28 -80 -36
-78 -10 -95 -15 -95 -26 0 -7 24 -10 70 -7 38 1 71 -1 72 -6 5 -16 -63 -28
-119 -22 -105 12 -168 15 -153 9 8 -3 26 -10 40 -16 24 -9 22 -10 -25 -23
-144 -39 -869 -91 -1430 -104 -727 -16 -2118 -8 -2540 16 -38 2 -96 4 -129 3
-45 0 -63 4 -80 20 -21 20 -21 20 -65 -1 -55 -25 -127 -21 -166 10 -24 19 -29
20 -42 7 -23 -24 -104 -19 -160 10 -34 18 -83 30 -168 41 -253 33 -113 31 395
-6 146 -11 335 -23 420 -26 141 -7 156 -9 177 -30 l22 -22 14 22 14 21 1414 6
c877 4 1473 11 1569 18 277 20 744 86 920 130 87 22 117 25 125 12z m-98 -156
c-19 -14 -154 -41 -163 -32 -5 5 139 45 166 46 12 0 11 -3 -3 -14z m-4864 -12
c-7 -2 -19 -2 -25 0 -7 3 -2 5 12 5 14 0 19 -2 13 -5z m4495 -58 c4 -3 0 -10
-8 -15 -20 -13 -130 -13 -130 0 0 23 118 35 138 15z m-209 -14 c32 -20 -68
-42 -113 -25 -21 8 -20 21 2 27 31 8 97 7 111 -2z m486 -1 c3 -5 -3 -10 -15
-10 -12 0 -18 5 -15 10 3 6 10 10 15 10 5 0 12 -4 15 -10z m-695 -19 c42 -12
-83 -21 -293 -21 -117 0 -187 4 -181 9 5 5 23 11 39 14 51 7 408 5 435 -2z
m530 -5 c0 -16 -21 -26 -56 -26 -34 0 -30 15 9 28 44 14 47 14 47 -2z m90 4
c0 -5 -9 -10 -21 -10 -11 0 -17 5 -14 10 3 6 13 10 21 10 8 0 14 -4 14 -10z
m-1170 -19 c-8 -5 -47 -14 -87 -21 -78 -13 -109 -6 -78 17 12 8 47 13 99 13
50 0 75 -4 66 -9z m1285 -10 c-11 -10 -140 -51 -161 -51 -31 0 -11 19 34 34
81 26 145 34 127 17z m-1735 -15 c0 -16 -27 -29 -41 -20 -13 8 9 34 27 34 8 0
14 -6 14 -14z m195 5 c7 -12 -26 -31 -52 -31 -26 0 -47 16 -39 29 9 13 83 15
91 2z m1005 0 c0 -10 -11 -14 -60 -25 -14 -3 -133 -10 -265 -16 -132 -6 -318
-17 -413 -25 -200 -17 -351 -20 -337 -6 15 14 304 38 615 51 229 9 338 16 448
29 6 0 12 -3 12 -8z m150 -1 c0 -15 -39 -32 -60 -25 -21 7 -25 17 -13 28 10
11 73 8 73 -3z m-1490 -30 c0 -12 -48 -25 -58 -16 -8 9 18 26 41 26 9 0 17 -4
17 -10z m1610 -15 c0 -5 -23 -11 -52 -12 -53 -2 -53 -2 -23 12 33 16 76 16 75
0z m230 -14 c0 -11 -25 -21 -56 -21 -23 0 -31 10 -17 23 10 10 73 8 73 -2z
m-400 -10 c0 -11 -55 -18 -205 -27 -87 -5 -108 -3 -98 7 21 21 303 40 303 20z
m-1322 -28 c-10 -2 -26 -2 -35 0 -10 3 -2 5 17 5 19 0 27 -2 18 -5z m961 3
c-2 -2 -101 -11 -219 -21 -118 -9 -259 -23 -312 -31 -110 -16 -186 -18 -207
-5 -19 12 -5 18 70 31 111 18 684 41 668 26z m471 -25 c0 -13 -27 -21 -68 -21
l-37 1 25 14 c28 16 80 20 80 6z m103 2 c-7 -2 -21 -2 -30 0 -10 3 -4 5 12 5
17 0 24 -2 18 -5z m137 -3 c0 -14 -55 -40 -85 -40 -52 0 -11 32 55 43 14 2 26
5 28 6 1 0 2 -3 2 -9z m-1857 -17 c-7 -2 -19 -2 -25 0 -7 3 -2 5 12 5 14 0 19
-2 13 -5z m1401 -2 c9 -14 -32 -21 -121 -21 -79 0 -113 14 -55 23 53 8 171 7
176 -2z m-1067 -15 c12 -12 -11 -26 -42 -26 -57 0 -88 22 -47 34 19 5 82 0 89
-8z m801 -1 c-17 -18 -727 -90 -741 -76 -15 15 34 31 97 31 29 0 93 7 142 15
49 9 132 19 184 24 108 9 326 14 318 6z m542 -13 c0 -10 -22 -32 -32 -32 -13
0 -9 28 5 33 19 8 27 8 27 -1z m-1530 -11 c0 -11 -25 -21 -56 -21 -23 0 -31
10 -17 23 10 10 73 8 73 -2z m1672 -23 c-14 -14 -85 -37 -95 -31 -15 9 19 35
54 42 38 9 56 4 41 -11z m-452 -7 c40 -11 7 -18 -141 -30 -388 -31 -598 -39
-552 -21 33 13 274 39 448 49 192 10 215 10 245 2z m-1247 -58 c-7 -2 -19 -2
-25 0 -7 3 -2 5 12 5 14 0 19 -2 13 -5z m1377 -8 c-8 -10 -29 -15 -64 -14
l-51 1 40 13 c22 8 51 14 64 14 20 1 21 -1 11 -14z m267 -10 c-19 -17 -40 -25
-65 -25 -44 0 -34 15 24 35 60 22 73 18 41 -10z m-450 1 c13 -13 -21 -26 -72
-26 -63 0 -128 17 -119 32 7 12 178 7 191 -6z m-1984 -3 c-7 -2 -19 -2 -25 0
-7 3 -2 5 12 5 14 0 19 -2 13 -5z m1240 -4 c-13 -13 -164 -25 -189 -15 -37 14
10 26 106 26 68 0 91 -3 83 -11z m497 2 c0 -12 -71 -29 -193 -46 -115 -16
-257 -20 -257 -6 0 11 88 26 260 45 159 17 190 18 190 7z m-767 -26 c1 -5 -18
-11 -43 -13 -42 -2 -44 -1 -25 13 21 17 64 17 68 0z m969 -31 c22 -14 -21 -24
-99 -24 -82 0 -118 14 -66 26 15 3 33 8 38 10 13 5 115 -5 127 -12z m187 7 c8
-6 -6 -11 -43 -15 -60 -8 -99 3 -56 15 36 10 83 10 99 0z m-1331 -8 c-10 -2
-26 -2 -35 0 -10 3 -2 5 17 5 19 0 27 -2 18 -5z m1628 -2 c-8 -13 -95 -41
-125 -41 -24 1 -25 1 -6 12 45 26 142 48 131 29z m-1172 -10 c7 -11 -53 -21
-136 -21 -65 0 -93 14 -45 23 42 8 176 7 181 -2z m418 -17 c-27 -12 -333 -54
-389 -54 -24 0 -13 18 15 25 42 12 301 43 357 43 l50 0 -33 -14z m-887 -24 c4
-6 -5 -10 -20 -10 -15 0 -24 4 -20 10 3 6 12 10 20 10 8 0 17 -4 20 -10z
m1335 -9 c0 -13 -39 -18 -290 -41 -124 -12 -287 -27 -364 -35 -164 -18 -224
-19 -210 -5 16 16 105 29 374 55 365 35 490 42 490 26z m-1600 -16 c10 -12 9
-16 -5 -21 -19 -8 -40 9 -31 25 10 15 21 14 36 -4z m1835 -4 c7 -13 -5 -19
-53 -27 -48 -8 -58 9 -14 24 35 13 59 14 67 3z m-1150 -10 c6 -11 -10 -16 -72
-26 -72 -11 -173 13 -115 28 33 9 181 7 187 -2z m-275 -21 c0 -17 -41 -33 -53
-21 -9 9 -8 14 3 21 20 13 50 13 50 0z m-164 -25 c-21 -16 -56 -20 -56 -7 0
16 13 22 44 22 29 -1 30 -1 12 -15z m1329 6 c3 -5 2 -12 -2 -14 -38 -23 -118
-10 -83 13 19 12 77 13 85 1z m-1585 -26 c10 -13 9 -15 -9 -15 -12 0 -21 6
-21 15 0 8 4 15 9 15 5 0 14 -7 21 -15z m715 5 c10 -16 -36 -28 -137 -36 -65
-4 -97 -3 -102 4 -7 12 9 18 89 31 72 12 143 13 150 1z m622 -4 c13 -12 -7
-18 -67 -17 -67 0 -76 3 -65 22 8 12 120 8 132 -5z m123 0 c0 -16 -19 -25 -37
-18 -23 8 -14 32 12 32 15 0 25 -6 25 -14z m331 -16 c-24 -21 -111 -29 -111
-10 0 12 55 28 100 29 l35 0 -24 -19z m-676 0 c-29 -12 -148 -12 -140 0 3 6
41 10 83 9 52 0 71 -3 57 -9z m-710 -25 c0 -12 -50 -19 -71 -11 -9 3 -12 11
-9 16 8 14 80 9 80 -5z m535 5 c12 -7 10 -11 -10 -18 -42 -16 -177 -25 -185
-13 -8 14 8 20 86 30 90 12 92 12 109 1z m690 -5 c0 -8 -9 -15 -20 -15 -20 0
-26 11 -13 23 12 13 33 7 33 -8z m-1350 -5 c0 -13 -34 -30 -59 -30 -24 0 -27
10 -9 28 14 14 68 16 68 2z m1253 -15 c-3 -16 -42 -23 -138 -24 -65 0 -85 2
-73 10 40 23 215 35 211 14z m-839 -14 c9 -15 -23 -22 -129 -28 -71 -4 -97 -2
-90 5 21 23 207 42 219 23z m590 0 c9 -14 -48 -21 -164 -21 -117 0 -165 9
-120 21 37 10 278 10 284 0z m481 -11 c-9 -14 -84 -32 -104 -25 -14 6 -14 8 3
21 22 16 111 20 101 4z m-1382 -34 c3 -15 -29 -30 -49 -22 -18 7 -18 8 1 22
21 15 45 15 48 0z m450 -3 c-13 -2 -33 -2 -45 0 -13 2 -3 4 22 4 25 0 35 -2
23 -4z m713 0 c-10 -11 -219 -51 -233 -46 -20 8 -15 21 9 29 58 18 239 32 224
17z m-1296 -13 c0 -14 -24 -22 -52 -18 l-23 5 25 11 c32 14 50 15 50 2z m979
-6 c17 -4 28 -10 26 -14 -8 -13 -169 -23 -250 -15 -76 7 -98 20 -47 28 45 7
237 7 271 1z m-570 -14 c14 -1 14 -2 1 -9 -24 -14 -220 -25 -220 -13 0 16 117
33 174 26 16 -2 36 -4 45 -4z m1066 1 c7 -13 -2 -18 -48 -26 -25 -5 -37 -4
-37 4 0 22 73 40 85 22z m-165 -30 c38 -10 10 -23 -74 -32 -39 -4 -97 -11
-128 -15 -42 -5 -58 -3 -58 5 0 30 192 61 260 42z m-1200 -21 c0 -13 -32 -28
-48 -23 -10 4 -10 8 -1 19 13 16 49 19 49 4z m686 -13 c9 -9 -122 -9 -205 -1
-33 4 -61 10 -61 13 0 8 257 -3 266 -12z m174 4 c0 -12 -37 -21 -85 -21 -37 1
-39 2 -21 15 21 16 106 21 106 6z m-967 -16 c1 -5 -14 -11 -33 -13 -33 -2 -34
-2 -15 13 21 17 45 17 48 0z m1437 5 c0 -15 -35 -30 -69 -30 -38 0 -41 17 -3
26 15 3 32 7 37 9 20 7 35 5 35 -5z m-1247 -25 c1 -5 -6 -11 -15 -13 -11 -2
-18 3 -18 13 0 17 30 18 33 0z m210 8 c-7 -2 -21 -2 -30 0 -10 3 -4 5 12 5 17
0 24 -2 18 -5z m167 -28 c0 -13 -109 -13 -112 0 -4 13 49 22 85 15 15 -3 28
-9 27 -15z m638 6 c22 -14 -13 -22 -118 -28 -77 -4 -93 -3 -83 7 7 7 40 16 75
20 92 11 111 11 126 1z m72 0 c0 -6 -5 -13 -10 -16 -15 -9 -43 3 -35 15 8 13
45 13 45 1z m-326 -10 c7 -11 -9 -18 -70 -26 -39 -6 -47 -5 -37 5 6 7 26 16
45 20 46 11 56 11 62 1z m-241 -8 c-13 -2 -33 -2 -45 0 -13 2 -3 4 22 4 25 0
35 -2 23 -4z m-624 -12 c19 -12 5 -31 -24 -31 -31 0 -40 16 -18 29 22 13 25
13 42 2z m1304 2 c13 -12 -15 -33 -44 -33 -37 0 -37 15 -1 28 34 13 37 13 45
5z m-1153 -33 c12 -8 12 -10 -2 -15 -9 -4 -31 -5 -50 -3 l-33 4 25 11 c31 15
41 15 60 3z m574 -10 c16 -16 -13 -32 -44 -25 -14 3 -117 10 -229 15 -130 6
-208 14 -215 21 -15 15 473 4 488 -11z m95 -33 c-11 -25 -64 -56 -75 -44 -3 3
11 24 32 47 40 44 64 42 43 -3z m200 29 c9 -11 8 -15 -5 -20 -44 -17 -92 3
-57 23 25 15 49 13 62 -3z m96 4 c3 -5 -3 -10 -15 -10 -12 0 -18 5 -15 10 3 6
10 10 15 10 5 0 12 -4 15 -10z m155 -39 c0 -12 -82 -34 -111 -29 -24 3 -24 4
6 20 31 18 105 24 105 9z m-1114 -20 c-11 -17 -67 -34 -78 -23 -18 18 1 32 43
32 22 0 38 -4 35 -9z m122 2 c-10 -2 -26 -2 -35 0 -10 3 -2 5 17 5 19 0 27 -2
18 -5z m202 -2 c0 -12 -26 -21 -60 -21 -34 0 -60 9 -60 21 0 5 27 9 60 9 33 0
60 -4 60 -9z m98 2 c-10 -2 -26 -2 -35 0 -10 3 -2 5 17 5 19 0 27 -2 18 -5z
m492 -22 c0 -12 -52 -21 -126 -21 -60 0 -93 13 -57 23 33 9 183 7 183 -2z
m-510 -43 c-37 -15 -230 -24 -230 -10 0 16 25 20 145 20 85 1 104 -2 85 -10z
m148 0 c-6 -18 -22 -20 -43 -3 -19 14 -18 14 13 15 22 0 32 -4 30 -12z m85 5
c-7 -2 -21 -2 -30 0 -10 3 -4 5 12 5 17 0 24 -2 18 -5z m423 -8 c-19 -14 -86
-21 -86 -10 0 10 44 24 75 24 29 0 29 0 11 -14z m-1078 -12 c-4 -21 -55 -30
-72 -13 -14 14 9 30 47 30 22 0 28 -4 25 -17z m138 2 c-22 -16 -86 -21 -86 -6
0 13 20 19 65 20 37 0 39 -1 21 -14z m-298 -27 c-7 -20 -58 -23 -58 -4 0 11
10 16 31 16 20 0 29 -4 27 -12z m941 3 c16 -10 -71 -26 -196 -37 -57 -4 -83
-3 -83 4 0 13 41 22 148 32 111 11 116 11 131 1z m151 -1 c-20 -13 -60 -13
-60 0 0 6 17 10 38 10 27 0 33 -3 22 -10z m-1222 -22 c-6 -18 -28 -21 -28 -4
0 9 7 16 16 16 9 0 14 -5 12 -12z m732 3 c0 -5 -7 -12 -16 -15 -20 -8 -199 -8
-192 0 18 17 208 31 208 15z m600 -6 c0 -9 -90 -45 -112 -45 -17 0 -18 2 -8
15 18 22 120 47 120 30z m-890 -24 c0 -10 -100 -29 -106 -20 -6 10 12 21 50
29 32 7 56 3 56 -9z m-171 -5 c9 -11 8 -15 -5 -20 -43 -17 -73 2 -36 23 23 14
28 13 41 -3z m876 -16 c-5 -8 -68 -30 -87 -30 -17 0 -6 21 15 30 30 12 80 12
72 0z m-1020 -20 c4 -6 -5 -10 -20 -10 -15 0 -24 4 -20 10 3 6 12 10 20 10 8
0 17 -4 20 -10z m445 0 c13 -9 13 -11 0 -20 -8 -5 -28 -10 -45 -10 -16 0 -37
5 -45 10 -13 9 -13 11 0 20 8 5 29 10 45 10 17 0 37 -5 45 -10z m130 0 c0 -5
-9 -10 -20 -10 -11 0 -20 5 -20 10 0 6 9 10 20 10 11 0 20 -4 20 -10z m295 0
c-45 -11 -163 -11 -170 0 -4 6 30 10 97 9 69 -1 93 -4 73 -9z m275 -9 c0 -10
-58 -33 -122 -50 -42 -10 -51 1 -16 20 23 12 103 36 126 38 6 1 12 -3 12 -8z
m-1000 -31 c11 -7 9 -11 -13 -19 -35 -14 -58 -14 -77 -1 -13 9 -13 11 0 20 19
12 70 13 90 0z m137 -6 c5 -14 -42 -27 -68 -19 -16 6 -18 9 -8 21 14 17 70 15
76 -2z m287 -10 c22 -9 20 -21 -5 -27 -26 -7 -72 10 -64 23 7 11 45 13 69 4z
m186 -4 c12 -7 11 -10 -5 -17 -23 -9 -102 -9 -111 0 -23 23 81 39 116 17z
m150 -4 c0 -16 -19 -25 -37 -18 -23 8 -14 32 12 32 15 0 25 -6 25 -14z m-940
-21 c0 -15 -43 -12 -48 3 -3 10 4 13 22 10 15 -2 26 -7 26 -13z m453 8 c-13
-2 -33 -2 -45 0 -13 2 -3 4 22 4 25 0 35 -2 23 -4z m687 -8 c0 -10 -10 -15
-32 -15 -31 1 -32 1 -14 15 25 19 46 19 46 0z m-1267 -32 c-7 -2 -21 -2 -30 0
-10 3 -4 5 12 5 17 0 24 -2 18 -5z m1133 -8 c-22 -17 -66 -20 -66 -6 0 13 19
19 55 20 29 0 29 0 11 -14z m-676 -5 c0 -6 -25 -10 -57 -9 -42 0 -52 3 -38 9
28 12 95 12 95 0z m125 4 c13 -5 14 -8 3 -15 -18 -12 -58 -11 -58 0 0 5 8 12
18 14 9 3 18 5 19 6 1 0 9 -2 18 -5z m440 0 c13 -5 14 -8 3 -15 -18 -12 -58
-11 -58 0 0 5 8 12 18 14 9 3 18 5 19 6 1 0 9 -2 18 -5z m-757 -11 c-10 -2
-26 -2 -35 0 -10 3 -2 5 17 5 19 0 27 -2 18 -5z m435 0 c-7 -2 -21 -2 -30 0
-10 3 -4 5 12 5 17 0 24 -2 18 -5z m217 -3 c0 -18 -23 -20 -85 -6 l-60 14 73
1 c43 1 72 -3 72 -9z m-765 -21 c0 -8 -12 -15 -27 -17 -32 -4 -40 23 -10 31
25 7 37 2 37 -14z m1095 11 c0 -13 -34 -30 -59 -30 -26 0 -27 15 -3 29 22 13
62 14 62 1z m-575 -39 c8 -14 -62 -34 -91 -27 -28 7 -32 23 -6 29 32 9 91 7
97 -2z m135 -21 c0 -6 -13 -10 -30 -10 -32 0 -37 9 -18 28 12 12 48 -1 48 -18z
m95 9 c0 -9 -13 -15 -35 -17 l-35 -2 24 20 c26 22 46 22 46 -1z m168 14 c4 -3
2 -12 -4 -20 -9 -10 -15 -10 -25 -2 -8 6 -11 15 -8 20 6 11 28 12 37 2z m-790
-20 c10 -10 -13 -33 -33 -33 -20 0 -43 23 -33 33 3 4 18 7 33 7 15 0 30 -3 33
-7z m132 -3 c4 -6 -5 -10 -20 -10 -15 0 -24 4 -20 10 3 6 12 10 20 10 8 0 17
-4 20 -10z m780 -29 c7 -13 -15 -18 -105 -26 -82 -8 -87 1 -13 21 58 15 110
17 118 5z m-1075 -11 c0 -5 -9 -10 -20 -10 -11 0 -20 5 -20 10 0 6 9 10 20 10
11 0 20 -4 20 -10z m547 -14 c-24 -19 -168 -39 -180 -27 -18 18 58 39 143 40
48 0 53 -1 37 -13z m180 -13 c3 -7 -6 -15 -19 -18 -28 -7 -78 9 -78 25 0 15
92 8 97 -7z m113 8 c0 -5 -7 -14 -15 -21 -18 -15 -42 1 -31 19 8 13 46 15 46
2z m-710 -21 c0 -17 -41 -33 -53 -21 -9 9 -8 14 3 21 20 13 50 13 50 0z m147
-6 c5 -15 -39 -26 -52 -13 -7 7 -5 13 5 19 18 12 42 9 47 -6z m743 -14 c0 -14
-44 -30 -81 -30 -43 0 -35 16 14 27 57 14 67 15 67 3z m-424 -21 c51 -13 54
-32 6 -37 -22 -2 -34 2 -38 12 -3 9 -14 16 -24 16 -11 0 -22 5 -25 10 -8 13
26 13 81 -1z m-178 -21 c-3 -9 -33 -14 -93 -16 -49 -2 -86 0 -83 4 23 22 183
33 176 12z m312 -3 c0 -8 -7 -15 -15 -15 -8 0 -15 7 -15 15 0 8 7 15 15 15 8
0 15 -7 15 -15z m-589 -6 c26 -13 15 -29 -21 -29 -35 0 -47 15 -23 29 23 13
21 13 44 0z m229 -59 l25 -7 -28 -12 c-34 -13 -147 -15 -147 -2 0 5 24 14 53
19 64 12 66 12 97 2z m282 -22 c-15 -15 -26 -4 -18 18 5 13 9 15 18 6 9 -9 9
-15 0 -24z m108 18 c0 -8 -4 -17 -9 -21 -12 -7 -24 12 -16 25 9 15 25 12 25
-4z m-615 -15 c9 -15 -34 -33 -62 -26 -20 5 -23 8 -13 20 14 17 66 20 75 6z
m330 -1 c3 -5 -3 -10 -15 -10 -12 0 -18 5 -15 10 3 6 10 10 15 10 5 0 12 -4
15 -10z m-495 -39 c0 -5 -7 -14 -15 -21 -13 -10 -15 -9 -15 9 0 12 6 21 15 21
8 0 15 -4 15 -9z m840 0 c0 -12 -20 -25 -27 -18 -7 7 6 27 18 27 5 0 9 -4 9
-9z m-454 -22 c6 -10 -11 -29 -26 -29 -3 0 -11 4 -19 9 -17 11 -5 31 19 31 10
0 22 -5 26 -11z m96 -22 c-15 -7 -29 -7 -44 0 l-23 11 25 10 c17 6 32 6 45 -1
19 -10 19 -10 -3 -20z m118 19 c0 -8 -4 -17 -9 -21 -12 -7 -24 12 -16 25 9 15
25 12 25 -4z m105 5 c3 -6 -3 -15 -14 -21 -21 -11 -37 2 -26 20 8 13 32 13 40
1z m-452 -18 c9 -9 -13 -34 -24 -27 -14 8 -11 34 4 34 8 0 17 -3 20 -7z m517
-38 c-26 -28 -50 -33 -50 -10 0 15 31 33 59 34 10 1 7 -7 -9 -24z m105 10
c-35 -17 -55 -19 -55 -6 0 13 19 19 55 19 l30 0 -30 -13z m-325 -34 c0 -12
-20 -25 -27 -18 -7 7 6 27 18 27 5 0 9 -4 9 -9z m-300 -27 c0 -8 -10 -14 -25
-14 -26 0 -35 25 -12 33 18 6 37 -3 37 -19z m566 -5 c10 -17 -13 -36 -27 -22
-12 12 -4 33 11 33 5 0 12 -5 16 -11z m-698 -6 c-10 -2 -26 -2 -35 0 -10 3 -2
5 17 5 19 0 27 -2 18 -5z m562 -46 c0 -19 -21 -37 -42 -37 -25 0 -23 16 4 34
27 19 38 20 38 3z m-332 -14 c5 -17 -26 -29 -40 -15 -6 6 -7 15 -3 22 9 14 37
9 43 -7z m438 6 c9 -16 -12 -33 -31 -25 -14 5 -15 9 -5 21 15 18 26 19 36 4z
m-696 -19 c0 -5 -7 -10 -15 -10 -8 0 -15 5 -15 10 0 6 7 10 15 10 8 0 15 -4
15 -10z m144 2 c8 -13 -11 -35 -23 -28 -16 10 -14 36 3 36 8 0 17 -4 20 -8z
m316 -20 c0 -11 -51 -35 -58 -28 -2 3 -2 12 1 21 7 15 57 22 57 7z m170 -46
c0 -16 -37 -28 -46 -15 -8 14 5 29 27 29 10 0 19 -6 19 -14z m-592 -18 c-5
-14 -51 -23 -74 -14 -27 10 -4 26 37 26 28 0 39 -4 37 -12z m86 -69 c-7 -11
-44 -12 -44 -1 0 4 5 13 12 20 13 13 42 -4 32 -19z m446 6 c-7 -9 -29 -15 -54
-15 -38 1 -40 2 -22 15 11 8 35 15 54 15 30 0 33 -2 22 -15z m-557 -12 c-7 -2
-21 -2 -30 0 -10 3 -4 5 12 5 17 0 24 -2 18 -5z m101 -52 c9 -15 -23 -36 -36
-23 -5 5 -7 15 -4 21 9 13 33 14 40 2z m396 -10 c0 -24 -139 -48 -150 -26 -3
6 11 15 30 22 41 14 120 17 120 4z m-2370 -96 c11 -13 8 -15 -14 -15 -16 0
-26 5 -26 15 0 8 6 15 14 15 7 0 19 -7 26 -15z m2387 -1 c3 -9 -57 -34 -81
-34 -11 0 -6 18 10 35 18 17 65 17 71 -1z m-117 -4 c0 -14 -35 -30 -67 -30
l-28 1 24 19 c24 21 71 27 71 10z m219 -9 c30 -19 -38 -61 -100 -61 l-32 0 39
35 c39 34 67 42 93 26z m-369 -21 c0 -17 -49 -43 -67 -35 -16 6 -16 8 6 26 25
20 61 26 61 9z m-131 -9 c10 -7 8 -12 -10 -25 -42 -29 -94 -9 -54 21 21 15 44
17 64 4z m606 -1 c4 -6 1 -18 -7 -27 -16 -20 -121 -68 -168 -77 l-35 -7 34 30
c35 31 138 90 158 91 6 0 15 -5 18 -10z m-299 -45 c-26 -20 -100 -34 -256 -50
-74 -7 -147 -18 -163 -24 -40 -15 -195 -26 -182 -13 17 18 164 52 270 63 55 6
152 20 215 33 115 23 155 20 116 -9z m-455 11 c-14 -17 -58 -29 -73 -20 -17
11 21 34 55 34 24 0 27 -3 18 -14z m-135 -7 c9 -15 -15 -29 -52 -29 -47 0 -50
14 -7 27 49 15 51 15 59 2z m968 -8 c16 -18 15 -20 -31 -48 -122 -75 -373
-152 -357 -109 6 16 35 28 109 45 31 7 84 35 138 71 49 33 97 60 106 60 10 0
26 -8 35 -19z m-1121 -8 c10 -10 -13 -33 -34 -33 -21 0 -33 15 -24 30 7 11 48
14 58 3z m-1793 -34 c0 -18 -2 -19 -15 -9 -15 12 -12 30 6 30 5 0 9 -10 9 -21z
m1628 -6 c2 -8 -5 -13 -17 -13 -21 0 -35 13 -24 24 10 10 36 3 41 -11z m276
-14 c-25 -27 -92 -62 -105 -53 -25 15 -1 38 56 54 33 10 62 18 64 19 2 0 -4
-8 -15 -20z m672 2 c-22 -25 -115 -48 -238 -61 -122 -13 -198 -13 -198 -1 0
11 61 24 225 46 66 9 136 20 155 25 19 4 44 8 54 9 18 1 18 0 2 -18z m436 -13
c26 -18 48 -38 48 -43 1 -48 -155 -148 -191 -123 -10 7 -11 11 -2 14 40 17
131 109 119 121 -17 18 -113 -57 -153 -120 -28 -45 -81 -71 -124 -62 -19 4
-36 1 -51 -9 -25 -18 -123 -23 -113 -6 13 20 64 39 120 45 73 6 159 50 163 84
4 26 101 131 122 131 7 0 35 -15 62 -32z m-3066 1 c10 -17 -13 -36 -27 -22
-12 12 -4 33 11 33 5 0 12 -5 16 -11z m1544 1 c0 -5 -7 -10 -15 -10 -8 0 -15
5 -15 10 0 6 7 10 15 10 8 0 15 -4 15 -10z m250 -20 c0 -14 -46 -31 -65 -24
-18 7 -19 21 -2 27 22 10 67 7 67 -3z m-164 -25 c-19 -14 -36 -12 -36 6 0 5
12 9 28 9 26 -1 26 -1 8 -15z m-151 -5 c4 -6 -10 -10 -35 -10 -25 0 -39 4 -35
10 3 6 19 10 35 10 16 0 32 -4 35 -10z m-445 -15 c0 -16 -45 -21 -54 -6 -8 12
4 21 31 21 14 0 23 -6 23 -15z m300 6 c0 -13 -26 -21 -65 -21 -33 0 -51 11
-38 24 10 9 103 7 103 -3z m818 -3 c-5 -15 -98 -24 -98 -10 0 17 14 22 58 22
30 0 42 -4 40 -12z m-298 -22 c0 -20 -26 -38 -51 -34 -31 4 -35 26 -7 37 34
14 58 13 58 -3z m135 -1 c0 -12 -40 -19 -61 -11 -9 3 -12 11 -9 16 8 14 70 9
70 -5z m555 2 c0 -22 -23 -37 -56 -37 -64 0 -84 21 -36 38 40 15 92 14 92 -1z
m-823 -21 c-5 -15 -77 -21 -77 -6 0 14 39 28 63 22 10 -2 16 -10 14 -16z m667
-1 c-3 -22 -53 -35 -141 -35 -88 0 -126 11 -83 25 66 21 226 28 224 10z m411
-5 c-18 -20 -74 -36 -97 -27 -15 6 68 46 96 47 18 0 18 -1 1 -20z m-1386 -6
c11 -11 -20 -25 -49 -22 -37 3 -51 24 -23 31 18 5 64 -1 72 -9z m159 8 c9 -6
5 -12 -13 -20 -39 -18 -95 -13 -95 8 0 16 87 25 108 12z m1587 -2 c9 -14 -39
-56 -115 -100 -121 -70 -150 -62 -50 15 58 45 138 95 152 95 4 0 10 -4 13 -10z
m-1945 -20 c0 -6 -11 -16 -25 -22 -20 -9 -28 -9 -38 1 -9 9 -9 14 3 21 20 13
60 13 60 0z m859 1 c23 -15 2 -31 -39 -31 -46 0 -61 16 -28 29 30 12 50 13 67
2z m591 -10 c0 -19 -31 -33 -86 -38 -46 -5 -56 -3 -52 8 9 26 138 55 138 30z
m-740 -11 c13 -9 13 -11 0 -20 -20 -13 -67 -13 -76 1 -14 24 46 39 76 19z
m-135 -11 c10 -15 5 -17 -45 -24 l-45 -6 24 20 c25 23 56 27 66 10z m-170 -19
c0 -18 -33 -26 -48 -11 -9 9 -8 14 3 21 21 14 45 8 45 -10z m839 14 c9 -3 16
-10 16 -15 0 -12 -65 -22 -91 -14 -22 7 -22 8 -4 21 20 15 53 18 79 8z m741
-4 c11 -17 -20 -50 -69 -75 -50 -25 -86 -32 -86 -17 0 10 56 63 90 85 27 19
56 22 65 7z m-2245 -31 c0 -24 -23 -21 -28 4 -2 10 3 17 12 17 10 0 16 -9 16
-21z m375 11 c7 -12 -70 -33 -95 -25 -23 7 -26 21 -7 28 22 9 96 7 102 -3z
m130 -1 c9 -13 6 -16 -25 -23 -29 -7 -56 7 -46 23 9 14 63 14 71 0z m722 -6
c6 -16 -39 -27 -68 -18 -22 7 -22 8 -3 22 22 16 66 14 71 -4z m128 7 c8 -12
-41 -32 -69 -28 -26 4 -32 25 -9 31 33 9 72 7 78 -3z m-1223 -22 c-9 -9 -15
-9 -24 0 -9 9 -7 12 12 12 19 0 21 -3 12 -12z m943 3 c7 -12 -22 -41 -41 -41
-20 0 -30 30 -13 41 18 11 46 11 54 0z m-157 -28 c-4 -22 -22 -20 -26 1 -2 10
3 16 13 16 10 0 15 -7 13 -17z m692 12 c0 -14 -69 -45 -100 -45 l-35 1 40 24
c35 22 95 34 95 20z m-800 -14 c0 -11 -55 -31 -86 -31 -28 0 -31 15 -6 29 21
13 92 14 92 2z m1130 -1 c0 -15 -61 -50 -88 -50 -30 0 -20 15 26 40 42 22 62
25 62 10z m-2472 -18 c3 -9 -3 -13 -19 -10 -12 1 -24 9 -27 16 -3 9 3 13 19
10 12 -1 24 -9 27 -16z m1157 9 c8 -14 -11 -23 -50 -24 -40 -1 -56 10 -35 23
19 12 77 13 85 1z m799 -26 c-21 -16 -74 -20 -74 -6 0 14 23 29 50 33 35 6 48
-9 24 -27z m-1776 3 c-3 -7 -11 -13 -18 -13 -7 0 -15 6 -17 13 -3 7 4 12 17
12 13 0 20 -5 18 -12z m622 -3 c0 -11 -11 -15 -40 -15 -38 0 -49 8 -33 23 3 4
21 7 40 7 23 0 33 -5 33 -15z m173 4 c-13 -13 -86 -24 -108 -15 -33 12 -2 26
58 26 44 0 58 -3 50 -11z m727 -4 c0 -11 -11 -15 -40 -15 -38 0 -49 8 -33 23
3 4 21 7 40 7 23 0 33 -5 33 -15z m128 3 c-5 -14 -51 -23 -74 -14 -27 10 -4
26 37 26 28 0 39 -4 37 -12z m-1215 -15 c-7 -2 -21 -2 -30 0 -10 3 -4 5 12 5
17 0 24 -2 18 -5z m780 -8 c1 -5 -13 -11 -30 -13 -31 -3 -42 6 -26 22 10 10
53 3 56 -9z m145 3 c-5 -15 -78 -24 -78 -9 0 12 18 19 53 20 19 1 27 -3 25
-11z m762 2 c0 -14 -35 -30 -64 -30 -30 0 -34 14 -8 29 22 13 72 14 72 1z
m-2406 -25 c-7 -17 -20 -20 -28 -6 -7 10 3 21 20 21 8 0 11 -6 8 -15z m1340 5
c-15 -15 -56 -17 -61 -2 -3 8 7 12 33 12 25 0 35 -3 28 -10z m907 -10 c-24
-21 -61 -27 -61 -10 0 14 32 29 60 29 l25 0 -24 -19z m-132 1 c19 -12 5 -31
-24 -31 -31 0 -40 16 -18 29 22 13 25 13 42 2z m-244 -21 c7 -12 -36 -30 -71
-30 -28 0 -33 26 -6 33 32 9 71 7 77 -3z m109 4 c25 -10 0 -34 -35 -34 -33 0
-38 14 -11 29 20 12 25 13 46 5z m-1224 -23 c0 -12 -56 -31 -91 -31 -41 0 -45
18 -7 29 43 12 98 13 98 2z m940 0 c0 -24 -200 -55 -214 -32 -9 13 6 20 70 31
69 11 144 12 144 1z m-315 -21 c3 -5 -3 -10 -15 -10 -12 0 -18 5 -15 10 3 6
10 10 15 10 5 0 12 -4 15 -10z"/>
<path d="M4018 10493 c6 -2 18 -2 25 0 6 3 1 5 -13 5 -14 0 -19 -2 -12 -5z"/>
<path d="M4510 8788 c-25 -6 -39 -13 -32 -15 19 -7 100 6 107 18 7 11 -16 10
-75 -3z"/>
<path d="M4467 8143 c-14 -13 -6 -61 12 -84 29 -36 55 -16 59 45 l3 46 -34 0
c-18 0 -37 -3 -40 -7z"/>
<path d="M1823 8003 c9 -2 23 -2 30 0 6 3 -1 5 -18 5 -16 0 -22 -2 -12 -5z"/>
<path d="M1929 7989 c-10 -6 -7 -9 14 -9 29 0 35 5 14 13 -8 3 -20 1 -28 -4z"/>
<path d="M4718 7913 c12 -2 30 -2 40 0 9 3 -1 5 -23 4 -22 0 -30 -2 -17 -4z"/>
<path d="M4498 7893 c17 -2 47 -2 65 0 17 2 3 4 -33 4 -36 0 -50 -2 -32 -4z"/>
<path d="M2465 7530 c-3 -5 3 -10 15 -10 12 0 18 5 15 10 -3 6 -10 10 -15 10
-5 0 -12 -4 -15 -10z"/>
<path d="M1785 7510 c-4 -6 5 -10 19 -10 14 0 26 5 26 10 0 6 -9 10 -19 10
-11 0 -23 -4 -26 -10z"/>
<path d="M2915 7490 c-7 -11 35 -30 63 -30 9 0 24 5 32 10 13 9 13 11 0 20
-20 13 -87 13 -95 0z"/>
<path d="M3380 7430 c-13 -9 -12 -12 4 -25 33 -25 116 -18 116 10 0 7 -7 16
-16 19 -24 9 -87 7 -104 -4z"/>
<path d="M3652 7413 c-7 -2 -17 -13 -22 -23 -8 -15 -5 -24 15 -44 21 -21 25
-35 25 -80 0 -44 4 -57 19 -66 46 -24 70 17 46 78 -13 31 -14 45 -6 61 15 28
14 38 -9 61 -19 19 -42 24 -68 13z"/>
<path d="M2143 7123 c9 -2 23 -2 30 0 6 3 -1 5 -18 5 -16 0 -22 -2 -12 -5z"/>
<path d="M4460 6925 c0 -15 93 -126 156 -185 81 -76 160 -125 341 -209 116
-54 139 -61 193 -61 51 0 65 4 85 25 44 43 28 97 -33 115 -20 6 -109 15 -197
20 -88 5 -174 13 -192 19 -73 22 -138 69 -225 161 -87 91 -128 128 -128 115z"/>
<path d="M6390 6860 c-12 -8 -9 -10 13 -10 16 0 26 4 22 10 -8 12 -16 12 -35
0z"/>
<path d="M2088 6803 c29 -2 74 -2 100 0 26 2 2 3 -53 3 -55 0 -76 -1 -47 -3z"/>
<path d="M6428 6683 c6 -2 18 -2 25 0 6 3 1 5 -13 5 -14 0 -19 -2 -12 -5z"/>
<path d="M2158 6633 c17 -2 47 -2 65 0 17 2 3 4 -33 4 -36 0 -50 -2 -32 -4z"/>
<path d="M6390 6590 c0 -5 9 -10 20 -10 11 0 20 5 20 10 0 6 -9 10 -20 10 -11
0 -20 -4 -20 -10z"/>
<path d="M1978 6553 c12 -2 32 -2 45 0 12 2 2 4 -23 4 -25 0 -35 -2 -22 -4z"/>
<path d="M2153 6553 c9 -2 25 -2 35 0 9 3 1 5 -18 5 -19 0 -27 -2 -17 -5z"/>
<path d="M2273 6553 c9 -2 25 -2 35 0 9 3 1 5 -18 5 -19 0 -27 -2 -17 -5z"/>
<path d="M6410 6510 c-28 -17 -1 -22 47 -7 l48 15 -40 1 c-22 0 -47 -3 -55 -9z"/>
<path d="M2063 6473 c20 -2 54 -2 75 0 20 2 3 4 -38 4 -41 0 -58 -2 -37 -4z"/>
<path d="M6450 6420 c-12 -8 -9 -10 13 -10 16 0 26 4 22 10 -8 12 -16 12 -35
0z"/>
<path d="M2078 6383 c18 -2 45 -2 60 0 15 2 0 4 -33 4 -33 0 -45 -2 -27 -4z"/>
<path d="M1969 6300 c13 -6 65 -13 115 -16 77 -6 89 -4 78 7 -9 10 -44 15
-115 16 -76 2 -96 0 -78 -7z"/>
<path d="M6473 6243 c9 -2 23 -2 30 0 6 3 -1 5 -18 5 -16 0 -22 -2 -12 -5z"/>
<path d="M6485 6150 c-3 -5 3 -10 15 -10 12 0 18 5 15 10 -3 6 -10 10 -15 10
-5 0 -12 -4 -15 -10z"/>
<path d="M6043 5794 c-6 -16 0 -94 13 -151 l7 -33 -45 0 c-56 0 -220 -28 -232
-40 -4 -4 1 -13 12 -19 30 -16 156 -41 207 -41 24 0 47 -4 50 -10 3 -5 -11
-40 -31 -78 -40 -71 -41 -102 -4 -102 13 0 24 10 30 25 13 33 66 65 110 65 19
0 46 6 60 13 36 18 90 94 90 127 0 36 -60 92 -136 125 -49 22 -57 30 -79 80
-25 56 -41 68 -52 39z"/>
<path d="M5908 5133 c6 -2 18 -2 25 0 6 3 1 5 -13 5 -14 0 -19 -2 -12 -5z"/>
<path d="M6023 4883 c9 -2 25 -2 35 0 9 3 1 5 -18 5 -19 0 -27 -2 -17 -5z"/>
<path d="M6068 4633 c6 -2 18 -2 25 0 6 3 1 5 -13 5 -14 0 -19 -2 -12 -5z"/>
<path d="M3928 4103 c12 -2 32 -2 45 0 12 2 2 4 -23 4 -25 0 -35 -2 -22 -4z"/>
<path d="M3795 3990 c-42 -5 -13 -7 100 -8 89 -1 167 3 175 8 17 11 -175 11
-275 0z"/>
<path d="M3808 3881 c-86 -3 -160 -10 -165 -15 -10 -11 490 0 537 13 40 10
-108 11 -372 2z"/>
<path d="M3880 3769 c-158 -10 -210 -17 -210 -31 0 -7 17 -9 53 -4 28 4 222
11 431 15 248 6 382 13 389 20 13 13 -460 13 -663 0z"/>
<path d="M1333 7393 c9 -2 25 -2 35 0 9 3 1 5 -18 5 -19 0 -27 -2 -17 -5z"/>
<path d="M1303 7223 c9 -2 23 -2 30 0 6 3 -1 5 -18 5 -16 0 -22 -2 -12 -5z"/>
<path d="M1288 6663 c18 -2 45 -2 60 0 15 2 0 4 -33 4 -33 0 -45 -2 -27 -4z"/>
<path d="M1320 6440 c8 -5 44 -9 80 -9 45 0 59 3 45 9 -29 12 -144 12 -125 0z"/>
<path d="M715 6590 c-3 -5 3 -10 14 -10 12 0 21 5 21 10 0 6 -6 10 -14 10 -8
0 -18 -4 -21 -10z"/>
<path d="M1987 5613 c18 -2 50 -2 70 0 21 2 7 4 -32 4 -38 0 -55 -2 -38 -4z"/>
<path d="M2215 5520 c-3 -5 3 -10 15 -10 12 0 18 5 15 10 -3 6 -10 10 -15 10
-5 0 -12 -4 -15 -10z"/>
<path d="M2023 5443 c15 -2 37 -2 50 0 12 2 0 4 -28 4 -27 0 -38 -2 -22 -4z"/>
<path d="M2278 5443 c23 -2 59 -2 80 0 20 2 1 4 -43 4 -44 0 -61 -2 -37 -4z"/>
<path d="M2273 5343 c20 -2 54 -2 75 0 20 2 3 4 -38 4 -41 0 -58 -2 -37 -4z"/>
<path d="M2163 5273 c15 -2 39 -2 55 0 15 2 2 4 -28 4 -30 0 -43 -2 -27 -4z"/>
<path d="M1983 5193 c15 -2 37 -2 50 0 12 2 0 4 -28 4 -27 0 -38 -2 -22 -4z"/>
<path d="M2190 5000 c0 -5 6 -10 14 -10 8 0 18 5 21 10 3 6 -3 10 -14 10 -12
0 -21 -4 -21 -10z"/>
<path d="M2008 4753 c12 -2 30 -2 40 0 9 3 -1 5 -23 4 -22 0 -30 -2 -17 -4z"/>
<path d="M1993 4403 c9 -2 23 -2 30 0 6 3 -1 5 -18 5 -16 0 -22 -2 -12 -5z"/>
<path d="M2235 4330 c3 -5 12 -10 20 -10 8 0 17 5 20 10 4 6 -5 10 -20 10 -15
0 -24 -4 -20 -10z"/>
<path d="M2285 3470 c-4 -6 7 -10 25 -10 18 0 29 4 25 10 -3 6 -15 10 -25 10
-10 0 -22 -4 -25 -10z"/>
<path d="M2248 3393 c12 -2 30 -2 40 0 9 3 -1 5 -23 4 -22 0 -30 -2 -17 -4z"/>
<path d="M2268 3313 c6 -2 18 -2 25 0 6 3 1 5 -13 5 -14 0 -19 -2 -12 -5z"/>
<path d="M6580 5440 c0 -5 7 -10 15 -10 8 0 15 5 15 10 0 6 -7 10 -15 10 -8 0
-15 -4 -15 -10z"/>
<path d="M6400 4878 c-19 -6 -29 -13 -23 -15 13 -5 123 16 123 23 0 7 -64 2
-100 -8z"/>
<path d="M1370 5140 c-10 -7 19 -9 90 -9 83 1 97 3 65 10 -55 11 -137 11 -155
-1z"/>
<path d="M930 4679 c26 -11 346 -29 480 -27 l75 1 -70 7 c-243 28 -534 39
-485 19z"/>
<path d="M1540 4580 c0 -5 12 -10 26 -10 14 0 23 4 19 10 -3 6 -15 10 -26 10
-10 0 -19 -4 -19 -10z"/>
<path d="M1310 4490 c-19 -6 -11 -8 33 -9 32 -1 57 3 57 9 0 12 -54 12 -90 0z"/>
<path d="M5595 4850 c-16 -7 -11 -9 20 -9 29 -1 36 2 25 9 -17 11 -19 11 -45
0z"/>
<path d="M5553 4731 c-28 -4 -55 -10 -59 -14 -8 -8 141 2 201 13 35 7 33 8
-25 7 -36 0 -88 -3 -117 -6z"/>
<path d="M5583 4603 c15 -2 39 -2 55 0 15 2 2 4 -28 4 -30 0 -43 -2 -27 -4z"/>
<path d="M5657 4483 c-12 -11 -8 -23 8 -23 8 0 15 7 15 15 0 16 -12 20 -23 8z"/>
<path d="M5428 4463 c12 -2 32 -2 45 0 12 2 2 4 -23 4 -25 0 -35 -2 -22 -4z"/>
<path d="M5370 4330 c0 -5 7 -10 15 -10 8 0 15 5 15 10 0 6 -7 10 -15 10 -8 0
-15 -4 -15 -10z"/>
<path d="M5288 4083 c12 -2 32 -2 45 0 12 2 2 4 -23 4 -25 0 -35 -2 -22 -4z"/>
<path d="M5103 3710 c-13 -5 -23 -12 -23 -16 0 -8 92 4 123 16 17 7 12 9 -28
9 -27 0 -60 -4 -72 -9z"/>
<path d="M6155 3680 c-3 -5 3 -10 14 -10 12 0 21 5 21 10 0 6 -6 10 -14 10 -8
0 -18 -4 -21 -10z"/>
<path d="M5980 3660 c0 -5 9 -10 19 -10 11 0 23 5 26 10 4 6 -5 10 -19 10 -14
0 -26 -4 -26 -10z"/>
<path d="M5968 3583 c6 -2 18 -2 25 0 6 3 1 5 -13 5 -14 0 -19 -2 -12 -5z"/>
<path d="M3960 3520 c17 -11 176 -11 300 -1 70 7 49 8 -115 9 -132 1 -195 -2
-185 -8z"/>
<path d="M6083 3523 c9 -2 25 -2 35 0 9 3 1 5 -18 5 -19 0 -27 -2 -17 -5z"/>
<path d="M3675 3510 c-13 -6 7 -9 60 -9 44 0 89 4 100 9 13 6 -7 9 -60 9 -44
0 -89 -4 -100 -9z"/>
<path d="M5948 3503 c12 -2 30 -2 40 0 9 3 -1 5 -23 4 -22 0 -30 -2 -17 -4z"/>
<path d="M6003 3448 c-29 -5 -53 -13 -53 -17 0 -11 122 7 134 19 12 12 -8 11
-81 -2z"/>
<path d="M4068 3408 c-16 -5 -28 -14 -28 -20 0 -14 71 0 90 18 12 12 11 14
-10 13 -14 0 -37 -5 -52 -11z"/>
<path d="M4303 3413 c20 -2 54 -2 75 0 20 2 3 4 -38 4 -41 0 -58 -2 -37 -4z"/>
<path d="M5793 3413 c9 -2 25 -2 35 0 9 3 1 5 -18 5 -19 0 -27 -2 -17 -5z"/>
<path d="M3730 3400 c-33 -5 -15 -7 68 -8 73 -1 111 2 107 8 -7 11 -104 11
-175 0z"/>
<path d="M5663 3393 c9 -2 25 -2 35 0 9 3 1 5 -18 5 -19 0 -27 -2 -17 -5z"/>
<path d="M5230 3365 c-434 -37 -573 -47 -768 -55 -117 -4 -216 -10 -219 -13
-12 -13 77 -19 190 -13 287 16 1077 83 1086 92 8 7 -129 2 -289 -11z"/>
<path d="M3800 3280 c-11 -7 1 -10 40 -10 39 0 51 3 40 10 -8 5 -26 10 -40 10
-14 0 -32 -5 -40 -10z"/>
<path d="M4070 3280 c-11 -7 -6 -10 20 -10 26 0 31 3 20 10 -8 5 -17 10 -20
10 -3 0 -12 -5 -20 -10z"/>
<path d="M5066 3269 c-49 -5 -92 -12 -95 -15 -7 -8 310 5 389 16 81 11 -180
10 -294 -1z"/>
<path d="M5805 3260 c-4 -6 7 -10 25 -10 18 0 29 4 25 10 -3 6 -15 10 -25 10
-10 0 -22 -4 -25 -10z"/>
<path d="M5690 3245 c-8 -2 -63 -11 -122 -20 -60 -10 -108 -22 -108 -26 0 -10
34 -6 173 18 48 8 87 19 87 24 0 9 -2 9 -30 4z"/>
<path d="M4535 3190 c-57 -4 -75 -8 -61 -14 26 -13 406 0 419 13 12 12 -206
13 -358 1z"/>
<path d="M4323 3178 c-18 -6 -33 -15 -33 -21 0 -5 7 -6 16 -3 9 3 23 6 33 6 9
0 26 7 37 15 19 14 19 14 -1 14 -11 -1 -35 -6 -52 -11z"/>
<path d="M5278 3183 c12 -2 30 -2 40 0 9 3 -1 5 -23 4 -22 0 -30 -2 -17 -4z"/>
<path d="M4973 3163 c9 -2 25 -2 35 0 9 3 1 5 -18 5 -19 0 -27 -2 -17 -5z"/>
<path d="M1323 4333 c26 -2 67 -2 90 0 23 2 2 3 -48 3 -49 0 -68 -1 -42 -3z"/>
<path d="M1358 4253 c23 -2 59 -2 80 0 20 2 1 4 -43 4 -44 0 -61 -2 -37 -4z"/>
<path d="M5788 4273 c-27 -2 -48 -8 -48 -12 0 -8 121 -4 235 9 68 7 67 7 -35
7 -58 0 -126 -2 -152 -4z"/>
<path d="M5790 4180 c-11 -7 1 -10 40 -10 39 0 51 3 40 10 -8 5 -26 10 -40 10
-14 0 -32 -5 -40 -10z"/>
<path d="M5923 4103 c15 -2 37 -2 50 0 12 2 0 4 -28 4 -27 0 -38 -2 -22 -4z"/>
<path d="M5688 4083 c17 -2 47 -2 65 0 17 2 3 4 -33 4 -36 0 -50 -2 -32 -4z"/>
<path d="M5808 4003 c18 -2 45 -2 60 0 15 2 0 4 -33 4 -33 0 -45 -2 -27 -4z"/>
<path d="M1505 4120 c-4 -6 5 -10 19 -10 14 0 26 5 26 10 0 6 -9 10 -19 10
-11 0 -23 -4 -26 -10z"/>
<path d="M1467 3763 c-28 -7 -14 -28 23 -31 29 -3 60 11 49 22 -8 8 -54 14
-72 9z"/>
<path d="M1610 3761 c-22 -6 -23 -8 -7 -14 26 -10 107 -9 107 2 0 5 -14 11
-31 15 -35 7 -34 7 -69 -3z"/>
<path d="M1163 3703 c20 -2 54 -2 75 0 20 2 3 4 -38 4 -41 0 -58 -2 -37 -4z"/>
<path d="M1568 3563 c6 -2 18 -2 25 0 6 3 1 5 -13 5 -14 0 -19 -2 -12 -5z"/>
<path d="M1363 3523 c15 -2 37 -2 50 0 12 2 0 4 -28 4 -27 0 -38 -2 -22 -4z"/>
<path d="M1420 3455 c128 -12 164 -10 138 6 -7 5 -69 8 -138 7 l-125 -1 125
-12z"/>
<path d="M1638 3388 c9 -9 15 -9 24 0 9 9 7 12 -12 12 -19 0 -21 -3 -12 -12z"/>
<path d="M4850 3700 c0 -5 14 -10 30 -10 17 0 30 5 30 10 0 6 -13 10 -30 10
-16 0 -30 -4 -30 -10z"/>
<path d="M3162 3509 c-33 -13 -18 -29 28 -29 45 0 60 14 31 29 -23 13 -28 13
-59 0z"/>
<path d="M3153 3143 c9 -2 25 -2 35 0 9 3 1 5 -18 5 -19 0 -27 -2 -17 -5z"/>
<path d="M5616 3829 c-161 -13 -144 -23 24 -15 161 8 266 24 150 24 -36 -1
-114 -5 -174 -9z"/>
<path d="M5635 3740 c-15 -6 -9 -9 25 -9 34 0 40 3 25 9 -11 5 -22 9 -25 9 -3
0 -14 -4 -25 -9z"/>
<path d="M5467 3643 c18 -2 50 -2 70 0 21 2 7 4 -32 4 -38 0 -55 -2 -38 -4z"/>
<path d="M5578 3563 c12 -2 32 -2 45 0 12 2 2 4 -23 4 -25 0 -35 -2 -22 -4z"/>
<path d="M5968 3143 c6 -2 18 -2 25 0 6 3 1 5 -13 5 -14 0 -19 -2 -12 -5z"/>
<path d="M5810 3115 l-35 -13 35 -1 c19 0 49 6 65 14 l30 13 -30 0 c-16 0 -46
-6 -65 -13z"/>
<path d="M5633 3063 c9 -2 23 -2 30 0 6 3 -1 5 -18 5 -16 0 -22 -2 -12 -5z"/>
<path d="M1218 2993 c12 -2 30 -2 40 0 9 3 -1 5 -23 4 -22 0 -30 -2 -17 -4z"/>
<path d="M5468 2923 c-46 -7 -32 -22 15 -16 61 8 92 22 47 21 -19 -1 -47 -3
-62 -5z"/>
</g>
</svg>
