<?xml version="1.0" standalone="no"?>
<!DOCTYPE svg PUBLIC "-//W3C//DTD SVG 20010904//EN"
 "http://www.w3.org/TR/2001/REC-SVG-20010904/DTD/svg10.dtd">
<svg version="1.0" xmlns="http://www.w3.org/2000/svg"
 width="820.000000pt" height="1280.000000pt" viewBox="0 0 820.000000 1280.000000"
 preserveAspectRatio="xMidYMid meet">
<metadata>
Created by potrace 1.15, written by Peter Selinger 2001-2017
</metadata>
<g transform="translate(0.000000,1280.000000) scale(0.100000,-0.100000)"
fill="#000000" stroke="none">
<path d="M3546 12243 c4 -15 13 -39 20 -53 8 -14 27 -56 43 -95 27 -62 28 -71
14 -82 -12 -9 -22 -9 -47 2 -173 73 -301 109 -363 101 -35 -5 -50 -1 -85 23
-63 41 -193 58 -280 36 -35 -9 -81 -24 -104 -35 -22 -10 -57 -22 -78 -25 -24
-5 -50 -21 -72 -43 -18 -19 -44 -40 -56 -47 -13 -6 -34 -17 -48 -25 -14 -7
-32 -16 -40 -20 -8 -4 -25 -27 -38 -51 -12 -24 -34 -55 -47 -69 -13 -14 -42
-56 -64 -95 -34 -58 -41 -79 -41 -122 0 -29 -4 -53 -9 -53 -5 0 -21 -16 -36
-36 -24 -32 -27 -43 -26 -111 1 -60 -3 -80 -19 -103 -24 -34 -27 -124 -5 -185
18 -50 19 -65 1 -65 -17 0 -47 -50 -66 -110 -8 -25 -21 -56 -29 -69 -14 -22
-14 -23 4 -18 11 3 49 9 85 12 39 4 75 14 92 26 42 31 88 15 108 -37 28 -75
78 -121 205 -189 95 -51 98 -53 118 -59 20 -6 37 -45 37 -86 0 -25 -7 -32 -42
-48 -24 -11 -50 -28 -59 -38 -21 -24 -59 -151 -56 -184 2 -30 41 -80 80 -105
33 -21 34 -37 5 -50 -13 -6 -24 -19 -26 -29 -4 -18 1 -19 57 -13 39 4 70 2 87
-5 23 -11 29 -10 44 10 17 21 60 31 60 14 0 -15 -93 -85 -129 -98 -52 -19
-108 -17 -129 4 -9 9 -36 23 -58 30 -41 12 -44 12 -144 -20 -34 -11 -122 -66
-128 -80 -2 -5 -9 -8 -15 -8 -6 0 -28 -16 -48 -35 -33 -33 -38 -35 -62 -24
-15 7 -27 17 -27 23 -1 6 -22 27 -47 46 -25 19 -56 44 -67 55 -48 47 -64 51
-211 50 -77 -1 -164 -5 -192 -10 -49 -7 -55 -6 -79 18 -21 21 -114 64 -114 52
0 -2 23 -22 51 -44 31 -25 46 -42 38 -45 -8 -2 -32 -9 -54 -15 -22 -6 -56 -25
-75 -42 l-35 -30 30 7 c17 4 47 13 69 21 44 15 85 17 105 4 11 -7 9 -15 -13
-43 -14 -19 -26 -40 -26 -45 0 -6 -16 -20 -35 -32 -39 -23 -41 -29 -21 -56 13
-17 11 -23 -14 -55 -15 -19 -42 -63 -59 -97 -29 -58 -31 -70 -31 -164 0 -75 3
-100 12 -97 7 3 17 29 23 59 7 31 26 76 43 101 28 40 42 50 113 77 65 25 84
29 96 19 13 -10 12 -14 -6 -27 -19 -15 -8 -16 142 -16 157 0 165 1 214 27 41
21 54 24 62 14 6 -7 9 -15 6 -17 -5 -6 -24 -118 -31 -184 -5 -46 -4 -49 10
-31 9 11 16 23 16 27 0 4 9 10 19 14 19 6 48 26 144 102 43 34 127 132 127
148 0 17 94 124 113 129 12 3 58 9 101 12 l79 7 -6 -42 c-3 -23 -12 -50 -20
-59 -11 -12 -15 -38 -15 -88 1 -38 -5 -80 -11 -93 -13 -23 -13 -23 -31 -4 -9
11 -21 29 -24 40 -4 12 -14 24 -22 27 -8 3 -13 10 -10 15 3 5 -1 24 -8 42
l-15 34 -15 -37 c-9 -21 -16 -41 -16 -46 0 -5 -13 -27 -29 -49 -27 -37 -28
-45 -25 -117 5 -122 22 -184 56 -204 15 -9 28 -20 28 -24 0 -22 -45 -75 -92
-108 -52 -38 -53 -39 -51 -87 1 -26 6 -68 11 -93 11 -52 25 -252 23 -325 -2
-49 0 -52 33 -68 27 -12 44 -34 73 -88 46 -86 98 -166 127 -195 64 -65 118
-124 112 -124 -3 0 -48 21 -100 47 l-95 47 -233 -13 c-128 -7 -234 -14 -236
-16 -2 -2 4 -32 14 -67 11 -37 44 -104 81 -164 l63 -101 58 -16 c59 -16 301
-127 302 -138 0 -3 -87 -12 -194 -19 l-193 -13 -39 29 c-38 28 -38 28 -22 4
36 -50 38 -64 6 -29 -36 39 -80 53 -223 70 -81 9 -170 48 -180 79 -4 12 -9 19
-12 17 -11 -11 22 -86 53 -122 19 -22 34 -43 34 -48 0 -9 -48 -87 -54 -87 -2
0 -42 14 -88 31 -53 21 -102 48 -136 76 l-53 45 27 -68 c39 -101 41 -114 15
-114 -23 0 -27 -20 -11 -50 5 -10 34 -32 62 -49 29 -16 71 -46 93 -65 l40 -36
-30 -24 c-16 -14 -33 -25 -36 -26 -4 0 -25 -24 -47 -52 -50 -66 -84 -179 -71
-236 5 -20 9 -69 9 -108 0 -39 5 -96 12 -128 l11 -57 41 6 c23 4 88 22 146 41
101 33 109 38 181 107 130 125 142 143 168 266 l24 109 66 -28 c36 -15 84 -30
105 -34 l40 -8 -52 -46 c-156 -142 -186 -391 -73 -610 22 -42 133 -182 238
-299 256 -288 360 -442 472 -701 107 -248 173 -479 198 -687 12 -102 8 -358
-7 -456 -16 -104 -63 -288 -124 -479 -25 -80 -46 -157 -46 -171 0 -15 -13 -80
-29 -145 -16 -66 -32 -137 -36 -159 -4 -22 -32 -84 -62 -139 -60 -107 -92
-213 -117 -389 -11 -81 -17 -102 -39 -125 -34 -35 -43 -79 -27 -128 8 -23 14
-99 15 -184 1 -92 6 -157 15 -179 9 -23 11 -58 6 -117 -6 -83 -6 -85 32 -162
22 -43 42 -96 46 -118 16 -85 78 -220 156 -338 89 -136 157 -201 333 -320 56
-37 103 -71 104 -75 2 -3 -13 -17 -32 -30 -67 -45 -111 -159 -91 -234 14 -54
99 -146 174 -188 111 -63 296 -113 457 -123 55 -4 127 -9 159 -12 32 -3 111 0
175 6 415 41 670 210 629 416 -11 55 -39 90 -108 135 -14 9 -23 19 -20 21 3 3
76 42 163 88 l159 84 84 102 c74 90 97 129 183 306 89 183 130 297 129 358 -1
21 14 288 17 330 10 107 5 278 -8 315 -8 22 -17 63 -21 90 -16 134 -48 288
-74 365 -43 124 -96 198 -332 463 -58 66 -112 131 -121 145 -9 15 -52 86 -96
157 -56 92 -98 177 -141 288 -34 87 -62 162 -62 166 0 5 -24 91 -54 192 -72
245 -111 445 -111 579 0 57 14 281 21 340 3 25 21 121 40 214 71 352 187 638
372 920 l105 160 20 -40 c11 -21 20 -40 21 -41 1 -1 64 59 140 133 76 74 140
133 141 132 17 -25 67 -181 75 -238 16 -109 17 -113 41 -96 66 46 86 74 93
128 6 47 2 62 -29 133 -19 44 -35 85 -35 91 0 6 28 14 68 17 37 3 92 15 122
25 l55 19 -3 106 c-4 117 -9 109 73 123 22 4 72 22 112 40 l72 32 32 -96 c28
-84 39 -104 83 -147 28 -28 81 -72 117 -97 55 -39 82 -51 171 -73 58 -14 122
-25 142 -25 l36 0 0 157 c0 120 -4 169 -17 211 -20 64 -76 131 -140 169 l-46
26 56 51 c30 28 71 65 91 82 42 36 45 56 12 70 l-24 9 23 79 23 79 -46 -46
c-29 -29 -77 -60 -125 -82 -43 -19 -80 -35 -81 -35 -2 0 -15 18 -30 41 -27 40
-27 41 -9 66 34 47 53 88 52 113 l0 25 -12 -24 c-14 -29 -138 -91 -182 -91
-52 0 -158 -40 -182 -69 -27 -31 -30 -21 -6 17 l18 27 -33 -27 c-53 -44 -87
-38 -156 27 -32 31 -57 57 -55 59 2 2 33 14 69 27 l65 25 47 89 c46 87 59 123
72 193 l6 32 -143 -1 c-192 0 -271 -10 -299 -36 -13 -11 -36 -23 -53 -26 -110
-21 -107 -20 -110 -55 -3 -41 -22 -64 -49 -60 -15 2 -20 9 -19 26 2 14 -3 22
-12 22 -11 0 -15 -17 -17 -67 -3 -57 -6 -68 -22 -71 -25 -5 -36 14 -36 65 0
23 -4 45 -10 48 -5 3 4 31 22 66 26 49 29 63 20 82 -6 12 -16 45 -22 73 -6 28
-22 63 -36 77 -28 30 -23 51 8 41 12 -3 35 -8 52 -10 17 -2 51 -8 76 -15 107
-26 189 8 319 133 105 102 115 117 96 144 -7 11 -13 41 -13 67 0 44 -5 52 -61
114 -34 36 -61 70 -61 75 0 11 51 -15 103 -53 44 -32 46 -33 66 -20 12 8 3 25
-47 86 -80 96 -153 205 -146 216 3 5 16 9 30 9 13 0 24 5 24 10 0 6 -7 10 -16
10 -9 0 -18 9 -21 19 -3 11 -15 21 -27 23 -13 2 -22 11 -24 25 -3 18 -12 23
-65 30 l-62 8 2 70 c1 39 2 90 3 115 1 25 0 70 -3 100 -3 43 -8 54 -20 52 -8
-1 -18 7 -22 18 -9 27 -33 25 -79 -6 -33 -23 -116 -45 -116 -32 0 6 50 121 55
126 1 2 18 -3 36 -11 19 -7 50 -12 70 -9 l36 4 -2 46 c-4 56 14 117 35 117 18
0 32 -53 33 -130 1 -40 6 -64 16 -71 8 -6 11 -16 7 -23 -6 -9 -11 -9 -21 -1
-9 8 -12 5 -12 -12 0 -18 12 -29 51 -47 45 -22 116 -85 116 -103 0 -3 23 -41
50 -82 55 -83 72 -91 109 -52 17 18 31 23 61 20 21 -1 47 -7 58 -13 12 -6 39
-11 61 -11 32 0 43 5 60 29 12 16 21 36 21 45 0 9 12 21 28 27 15 7 36 15 47
20 45 19 146 39 196 39 79 0 119 -15 164 -59 22 -22 45 -40 52 -41 23 0 2 25
-59 70 -33 25 -92 72 -132 105 -160 135 -264 178 -378 156 -69 -14 -81 -24
-128 -100 -33 -53 -33 -54 -5 -123 10 -26 -9 -22 -57 10 -22 15 -48 32 -57 37
-9 6 -33 20 -52 33 -42 26 -66 28 -88 8 -14 -12 -21 -12 -49 0 -29 12 -32 16
-22 35 11 20 17 20 89 14 91 -8 133 5 180 57 31 34 61 105 61 144 0 13 8 39
17 59 18 38 47 51 86 41 19 -4 33 5 72 44 27 28 55 50 61 50 7 0 22 -19 34
-42 43 -84 49 -92 85 -110 75 -39 271 -31 311 13 9 10 21 16 26 13 5 -3 8 19
7 53 -1 33 1 65 5 72 4 6 4 35 1 64 -6 45 -12 56 -41 76 -18 13 -42 38 -53 57
-11 18 -42 47 -69 64 l-49 30 2 62 c1 35 4 70 7 78 3 8 10 33 16 55 6 22 15
59 22 83 6 23 16 42 21 42 6 0 61 22 123 49 61 27 140 59 176 70 36 12 79 26
95 32 86 30 81 31 132 -20 26 -26 55 -50 63 -53 9 -3 65 -2 125 2 147 10 276
53 375 125 78 56 107 62 184 37 37 -12 76 -22 89 -22 l22 1 -24 20 c-14 11
-31 17 -42 14 -10 -3 -42 1 -72 10 -30 8 -61 13 -70 9 -29 -11 -19 15 18 47
43 39 44 50 3 38 -17 -5 -32 -8 -32 -6 -7 23 -34 46 -89 74 -37 19 -67 40 -67
47 0 7 14 25 31 42 41 39 83 110 75 130 -6 16 31 80 73 127 50 55 7 25 -78
-55 -48 -46 -108 -95 -132 -110 -24 -15 -56 -37 -70 -49 -21 -16 -52 -24 -145
-34 -96 -11 -131 -19 -181 -44 -34 -17 -66 -31 -71 -31 -4 0 -20 -18 -35 -40
-20 -31 -24 -48 -20 -74 4 -28 2 -35 -15 -40 -11 -4 -61 -33 -110 -66 -86 -57
-308 -170 -333 -170 -9 0 -9 13 -3 48 10 59 9 125 -4 278 -8 99 -15 132 -37
175 -15 30 -33 61 -40 69 -7 8 -22 40 -32 70 -10 30 -29 72 -41 92 -24 39
-100 100 -146 117 -14 6 -29 19 -32 28 -24 75 -42 100 -139 190 -11 10 -38 20
-58 21 -21 2 -80 14 -130 27 -51 14 -99 25 -109 25 -9 0 -31 -15 -50 -34 -34
-34 -97 -59 -123 -50 -7 3 -24 -1 -37 -9 -13 -8 -38 -18 -57 -22 -31 -7 -37
-3 -78 40 l-44 48 -86 -6 c-67 -5 -104 -14 -172 -43 -47 -20 -91 -41 -98 -46
-6 -5 -25 -13 -42 -18 -27 -7 -33 -5 -50 18 -10 15 -21 37 -25 49 -4 12 -16
25 -27 28 -10 4 -19 14 -19 24 0 20 -19 41 -38 41 -7 0 -25 14 -39 30 -13 17
-31 30 -38 30 -7 0 -18 7 -25 15 -7 8 -18 15 -26 15 -7 0 -26 12 -41 26 -15
14 -36 33 -45 41 -10 9 -19 15 -21 12 -1 -2 -8 -12 -15 -21 -11 -13 -11 -22 1
-45 12 -24 40 -220 41 -293 0 -14 6 -29 13 -35 7 -5 14 -19 16 -30 5 -34 47
-85 83 -100 19 -8 34 -21 34 -29 0 -35 -52 -125 -102 -176 -72 -74 -82 -111
-89 -337 -2 -85 -6 -87 -113 -73 -91 11 -191 -4 -263 -41 -20 -10 -40 -16 -44
-13 -5 3 -9 1 -9 -4 0 -13 29 -37 68 -57 19 -9 67 -49 107 -89 48 -46 93 -80
127 -95 122 -53 138 -61 138 -70 0 -12 -25 -21 -59 -21 -38 0 -94 -50 -132
-118 -18 -31 -43 -69 -57 -84 -21 -22 -26 -42 -32 -105 -4 -43 -5 -80 -3 -83
6 -7 77 75 117 135 73 108 155 169 280 208 l50 15 40 -32 c23 -18 67 -48 98
-67 32 -18 60 -39 62 -45 2 -6 1 -29 -4 -50 -5 -22 -11 -75 -15 -119 -3 -44
-8 -93 -10 -110 -3 -16 1 -75 9 -130 7 -55 11 -102 9 -105 -3 -3 -13 5 -22 17
l-18 22 -1 -28 c-1 -39 -32 -132 -51 -156 -55 -66 -98 -249 -93 -394 l2 -83
-42 -44 c-42 -43 -58 -48 -58 -15 0 21 -134 152 -180 176 -27 14 -35 14 -76 0
-44 -15 -46 -15 -90 11 -24 14 -47 31 -51 37 -14 22 -52 142 -53 164 0 20 90
220 106 236 4 3 23 -2 43 -13 36 -18 38 -18 107 1 38 11 110 25 159 32 102 15
95 4 80 121 -9 80 -20 105 -47 110 -50 11 -144 13 -163 4 -17 -8 -64 -61 -96
-108 -9 -13 -11 -13 -21 1 -10 15 -15 15 -62 -2 -61 -23 -51 -22 -71 -3 -8 9
-13 24 -10 34 4 12 -6 30 -30 54 -46 48 -66 50 -124 10 -20 -13 -41 -24 -46
-24 -24 0 -58 199 -81 476 -15 186 -15 187 5 208 l21 21 46 -25 c33 -18 54
-40 74 -75 46 -80 51 -85 45 -45 -8 61 -22 98 -59 153 -36 54 -36 55 -25 107
15 70 6 126 -24 159 l-26 26 24 100 c14 55 25 116 25 135 0 19 14 73 30 120
17 46 30 103 30 127 l0 43 38 0 c36 0 39 3 77 68 21 37 44 74 52 83 10 13 10
28 -3 89 -8 41 -21 88 -28 105 -81 185 -97 214 -125 237 -25 19 -25 19 -33 -2
-5 -14 -1 -34 12 -60 25 -50 25 -57 -3 -64 -12 -3 -31 -19 -41 -37 -18 -31
-19 -31 -38 -12 -11 11 -30 60 -43 112 -13 50 -29 99 -36 109 -31 39 -65 74
-82 83 -16 9 -17 7 -11 -18z m22 -1619 c16 -175 59 -487 77 -554 12 -47 20
-91 18 -97 -4 -11 -87 -73 -98 -73 -2 0 -34 44 -71 98 -63 89 -72 110 -117
257 -27 88 -55 179 -62 203 -9 27 -9 42 -3 42 6 0 16 7 23 16 15 21 207 143
220 140 6 -1 11 -16 13 -32z m-302 -195 c13 -46 39 -130 58 -186 19 -57 33
-103 32 -103 -2 0 -23 7 -47 15 -30 11 -84 16 -181 16 -99 0 -138 4 -138 12 0
7 12 36 26 66 22 48 23 58 12 85 -20 52 -48 83 -99 111 -27 14 -49 29 -49 31
0 3 64 4 143 2 134 -3 144 -2 172 19 17 12 34 21 39 20 5 -2 20 -41 32 -88z
m1578 -77 c3 -5 6 -42 7 -83 1 -41 8 -112 15 -157 13 -81 18 -152 15 -223 -1
-25 -12 -50 -38 -83 -36 -46 -99 -84 -113 -69 -13 14 -48 176 -54 241 -6 84 9
324 23 350 11 20 34 27 108 30 17 1 34 -2 37 -6z m106 -192 c32 -77 35 -106
16 -135 -9 -14 -20 -25 -25 -25 -5 0 -11 37 -15 83 -4 45 -9 102 -11 127 -6
48 -5 47 35 -50z m-1639 -39 c9 -3 33 -26 54 -50 40 -49 41 -60 15 -163 -13
-51 -24 -58 -80 -47 -19 4 -53 10 -75 13 -22 2 -89 12 -149 20 -60 9 -164 16
-231 16 -93 0 -126 4 -143 16 -21 14 -30 43 -14 45 4 1 20 3 35 5 37 4 64 22
113 74 49 53 85 71 154 81 59 8 294 1 321 -10z m167 -196 c56 -70 59 -77 38
-94 -24 -20 -64 -3 -71 30 -4 16 -11 31 -16 34 -8 6 -14 95 -6 95 2 0 27 -29
55 -65z m-859 11 l22 -23 -38 -7 c-21 -3 -49 -6 -62 -6 l-24 0 29 29 c36 36
45 37 73 7z m1364 -88 c0 -32 -13 -72 -52 -151 -29 -58 -56 -109 -61 -112 -5
-3 -11 5 -15 17 -10 35 -45 128 -67 177 l-20 45 38 32 c22 20 59 38 93 47 69
17 84 8 84 -55z m46 41 c-22 -22 -35 -20 -26 6 4 8 16 15 27 15 20 0 20 0 -1
-21z m-1159 -49 c0 -5 -11 -10 -25 -10 -14 0 -25 5 -25 10 0 6 11 10 25 10 14
0 25 -4 25 -10z m2110 5 c0 -3 -4 -13 -10 -23 -5 -9 -27 -57 -49 -107 -31 -71
-47 -96 -78 -117 -21 -14 -41 -24 -45 -22 -14 9 107 233 141 262 15 12 41 17
41 7z m-1685 -38 l60 -12 -2 -42 c-2 -41 -36 -123 -52 -123 -4 0 -16 9 -26 20
-23 25 -32 25 -40 1 -6 -19 -7 -18 -48 5 -23 13 -53 24 -66 24 -22 0 -23 -3
-16 -37 4 -21 10 -63 14 -93 l6 -55 38 2 c55 3 37 -13 -23 -21 -46 -6 -52 -4
-73 19 -23 27 -126 58 -155 47 -8 -3 -21 3 -28 13 -12 16 -14 16 -14 3 0 -9
-7 -19 -16 -22 -29 -11 -26 1 6 34 28 29 32 38 27 72 -4 32 -1 43 20 64 23 23
24 26 9 43 -10 11 -14 25 -9 37 6 17 5 17 -10 6 -9 -8 -21 -11 -27 -7 -16 10
-1 25 25 25 13 0 27 4 30 10 8 13 291 3 370 -13z m435 -24 c20 -45 40 -103 34
-103 -3 0 -25 11 -49 25 -52 31 -64 62 -34 88 28 23 34 22 49 -10z m-853 -39
c8 -21 -13 -42 -28 -27 -13 13 -5 43 11 43 6 0 13 -7 17 -16z m628 6 c3 -6 -4
-30 -16 -55 l-23 -45 29 -30 c35 -37 41 -37 50 -2 8 33 52 92 68 92 24 0 127
-133 127 -164 0 -20 -11 -20 -48 1 -29 17 -34 16 -124 -5 -112 -27 -135 -28
-142 -4 -10 35 2 145 20 183 18 37 45 51 59 29z m1514 -177 c-18 -21 -37 -42
-41 -47 -5 -6 -8 -3 -8 6 0 20 53 78 71 78 7 0 -3 -17 -22 -37z m-141 -317
c17 -9 32 -20 32 -25 0 -5 -16 -21 -35 -35 -19 -15 -35 -34 -35 -42 0 -7 -4
-14 -9 -14 -5 0 -12 -12 -15 -26 -13 -50 -28 -8 -29 82 -2 105 5 125 37 96 11
-11 36 -27 54 -36z m-238 -56 c0 -35 -26 -47 -52 -23 -18 16 -18 17 9 39 33
26 43 23 43 -16z m250 -369 c0 -11 -9 -23 -21 -26 -31 -10 -37 4 -10 26 29 24
31 24 31 0z m-16 -88 c-10 -48 -13 -53 -29 -47 -19 8 -19 19 1 49 22 33 36 32
28 -2z m-30 -59 c9 -3 16 -14 16 -23 0 -14 -7 -16 -35 -13 -37 4 -42 11 -23
30 14 14 20 14 42 6z m-559 -31 c13 -16 25 -34 25 -41 0 -18 -46 -106 -87
-166 -33 -49 -125 -146 -137 -146 -3 0 -6 11 -6 24 0 29 49 105 79 123 30 18
81 126 88 184 3 27 8 49 10 49 2 0 15 -12 28 -27z m440 -34 c-9 -16 -22 -29
-31 -29 -8 0 -37 -11 -64 -25 -83 -42 -99 -28 -23 20 129 82 145 87 118 34z
m147 -43 c19 -23 23 -46 9 -46 -5 0 -14 7 -21 15 -7 8 -22 15 -34 15 -29 0
-61 24 -52 39 11 18 78 2 98 -23z m-389 -2 c3 -4 -8 -16 -26 -28 -18 -12 -50
-54 -76 -99 -44 -77 -63 -91 -98 -69 -20 12 64 153 102 171 17 8 37 18 45 22
19 10 45 11 53 3z m57 -79 c11 -13 9 -29 -10 -89 -18 -58 -22 -88 -18 -139 3
-36 2 -70 -2 -77 -4 -6 -25 -14 -46 -16 -52 -7 -103 24 -105 63 -4 80 0 97 36
163 50 92 113 133 145 95z m-240 -290 c0 -3 -13 -24 -30 -46 -16 -23 -32 -56
-36 -75 -6 -33 -43 -78 -45 -56 -2 21 -4 27 -12 39 -9 14 16 79 41 106 23 26
82 49 82 32z m-334 -84 c-4 -38 -23 -63 -80 -107 -43 -33 -50 -35 -72 -23 -13
7 -24 15 -23 18 1 11 154 140 166 141 8 0 11 -11 9 -29z m-1144 -71 l29 -25
-12 -89 c-8 -59 -15 -83 -20 -70 -4 10 -22 55 -40 99 -17 44 -40 102 -51 128
l-19 49 42 -34 c23 -18 54 -44 71 -58z m1711 -84 c23 -17 27 -25 21 -51 -17
-79 -15 -78 -154 -90 l-64 -5 -52 51 -51 50 -47 -36 c-83 -63 -137 -69 -57 -6
86 69 260 126 341 113 19 -3 48 -14 63 -26z m-61 -308 l52 -70 -25 -19 c-13
-10 -26 -19 -29 -19 -9 0 -32 42 -36 69 -3 14 -16 45 -30 68 -29 50 -29 53 -4
46 11 -3 43 -37 72 -75z m-565 -86 c29 -157 42 -242 48 -317 3 -44 10 -115 16
-158 11 -85 4 -107 -34 -107 -23 0 -57 27 -57 45 0 7 -9 20 -19 29 -10 10 -22
32 -25 49 -8 37 -48 87 -71 87 -8 0 -32 17 -53 38 l-37 38 -67 -6 c-92 -8
-121 -30 -128 -98 -5 -51 -5 -51 -30 -39 -18 9 -26 24 -32 54 -3 22 -20 68
-37 101 -23 46 -30 71 -28 110 2 48 3 50 62 90 82 55 229 127 246 119 8 -4 22
-12 31 -19 13 -10 30 -6 90 16 40 15 80 32 88 36 21 11 24 7 37 -68z m134 2
c10 -13 11 -31 1 -95 -10 -71 -9 -85 9 -141 10 -34 17 -69 15 -77 -3 -9 -8
-53 -11 -98 -3 -46 -9 -93 -14 -105 l-9 -23 -6 25 c-17 75 -25 146 -20 183 3
23 1 82 -5 130 -12 100 -4 217 14 217 7 0 18 -7 26 -16z m591 -88 c36 -45 28
-62 -39 -92 -65 -29 -63 -29 -63 -1 0 12 -9 36 -20 54 l-19 32 27 20 c42 32
82 27 114 -13z m44 -130 c3 -8 -2 -26 -11 -40 -9 -13 -18 -48 -19 -76 l-3 -51
-53 -25 c-43 -20 -62 -23 -101 -18 -40 5 -49 10 -49 26 0 25 13 49 47 86 16
16 39 41 52 56 42 47 125 72 137 42z m-555 -206 c-15 -51 -34 -53 -26 -2 10
59 14 67 27 54 8 -8 8 -22 -1 -52z m209 8 c0 -4 -19 -17 -42 -29 -24 -12 -68
-41 -99 -65 -30 -24 -58 -44 -62 -44 -4 0 11 36 33 80 37 73 42 79 63 71 13
-5 36 -4 57 3 33 11 49 6 50 -16z m-1950 -77 c0 -67 4 -102 13 -108 22 -18
104 -33 176 -33 38 0 73 -5 76 -10 6 -10 -23 -122 -45 -177 -6 -14 -3 -42 9
-83 15 -57 22 -66 71 -101 66 -47 68 -44 69 78 1 57 9 111 27 175 15 51 29 95
31 98 2 3 12 -5 21 -16 9 -12 51 -47 92 -80 41 -32 95 -76 118 -99 24 -22 48
-40 54 -40 5 0 22 34 38 75 16 41 34 83 40 92 5 10 10 25 10 33 0 8 5 15 10
15 6 0 10 -5 10 -10 0 -6 10 -27 23 -48 13 -20 29 -53 37 -72 20 -54 81 -146
103 -156 11 -5 53 -73 97 -156 115 -222 187 -472 240 -843 22 -151 22 -171 4
-435 -5 -71 -27 -212 -60 -380 -27 -135 -105 -360 -186 -534 -155 -333 -250
-475 -448 -671 -95 -94 -110 -106 -104 -80 3 17 48 136 100 266 80 203 97 259
127 405 34 162 59 371 58 485 0 115 -32 410 -56 529 -37 180 -162 474 -285
670 -74 119 -243 333 -375 475 -183 197 -262 300 -274 357 -22 101 -6 204 52
326 22 48 102 149 120 151 4 1 7 -43 7 -98z m1990 54 c0 -3 -17 -22 -37 -44
-53 -53 -146 -111 -180 -111 -27 1 -25 4 37 60 38 34 86 67 115 78 56 22 65
24 65 17z m310 -2 c0 -5 -9 -19 -19 -32 -17 -23 -20 -23 -41 -8 l-24 16 35 15
c39 17 49 19 49 9z m-1260 -118 c10 -24 49 -73 91 -114 42 -42 69 -75 63 -80
-9 -8 -225 -91 -238 -91 -3 0 -6 25 -6 56 0 42 -8 73 -35 131 -40 86 -41 83
42 110 38 12 50 20 45 31 -13 36 21 -3 38 -43z m114 -24 c8 -14 28 -36 45 -49
27 -20 29 -25 19 -46 l-11 -25 -44 37 c-44 37 -73 78 -73 105 0 24 49 7 64
-22z m264 -96 c-2 -3 -30 -13 -62 -24 -54 -18 -57 -18 -66 -1 -14 26 -4 30 68
30 36 0 63 -2 60 -5z"/>
</g>
</svg>
