<?xml version="1.0" standalone="no"?>
<!DOCTYPE svg PUBLIC "-//W3C//DTD SVG 20010904//EN"
 "http://www.w3.org/TR/2001/REC-SVG-20010904/DTD/svg10.dtd">
<svg version="1.0" xmlns="http://www.w3.org/2000/svg"
 width="400.000000pt" height="81.000000pt" viewBox="0 0 400.000000 81.000000"
 preserveAspectRatio="xMidYMid meet">

<g transform="translate(0.000000,81.000000) scale(0.100000,-0.100000)"
fill="#000000" stroke="none">
<path d="M747 754 c15 -7 5 -34 -36 -99 -17 -27 -31 -62 -31 -77 0 -23 4 -28
25 -28 24 0 25 3 25 55 0 51 15 105 30 105 12 0 37 -139 26 -144 -6 -2 8 -5
32 -5 46 -1 49 1 29 21 -16 15 -50 156 -41 169 3 5 -12 9 -33 8 -21 0 -33 -3
-26 -5z"/>
<path d="M868 738 c3 -13 8 -25 12 -28 14 -10 37 -139 26 -144 -6 -2 9 -5 33
-5 37 -1 42 1 29 12 -22 18 -53 168 -36 179 8 4 -3 8 -29 8 -38 0 -41 -2 -35
-22z"/>
<path d="M1509 733 c13 -26 36 -30 44 -9 4 10 1 13 -9 9 -8 -3 -22 1 -31 8
-15 13 -15 12 -4 -8z"/>
<path d="M209 681 c-89 -49 -144 -187 -125 -316 8 -50 27 -66 57 -47 10 7 24
12 31 12 19 -1 -34 -29 -54 -30 -40 0 25 -99 90 -137 35 -21 52 -25 97 -21 67
6 130 48 119 80 -5 17 -3 20 10 15 11 -4 21 3 31 23 19 37 19 50 0 50 -8 0
-15 6 -15 13 0 8 10 13 23 13 21 -1 22 2 22 90 0 81 -3 97 -30 149 -42 82 -90
118 -163 122 -42 2 -66 -2 -93 -16z m105 -36 c8 -8 19 -15 24 -15 5 0 15 -15
22 -32 29 -79 40 -98 54 -92 17 7 11 -29 -11 -61 -7 -11 -13 -30 -13 -43 0
-17 -4 -22 -14 -19 -8 3 -20 -1 -27 -9 -7 -8 -18 -13 -25 -10 -7 3 -18 -2 -24
-9 -17 -20 -74 -14 -78 8 -3 13 4 17 25 18 l28 1 -25 8 c-22 7 -20 8 14 9 49
1 44 8 -9 13 -26 2 -40 -1 -40 -9 0 -23 -15 -26 -16 -2 -3 45 -6 66 -13 78 -4
6 -2 11 4 11 6 0 9 4 6 9 -3 5 4 11 15 14 19 5 20 2 15 -21 -12 -49 -11 -57 4
-57 8 0 13 7 11 15 -2 8 -4 30 -5 49 0 19 -7 36 -15 39 -8 3 -11 0 -7 -7 4 -6
1 -11 -7 -11 -19 0 -31 31 -17 40 6 4 10 13 8 21 -2 8 16 23 42 36 24 13 39
23 32 23 -7 0 -10 5 -7 10 9 15 31 12 49 -5z m116 -119 c0 -2 -7 -7 -16 -10
-8 -3 -12 -2 -9 4 6 10 25 14 25 6z m-81 -210 c-2 -2 -15 -9 -29 -15 -24 -11
-24 -11 -6 3 16 13 49 24 35 12z m51 -15 c0 -10 -42 -39 -62 -43 -7 -2 -13 3
-13 10 0 6 3 12 7 12 4 1 20 7 35 15 33 18 33 18 33 6z m-139 -33 c4 -7 6 -14
5 -16 -6 -5 -56 21 -56 29 0 12 42 1 51 -13z m-96 -38 c3 -5 2 -10 -4 -10 -5
0 -13 5 -16 10 -3 6 -2 10 4 10 5 0 13 -4 16 -10z m137 -31 c-9 -10 -17 -19
-17 -19 -1 0 2 55 4 59 0 2 7 -2 15 -8 13 -11 12 -15 -2 -32z"/>
<path d="M280 531 c0 -5 7 -11 14 -14 10 -4 13 -1 9 9 -6 15 -23 19 -23 5z"/>
<path d="M862 680 c0 -14 2 -19 5 -12 2 6 2 18 0 25 -3 6 -5 1 -5 -13z"/>
<path d="M1335 675 c-31 -30 -34 -84 -7 -108 19 -18 87 -23 96 -8 3 4 -6 6
-19 3 -30 -5 -55 13 -55 40 0 18 5 19 34 14 19 -4 37 -2 40 3 8 13 -29 24 -54
16 -15 -5 -20 -2 -20 12 0 32 20 44 45 27 14 -9 26 -11 29 -6 3 6 -8 15 -26
21 -40 14 -35 15 -63 -14z"/>
<path d="M1795 676 c-24 -36 -22 -83 4 -109 17 -17 25 -19 39 -11 44 28 53 92
16 128 -22 23 -41 20 -59 -8z m49 -28 c20 -29 21 -68 1 -68 -21 0 -55 36 -55
58 0 38 31 43 54 10z"/>
<path d="M1950 693 c-25 -10 -39 -36 -40 -74 0 -45 25 -69 71 -68 21 1 27 3
14 6 -30 8 -45 23 -45 45 0 18 5 19 34 14 19 -4 37 -2 40 3 7 11 -37 23 -58
15 -12 -5 -16 0 -16 19 0 34 17 43 41 21 14 -12 23 -14 30 -7 7 7 1 14 -22 22
-17 6 -32 11 -33 10 -1 0 -8 -3 -16 -6z"/>
<path d="M2180 668 c-11 -18 -20 -39 -20 -46 0 -27 31 -72 50 -72 45 0 69 100
32 133 -27 24 -40 21 -62 -15z m43 -16 c25 -28 26 -67 2 -67 -23 0 -51 45 -42
68 8 22 20 21 40 -1z"/>
<path d="M2685 675 c-31 -30 -34 -84 -7 -108 19 -18 87 -23 96 -8 3 4 -6 6
-19 3 -30 -5 -55 13 -55 40 0 18 5 19 34 14 19 -4 37 -2 40 3 8 13 -29 24 -54
16 -16 -5 -20 -2 -20 18 0 31 19 39 43 19 12 -11 21 -12 28 -5 7 7 1 14 -22
22 -41 14 -36 15 -64 -14z"/>
<path d="M3316 679 c-20 -16 -26 -29 -26 -58 0 -47 24 -71 71 -70 21 1 27 3
14 6 -30 8 -45 23 -45 45 0 18 5 19 34 14 19 -4 37 -2 40 3 8 13 -29 24 -54
16 -16 -5 -20 -2 -20 19 0 33 17 42 41 20 14 -12 23 -14 30 -7 7 7 1 14 -22
22 -39 14 -32 15 -63 -10z"/>
<path d="M3775 675 c-50 -49 -20 -125 49 -125 19 0 37 4 40 9 3 4 -6 6 -21 3
-27 -5 -53 17 -53 46 0 11 8 13 34 8 19 -4 37 -2 40 3 8 13 -29 24 -54 16 -15
-5 -20 -2 -20 12 0 33 20 44 46 26 13 -8 29 -11 36 -7 8 5 0 12 -23 20 -47 17
-47 17 -74 -11z"/>
<path d="M1003 668 c4 -13 9 -42 13 -65 5 -33 11 -43 28 -45 18 -3 21 -9 18
-40 -3 -27 0 -38 10 -38 10 0 12 16 9 67 -3 50 -6 60 -10 38 -7 -35 -16 -25
-25 30 -11 63 -16 75 -33 75 -11 0 -14 -6 -10 -22z"/>
<path d="M1090 664 c-12 -32 -12 -57 0 -26 5 12 16 22 24 22 7 0 16 7 20 15 4
10 -1 15 -15 15 -12 0 -23 -10 -29 -26z"/>
<path d="M1176 674 c-9 -8 -16 -20 -16 -25 0 -17 18 -9 34 16 18 28 6 34 -18
9z"/>
<path d="M1228 684 c20 -9 14 -44 -10 -53 l-23 -8 23 -7 c15 -5 22 -15 22 -33
0 -24 -3 -25 -34 -20 -19 3 -41 0 -50 -6 -13 -10 -5 -12 41 -12 32 0 64 4 71
8 22 15 14 47 -15 58 l-28 11 23 9 c33 12 27 53 -8 56 -14 1 -19 0 -12 -3z"/>
<path d="M1464 676 c-3 -7 -4 -35 -2 -62 2 -36 7 -50 19 -52 13 -2 18 6 20 35
6 58 -1 93 -17 93 -8 0 -17 -6 -20 -14z"/>
<path d="M1550 679 c0 -7 -8 -18 -17 -25 -17 -13 -17 -14 0 -8 15 5 17 0 17
-40 0 -37 3 -46 18 -46 14 0 17 10 17 65 0 55 -3 65 -17 65 -10 0 -18 -5 -18
-11z"/>
<path d="M1620 625 c0 -59 2 -65 21 -65 20 0 21 4 15 45 l-7 45 25 -11 c17 -8
28 -23 32 -46 3 -18 12 -33 20 -33 11 0 14 16 14 65 0 51 -3 65 -15 65 -8 0
-15 -9 -15 -19 0 -11 -4 -23 -10 -26 -16 -10 -50 14 -44 30 4 10 0 15 -15 15
-19 0 -21 -6 -21 -65z"/>
<path d="M2300 625 c0 -51 3 -65 15 -65 10 0 15 10 15 30 0 18 5 30 13 30 19
0 37 -21 37 -42 0 -11 7 -18 20 -18 11 0 20 6 20 14 0 19 -48 56 -72 56 -17 0
-19 5 -16 30 4 24 1 30 -14 30 -16 0 -18 -9 -18 -65z"/>
<path d="M2373 683 c9 -2 17 -11 17 -19 0 -19 16 -18 24 2 9 24 8 24 -26 23
-18 -1 -25 -3 -15 -6z"/>
<path d="M2452 665 c10 -23 30 -35 27 -17 -3 20 3 31 19 35 9 3 0 5 -20 6 -37
1 -37 0 -26 -24z"/>
<path d="M2520 625 c0 -51 3 -65 15 -65 10 0 15 10 15 30 0 17 4 30 8 30 14 0
32 -23 32 -42 0 -11 7 -18 20 -18 41 0 12 49 -37 64 -17 6 -23 15 -23 37 0 19
-5 29 -15 29 -12 0 -15 -14 -15 -65z"/>
<path d="M2860 675 c0 -8 4 -15 8 -15 10 0 34 -89 27 -101 -4 -5 1 -9 9 -9 9
0 16 -11 18 -27 l3 -28 17 32 c14 25 15 32 4 36 -7 3 -21 33 -30 66 -13 48
-21 61 -37 61 -10 0 -19 -7 -19 -15z"/>
<path d="M2980 625 c0 -51 3 -65 15 -65 12 0 15 14 15 65 0 51 -3 65 -15 65
-12 0 -15 -14 -15 -65z"/>
<path d="M3058 673 c-2 -10 -1 -38 2 -63 4 -32 10 -46 23 -48 15 -3 17 5 17
62 0 58 -2 66 -19 66 -10 0 -20 -8 -23 -17z"/>
<path d="M3136 657 c-8 -44 3 -97 20 -97 10 0 14 14 14 46 0 25 4 43 9 40 5
-4 4 5 -2 19 -17 35 -34 31 -41 -8z"/>
<path d="M3220 659 c0 -21 -4 -28 -12 -23 -10 6 -10 4 0 -7 6 -7 12 -26 12
-41 0 -20 5 -28 18 -28 14 0 17 10 17 65 0 55 -3 65 -17 65 -13 0 -18 -8 -18
-31z"/>
<path d="M3440 625 c0 -55 3 -65 18 -65 14 0 17 7 14 45 l-4 46 26 -12 c17 -8
28 -23 32 -46 3 -18 12 -33 20 -33 11 0 14 16 14 65 0 51 -3 65 -15 65 -8 0
-15 -9 -15 -19 0 -11 -4 -23 -10 -26 -16 -10 -50 14 -44 30 4 10 0 15 -15 15
-19 0 -21 -6 -21 -65z"/>
<path d="M3600 625 c0 -51 3 -65 15 -65 12 0 15 14 15 65 0 51 -3 65 -15 65
-12 0 -15 -14 -15 -65z"/>
<path d="M3678 673 c-2 -10 -1 -38 2 -63 4 -32 10 -46 23 -48 15 -3 17 5 17
62 0 58 -2 66 -19 66 -10 0 -20 -8 -23 -17z"/>
<path d="M852 625 c0 -16 2 -22 5 -12 2 9 2 23 0 30 -3 6 -5 -1 -5 -18z"/>
<path d="M2845 620 c-4 -17 -16 -39 -26 -49 -17 -16 -18 -22 -8 -45 14 -30 29
-35 22 -6 -3 13 1 22 12 26 12 5 13 9 5 14 -10 6 -10 16 0 44 7 21 10 40 7 42
-3 3 -8 -9 -12 -26z"/>
<path d="M590 480 c-12 -7 21 -121 34 -117 5 2 14 16 19 33 13 41 36 64 64 64
l23 0 0 -165 c0 -158 -1 -165 -20 -165 -11 0 -20 -4 -20 -10 0 -6 35 -10 85
-10 50 0 85 4 85 10 0 6 -9 10 -20 10 -19 0 -20 7 -20 165 l0 165 23 0 c28 0
53 -25 68 -69 6 -17 16 -30 22 -28 10 3 41 107 34 114 -6 6 -368 9 -377 3z"/>
<path d="M1093 442 c-62 -58 -79 -86 -88 -144 -5 -34 -2 -55 10 -82 20 -43
109 -126 134 -126 10 0 46 29 79 64 l62 64 0 67 0 66 -57 61 c-32 33 -65 64
-73 68 -12 6 -30 -4 -67 -38z m94 -114 c62 -68 71 -92 47 -125 -38 -51 -46
-50 -100 6 -49 52 -83 111 -84 143 0 9 14 28 31 43 l32 26 15 -23 c8 -13 35
-44 59 -70z"/>
<path d="M1833 483 c-73 -2 -133 -8 -133 -13 0 -5 10 -10 23 -12 22 -3 22 -5
22 -168 l0 -164 -25 -7 c-14 -4 44 -7 128 -8 l153 -1 -3 82 -3 83 -59 7 c-32
4 -70 15 -82 23 -21 14 -24 23 -24 85 0 66 1 70 23 70 31 0 62 -24 77 -60 18
-44 34 -37 47 21 12 49 10 72 -5 67 -4 -1 -67 -4 -139 -5z m47 -219 c38 -26
40 -29 40 -80 0 -48 -2 -54 -24 -60 -55 -13 -61 -5 -64 84 -2 45 0 82 3 82 3
0 23 -12 45 -26z"/>
<path d="M2327 482 c-26 -5 -51 -63 -83 -192 l-28 -115 -27 110 c-43 179 -43
175 -25 175 9 0 16 5 16 10 0 6 -30 10 -70 10 -72 0 -79 -3 -57 -24 6 -7 30
-86 52 -175 34 -142 43 -164 62 -172 20 -7 23 -16 23 -59 0 -43 3 -50 20 -50
17 0 20 7 20 46 0 33 5 51 18 60 14 11 15 15 3 23 -12 8 -12 22 2 96 9 48 26
108 39 134 21 41 26 46 56 45 24 -2 32 2 32 15 0 9 3 26 6 37 4 17 0 22 -18
26 -13 2 -31 2 -41 0z"/>
<path d="M2640 460 c-16 -18 -30 -38 -30 -44 0 -7 -6 -20 -13 -30 -13 -17 -16
-15 -40 28 -24 43 -24 46 -6 46 10 0 19 5 19 10 0 6 -35 10 -85 10 -50 0 -85
-4 -85 -10 0 -5 8 -10 18 -10 11 0 34 -29 66 -81 l48 -81 -18 -40 c-34 -75
-73 -128 -94 -128 -11 0 -20 -4 -20 -10 0 -6 28 -10 65 -10 37 0 65 4 65 10 0
6 -6 10 -14 10 -8 0 -17 4 -20 8 -5 9 44 122 53 122 3 0 22 -28 43 -63 l36
-62 -24 -3 c-13 -2 -24 -8 -24 -13 0 -5 43 -9 95 -9 57 0 95 4 95 10 0 6 -10
10 -23 10 -18 0 -34 19 -81 101 -62 109 -65 130 -25 170 14 14 28 19 42 14 43
-13 50 -10 59 24 11 40 10 40 -36 48 -31 5 -39 1 -66 -27z"/>
<path d="M3733 442 c-62 -58 -79 -86 -88 -144 -5 -34 -2 -55 10 -82 20 -43
109 -126 134 -126 10 0 46 29 79 64 l62 64 0 67 0 66 -57 61 c-32 33 -65 64
-73 68 -12 6 -30 -4 -67 -38z m94 -114 c62 -68 71 -92 47 -125 -38 -51 -46
-50 -100 6 -49 52 -83 111 -84 143 0 9 14 28 31 43 l32 26 15 -23 c8 -13 35
-44 59 -70z"/>
<path d="M1420 470 c0 -5 11 -10 24 -10 14 0 27 -4 30 -8 3 -5 -22 -66 -56
-136 -43 -90 -62 -140 -62 -169 l-1 -42 48 -3 c40 -3 47 0 47 16 0 10 -7 27
-15 38 -24 32 -18 102 16 174 36 77 39 75 70 -61 33 -146 33 -149 15 -149 -9
0 -16 -4 -16 -10 0 -6 32 -10 75 -10 43 0 75 4 75 10 0 6 -7 10 -15 10 -15 0
-23 25 -61 190 -26 115 -29 150 -14 150 6 0 10 5 10 10 0 6 -35 10 -85 10 -50
0 -85 -4 -85 -10z"/>
<path d="M2810 471 c0 -5 10 -11 23 -13 22 -3 22 -5 22 -168 l0 -164 -25 -7
c-15 -4 10 -7 60 -8 62 0 80 2 68 10 -13 7 -18 23 -18 53 0 38 8 54 56 115 30
39 57 71 60 71 2 0 4 -54 4 -119 0 -116 -1 -120 -22 -124 -13 -2 15 -5 62 -5
60 -1 78 2 63 8 -23 9 -23 13 -23 175 0 158 1 165 20 165 11 0 20 5 20 10 0 6
-33 10 -80 10 -47 0 -80 -4 -80 -10 0 -5 9 -10 20 -10 16 0 20 -7 20 -31 0
-22 -15 -49 -57 -100 -31 -38 -58 -69 -60 -69 -2 0 -3 45 -3 100 0 82 3 100
15 100 8 0 15 5 15 10 0 6 -33 10 -80 10 -44 0 -80 -4 -80 -9z"/>
<path d="M3220 471 c0 -5 10 -11 23 -13 22 -3 22 -5 22 -168 l0 -164 -25 -7
c-15 -4 9 -7 59 -8 71 -1 82 1 68 12 -15 11 -17 27 -15 122 l3 110 58 -71 c51
-63 57 -76 57 -117 0 -39 -3 -46 -22 -50 -13 -2 15 -5 62 -5 60 -1 78 2 63 8
-23 9 -23 13 -23 175 0 158 1 165 20 165 11 0 20 5 20 10 0 6 -33 10 -80 10
-47 0 -80 -4 -80 -10 0 -5 9 -10 20 -10 19 0 20 -7 20 -100 0 -55 -2 -100 -5
-100 -2 0 -29 30 -60 67 -42 51 -55 75 -55 100 0 23 5 33 15 33 8 0 15 5 15
10 0 6 -33 10 -80 10 -44 0 -80 -4 -80 -9z"/>
</g>
</svg>
