<svg xmlns="http://www.w3.org/2000/svg" viewBox="0 0 14 14" height="600" width="600"><g><path d="M10,5V7a1,1,0,0,0,1,1h.5a2,2,0,0,0,2-2V3a1,1,0,0,0-1-1H11a2,2,0,0,1-.91-.22A6.88,6.88,0,0,0,7,1a6.88,6.88,0,0,0-3.11.78A2.07,2.07,0,0,1,3,2H1.5a1,1,0,0,0-1,1V6a2,2,0,0,0,2,2H3A1,1,0,0,0,4,7V5" fill="none" stroke="#000000" stroke-linecap="round" stroke-linejoin="round"></path><path d="M11.5,8l-.31,1.57a4.27,4.27,0,0,1-8.38,0L2.5,8" fill="none" stroke="#000000" stroke-linecap="round" stroke-linejoin="round"></path><line x1="6.5" y1="10" x2="7.5" y2="10" fill="none" stroke="#000000" stroke-linecap="round" stroke-linejoin="round"></line></g></svg>